  0
SECTION
  2
HEADER
  9
$ANGBASE
  50
0.0
  9
$ANGDIR
  70
1
  9
$MEASUREMENT
  70
1
  0
ENDSEC
  0
SECTION
  2
TABLES
  0
TABLE
  2
LTYPE
  70
4
  0
LTYPE
  5
40F
  2
CONTINUOUS
  70
0
  3
Solid line
  72
65
  73
0
  40
0.0
  0
LTYPE
  5
410
  2
DASHDOT
 70
0
  3
Dash Dot ____ _ ____ _
 72
65
 73
4
 40
2.0
 49
1.25
 49
-0.25
 49
0.25
 49
-0.25
  0
LTYPE
  5
411
  2
DASHED
 70
0
  3
Dashed __ __ __ __ __
 72
65
 73
2
 40
0.75
 49
0.5
 49
-0.25
  0
LTYPE
  5
43B
  2
DOTTED
 70
0
  3
Dotted .  .  .  .
 72
65
 73
2
 40
0.2
 49
0.0
 49
-0.2
  0
ENDTAB
  0
TABLE
  2
STYLE
  70
4
  0
STYLE
  2
KICAD
  70
0
  40
0
  41
1
  42
1
  50
0
  71
0
  3
isocp.shx
  0
STYLE
  2
KICADB
  70
0
  40
0
  41
1
  42
1
  50
0
  71
0
  3
isocp.shx
  0
STYLE
  2
KICADI
  70
0
  40
0
  41
1
  42
1
  50
15
  71
0
  3
isocp.shx
  0
STYLE
  2
KICADBI
  70
0
  40
0
  41
1
  42
1
  50
15
  71
0
  3
isocp.shx
  0
ENDTAB
  0
TABLE
  2
LAYER
  70
1
  0
LAYER
  2
BLACK
  70
0
  62
7
  6
CONTINUOUS
  0
ENDTAB
  0
ENDSEC
  0
SECTION
  2
ENTITIES
0
LINE
8
BLACK
6
CONTINUOUS
10
92.3900170000000003
20
-103.1010579999999948
11
92.5591069999999974
21
-103.160224999999997
0
LINE
8
BLACK
6
CONTINUOUS
10
92.5591069999999974
20
-103.160224999999997
11
92.7107919999999979
21
-103.2555349999999947
0
LINE
8
BLACK
6
CONTINUOUS
10
92.7107919999999979
20
-103.2555349999999947
11
92.8374649999999946
21
-103.3822079999999914
0
LINE
8
BLACK
6
CONTINUOUS
10
92.8374649999999946
20
-103.3822079999999914
11
92.9327749999999924
21
-103.533892999999992
0
LINE
8
BLACK
6
CONTINUOUS
10
92.9327749999999924
20
-103.533892999999992
11
92.9919419999999946
21
-103.702982999999989
0
LINE
8
BLACK
6
CONTINUOUS
10
92.9919419999999946
20
-103.702982999999989
11
93.0120000000000005
21
-103.8810000000000002
0
LINE
8
BLACK
6
CONTINUOUS
10
93.0120000000000005
20
-103.8810000000000002
11
92.9919419999999946
21
-104.0590169999999972
0
LINE
8
BLACK
6
CONTINUOUS
10
92.9919419999999946
20
-104.0590169999999972
11
92.9327749999999924
21
-104.2281069999999943
0
LINE
8
BLACK
6
CONTINUOUS
10
92.9327749999999924
20
-104.2281069999999943
11
92.8374649999999946
21
-104.3797919999999948
0
LINE
8
BLACK
6
CONTINUOUS
10
92.8374649999999946
20
-104.3797919999999948
11
92.7107919999999979
21
-104.5064649999999915
0
LINE
8
BLACK
6
CONTINUOUS
10
92.7107919999999979
20
-104.5064649999999915
11
92.5591069999999974
21
-104.6017749999999893
0
LINE
8
BLACK
6
CONTINUOUS
10
92.5591069999999974
20
-104.6017749999999893
11
92.3900170000000003
21
-104.6609419999999915
0
LINE
8
BLACK
6
CONTINUOUS
10
92.3900170000000003
20
-104.6609419999999915
11
92.2119999999999891
21
-104.6809999999999974
0
LINE
8
BLACK
6
CONTINUOUS
10
92.2119999999999891
20
-104.6809999999999974
11
92.0339829999999921
21
-104.6609419999999915
0
LINE
8
BLACK
6
CONTINUOUS
10
92.0339829999999921
20
-104.6609419999999915
11
91.864892999999995
21
-104.6017749999999893
0
LINE
8
BLACK
6
CONTINUOUS
10
91.864892999999995
20
-104.6017749999999893
11
91.7132079999999945
21
-104.5064649999999915
0
LINE
8
BLACK
6
CONTINUOUS
10
91.7132079999999945
20
-104.5064649999999915
11
91.5865349999999978
21
-104.3797919999999948
0
LINE
8
BLACK
6
CONTINUOUS
10
91.5865349999999978
20
-104.3797919999999948
11
91.491225
21
-104.2281069999999943
0
LINE
8
BLACK
6
CONTINUOUS
10
91.491225
20
-104.2281069999999943
11
91.4320579999999978
21
-104.0590169999999972
0
LINE
8
BLACK
6
CONTINUOUS
10
91.4320579999999978
20
-104.0590169999999972
11
91.4119999999999919
21
-103.8810000000000002
0
LINE
8
BLACK
6
CONTINUOUS
10
91.4119999999999919
20
-103.8810000000000002
11
91.4320579999999978
21
-103.702982999999989
0
LINE
8
BLACK
6
CONTINUOUS
10
91.4320579999999978
20
-103.702982999999989
11
91.491225
21
-103.533892999999992
0
LINE
8
BLACK
6
CONTINUOUS
10
91.491225
20
-103.533892999999992
11
91.5865349999999978
21
-103.3822079999999914
0
LINE
8
BLACK
6
CONTINUOUS
10
91.5865349999999978
20
-103.3822079999999914
11
91.7132079999999945
21
-103.2555349999999947
0
LINE
8
BLACK
6
CONTINUOUS
10
91.7132079999999945
20
-103.2555349999999947
11
91.864892999999995
21
-103.160224999999997
0
LINE
8
BLACK
6
CONTINUOUS
10
91.864892999999995
20
-103.160224999999997
11
92.0339829999999921
21
-103.1010579999999948
0
LINE
8
BLACK
6
CONTINUOUS
10
92.0339829999999921
20
-103.1010579999999948
11
92.2119999999999891
21
-103.0809999999999889
0
LINE
8
BLACK
6
CONTINUOUS
10
92.2119999999999891
20
-103.0809999999999889
11
92.3900170000000003
21
-103.1010579999999948
0
LINE
8
BLACK
6
CONTINUOUS
10
100.0100169999999906
20
-103.1010579999999948
11
100.1791070000000019
21
-103.160224999999997
0
LINE
8
BLACK
6
CONTINUOUS
10
100.1791070000000019
20
-103.160224999999997
11
100.3307920000000024
21
-103.2555349999999947
0
LINE
8
BLACK
6
CONTINUOUS
10
100.3307920000000024
20
-103.2555349999999947
11
100.4574649999999991
21
-103.3822079999999914
0
LINE
8
BLACK
6
CONTINUOUS
10
100.4574649999999991
20
-103.3822079999999914
11
100.5527749999999969
21
-103.533892999999992
0
LINE
8
BLACK
6
CONTINUOUS
10
100.5527749999999969
20
-103.533892999999992
11
100.6119419999999991
21
-103.702982999999989
0
LINE
8
BLACK
6
CONTINUOUS
10
100.6119419999999991
20
-103.702982999999989
11
100.6319999999999908
21
-103.8810000000000002
0
LINE
8
BLACK
6
CONTINUOUS
10
100.6319999999999908
20
-103.8810000000000002
11
100.6119419999999991
21
-104.0590169999999972
0
LINE
8
BLACK
6
CONTINUOUS
10
100.6119419999999991
20
-104.0590169999999972
11
100.5527749999999969
21
-104.2281069999999943
0
LINE
8
BLACK
6
CONTINUOUS
10
100.5527749999999969
20
-104.2281069999999943
11
100.4574649999999991
21
-104.3797919999999948
0
LINE
8
BLACK
6
CONTINUOUS
10
100.4574649999999991
20
-104.3797919999999948
11
100.3307920000000024
21
-104.5064649999999915
0
LINE
8
BLACK
6
CONTINUOUS
10
100.3307920000000024
20
-104.5064649999999915
11
100.1791070000000019
21
-104.6017749999999893
0
LINE
8
BLACK
6
CONTINUOUS
10
100.1791070000000019
20
-104.6017749999999893
11
100.0100169999999906
21
-104.6609419999999915
0
LINE
8
BLACK
6
CONTINUOUS
10
100.0100169999999906
20
-104.6609419999999915
11
99.8319999999999936
21
-104.6809999999999974
0
LINE
8
BLACK
6
CONTINUOUS
10
99.8319999999999936
20
-104.6809999999999974
11
99.6539829999999967
21
-104.6609419999999915
0
LINE
8
BLACK
6
CONTINUOUS
10
99.6539829999999967
20
-104.6609419999999915
11
99.4848929999999996
21
-104.6017749999999893
0
LINE
8
BLACK
6
CONTINUOUS
10
99.4848929999999996
20
-104.6017749999999893
11
99.3332079999999991
21
-104.5064649999999915
0
LINE
8
BLACK
6
CONTINUOUS
10
99.3332079999999991
20
-104.5064649999999915
11
99.2065350000000024
21
-104.3797919999999948
0
LINE
8
BLACK
6
CONTINUOUS
10
99.2065350000000024
20
-104.3797919999999948
11
99.1112249999999904
21
-104.2281069999999943
0
LINE
8
BLACK
6
CONTINUOUS
10
99.1112249999999904
20
-104.2281069999999943
11
99.0520580000000024
21
-104.0590169999999972
0
LINE
8
BLACK
6
CONTINUOUS
10
99.0520580000000024
20
-104.0590169999999972
11
99.0319999999999965
21
-103.8810000000000002
0
LINE
8
BLACK
6
CONTINUOUS
10
99.0319999999999965
20
-103.8810000000000002
11
99.0520580000000024
21
-103.702982999999989
0
LINE
8
BLACK
6
CONTINUOUS
10
99.0520580000000024
20
-103.702982999999989
11
99.1112249999999904
21
-103.533892999999992
0
LINE
8
BLACK
6
CONTINUOUS
10
99.1112249999999904
20
-103.533892999999992
11
99.2065350000000024
21
-103.3822079999999914
0
LINE
8
BLACK
6
CONTINUOUS
10
99.2065350000000024
20
-103.3822079999999914
11
99.3332079999999991
21
-103.2555349999999947
0
LINE
8
BLACK
6
CONTINUOUS
10
99.3332079999999991
20
-103.2555349999999947
11
99.4848929999999996
21
-103.160224999999997
0
LINE
8
BLACK
6
CONTINUOUS
10
99.4848929999999996
20
-103.160224999999997
11
99.6539829999999967
21
-103.1010579999999948
0
LINE
8
BLACK
6
CONTINUOUS
10
99.6539829999999967
20
-103.1010579999999948
11
99.8319999999999936
21
-103.0809999999999889
0
LINE
8
BLACK
6
CONTINUOUS
10
99.8319999999999936
20
-103.0809999999999889
11
100.0100169999999906
21
-103.1010579999999948
0
LINE
8
BLACK
6
CONTINUOUS
10
59.7655589999999961
20
-102.11686499999999
11
59.8246509999999958
21
-102.1563489999999916
0
LINE
8
BLACK
6
CONTINUOUS
10
59.8246509999999958
20
-102.1563489999999916
11
59.8641349999999974
21
-102.2154409999999984
0
LINE
8
BLACK
6
CONTINUOUS
10
59.8641349999999974
20
-102.2154409999999984
11
59.8780000000000001
21
-102.2851439999999883
0
LINE
8
BLACK
6
CONTINUOUS
10
59.8780000000000001
20
-102.2851439999999883
11
59.8780000000000001
21
-104.4708559999999977
0
LINE
8
BLACK
6
CONTINUOUS
10
59.8780000000000001
20
-104.4708559999999977
11
59.8641349999999974
21
-104.5405590000000018
0
LINE
8
BLACK
6
CONTINUOUS
10
59.8641349999999974
20
-104.5405590000000018
11
59.8246509999999958
21
-104.5996509999999944
0
LINE
8
BLACK
6
CONTINUOUS
10
59.8246509999999958
20
-104.5996509999999944
11
59.7655589999999961
21
-104.639134999999996
0
LINE
8
BLACK
6
CONTINUOUS
10
59.7655589999999961
20
-104.639134999999996
11
59.6958559999999991
21
-104.6529999999999916
0
LINE
8
BLACK
6
CONTINUOUS
10
59.6958559999999991
20
-104.6529999999999916
11
57.5101439999999968
21
-104.6529999999999916
0
LINE
8
BLACK
6
CONTINUOUS
10
57.5101439999999968
20
-104.6529999999999916
11
57.4404409999999999
21
-104.639134999999996
0
LINE
8
BLACK
6
CONTINUOUS
10
57.4404409999999999
20
-104.639134999999996
11
57.3813490000000002
21
-104.5996509999999944
0
LINE
8
BLACK
6
CONTINUOUS
10
57.3813490000000002
20
-104.5996509999999944
11
57.3418649999999985
21
-104.5405590000000018
0
LINE
8
BLACK
6
CONTINUOUS
10
57.3418649999999985
20
-104.5405590000000018
11
57.3279999999999959
21
-104.4708559999999977
0
LINE
8
BLACK
6
CONTINUOUS
10
57.3279999999999959
20
-104.4708559999999977
11
57.3279999999999959
21
-102.2851439999999883
0
LINE
8
BLACK
6
CONTINUOUS
10
57.3279999999999959
20
-102.2851439999999883
11
57.3418649999999985
21
-102.2154409999999984
0
LINE
8
BLACK
6
CONTINUOUS
10
57.3418649999999985
20
-102.2154409999999984
11
57.3813490000000002
21
-102.1563489999999916
0
LINE
8
BLACK
6
CONTINUOUS
10
57.3813490000000002
20
-102.1563489999999916
11
57.4404409999999999
21
-102.11686499999999
0
LINE
8
BLACK
6
CONTINUOUS
10
57.4404409999999999
20
-102.11686499999999
11
57.5101439999999968
21
-102.1029999999999944
0
LINE
8
BLACK
6
CONTINUOUS
10
57.5101439999999968
20
-102.1029999999999944
11
59.6958559999999991
21
-102.1029999999999944
0
LINE
8
BLACK
6
CONTINUOUS
10
59.6958559999999991
20
-102.1029999999999944
11
59.7655589999999961
21
-102.11686499999999
0
LINE
8
BLACK
6
CONTINUOUS
10
65.8244009999999946
20
-102.1223699999999894
11
66.0390759999999943
21
-102.1798919999999953
0
LINE
8
BLACK
6
CONTINUOUS
10
66.0390759999999943
20
-102.1798919999999953
11
66.2404999999999973
21
-102.2738179999999915
0
LINE
8
BLACK
6
CONTINUOUS
10
66.2404999999999973
20
-102.2738179999999915
11
66.422553999999991
21
-102.4012929999999955
0
LINE
8
BLACK
6
CONTINUOUS
10
66.422553999999991
20
-102.4012929999999955
11
66.5797069999999991
21
-102.5584459999999893
0
LINE
8
BLACK
6
CONTINUOUS
10
66.5797069999999991
20
-102.5584459999999893
11
66.7071820000000031
21
-102.7404999999999973
0
LINE
8
BLACK
6
CONTINUOUS
10
66.7071820000000031
20
-102.7404999999999973
11
66.8011079999999993
21
-102.9419240000000002
0
LINE
8
BLACK
6
CONTINUOUS
10
66.8011079999999993
20
-102.9419240000000002
11
66.8586299999999909
21
-103.1565989999999999
0
LINE
8
BLACK
6
CONTINUOUS
10
66.8586299999999909
20
-103.1565989999999999
11
66.8780000000000001
21
-103.3780000000000001
0
LINE
8
BLACK
6
CONTINUOUS
10
66.8780000000000001
20
-103.3780000000000001
11
66.8586299999999909
21
-103.5994010000000003
0
LINE
8
BLACK
6
CONTINUOUS
10
66.8586299999999909
20
-103.5994010000000003
11
66.8011079999999993
21
-103.814076
0
LINE
8
BLACK
6
CONTINUOUS
10
66.8011079999999993
20
-103.814076
11
66.7071820000000031
21
-104.0154999999999887
0
LINE
8
BLACK
6
CONTINUOUS
10
66.7071820000000031
20
-104.0154999999999887
11
66.5797069999999991
21
-104.1975539999999967
0
LINE
8
BLACK
6
CONTINUOUS
10
66.5797069999999991
20
-104.1975539999999967
11
66.422553999999991
21
-104.3547069999999906
0
LINE
8
BLACK
6
CONTINUOUS
10
66.422553999999991
20
-104.3547069999999906
11
66.2404999999999973
21
-104.4821819999999946
0
LINE
8
BLACK
6
CONTINUOUS
10
66.2404999999999973
20
-104.4821819999999946
11
66.0390759999999943
21
-104.5761079999999907
0
LINE
8
BLACK
6
CONTINUOUS
10
66.0390759999999943
20
-104.5761079999999907
11
65.8244009999999946
21
-104.6336299999999966
0
LINE
8
BLACK
6
CONTINUOUS
10
65.8244009999999946
20
-104.6336299999999966
11
65.6029999999999944
21
-104.6529999999999916
0
LINE
8
BLACK
6
CONTINUOUS
10
65.6029999999999944
20
-104.6529999999999916
11
65.3815989999999942
21
-104.6336299999999966
0
LINE
8
BLACK
6
CONTINUOUS
10
65.3815989999999942
20
-104.6336299999999966
11
65.1669239999999945
21
-104.5761079999999907
0
LINE
8
BLACK
6
CONTINUOUS
10
65.1669239999999945
20
-104.5761079999999907
11
64.9654999999999916
21
-104.4821819999999946
0
LINE
8
BLACK
6
CONTINUOUS
10
64.9654999999999916
20
-104.4821819999999946
11
64.7834459999999979
21
-104.3547069999999906
0
LINE
8
BLACK
6
CONTINUOUS
10
64.7834459999999979
20
-104.3547069999999906
11
64.626293000000004
21
-104.1975539999999967
0
LINE
8
BLACK
6
CONTINUOUS
10
64.626293000000004
20
-104.1975539999999967
11
64.498818
21
-104.0154999999999887
0
LINE
8
BLACK
6
CONTINUOUS
10
64.498818
20
-104.0154999999999887
11
64.4048920000000038
21
-103.814076
0
LINE
8
BLACK
6
CONTINUOUS
10
64.4048920000000038
20
-103.814076
11
64.347369999999998
21
-103.5994010000000003
0
LINE
8
BLACK
6
CONTINUOUS
10
64.347369999999998
20
-103.5994010000000003
11
64.328000000000003
21
-103.3780000000000001
0
LINE
8
BLACK
6
CONTINUOUS
10
64.328000000000003
20
-103.3780000000000001
11
64.347369999999998
21
-103.1565989999999999
0
LINE
8
BLACK
6
CONTINUOUS
10
64.347369999999998
20
-103.1565989999999999
11
64.4048920000000038
21
-102.9419240000000002
0
LINE
8
BLACK
6
CONTINUOUS
10
64.4048920000000038
20
-102.9419240000000002
11
64.498818
21
-102.7404999999999973
0
LINE
8
BLACK
6
CONTINUOUS
10
64.498818
20
-102.7404999999999973
11
64.626293000000004
21
-102.5584459999999893
0
LINE
8
BLACK
6
CONTINUOUS
10
64.626293000000004
20
-102.5584459999999893
11
64.7834459999999979
21
-102.4012929999999955
0
LINE
8
BLACK
6
CONTINUOUS
10
64.7834459999999979
20
-102.4012929999999955
11
64.9654999999999916
21
-102.2738179999999915
0
LINE
8
BLACK
6
CONTINUOUS
10
64.9654999999999916
20
-102.2738179999999915
11
65.1669239999999945
21
-102.1798919999999953
0
LINE
8
BLACK
6
CONTINUOUS
10
65.1669239999999945
20
-102.1798919999999953
11
65.3815989999999942
21
-102.1223699999999894
0
LINE
8
BLACK
6
CONTINUOUS
10
65.3815989999999942
20
-102.1223699999999894
11
65.6029999999999944
21
-102.1029999999999944
0
LINE
8
BLACK
6
CONTINUOUS
10
65.6029999999999944
20
-102.1029999999999944
11
65.8244009999999946
21
-102.1223699999999894
0
LINE
8
BLACK
6
CONTINUOUS
10
106.9116709999999983
20
-99.8230299999999886
11
106.9927769999999896
21
-99.8772230000000008
0
LINE
8
BLACK
6
CONTINUOUS
10
106.9927769999999896
20
-99.8772230000000008
11
107.0469700000000017
21
-99.958328999999992
0
LINE
8
BLACK
6
CONTINUOUS
10
107.0469700000000017
20
-99.958328999999992
11
107.0659989999999908
21
-100.054000000000002
0
LINE
8
BLACK
6
CONTINUOUS
10
107.0659989999999908
20
-100.054000000000002
11
107.0659999999999883
21
-102.1040009999999967
0
LINE
8
BLACK
6
CONTINUOUS
10
107.0659999999999883
20
-102.1040009999999967
11
107.0469700000000017
21
-102.199670999999995
0
LINE
8
BLACK
6
CONTINUOUS
10
107.0469700000000017
20
-102.199670999999995
11
106.9927769999999896
21
-102.2807770000000005
0
LINE
8
BLACK
6
CONTINUOUS
10
106.9927769999999896
20
-102.2807770000000005
11
106.9116709999999983
21
-102.3349699999999984
0
LINE
8
BLACK
6
CONTINUOUS
10
106.9116709999999983
20
-102.3349699999999984
11
106.8159999999999883
21
-102.3539990000000017
0
LINE
8
BLACK
6
CONTINUOUS
10
106.8159999999999883
20
-102.3539990000000017
11
104.7659989999999937
21
-102.3539999999999992
0
LINE
8
BLACK
6
CONTINUOUS
10
104.7659989999999937
20
-102.3539999999999992
11
104.6703289999999953
21
-102.3349699999999984
0
LINE
8
BLACK
6
CONTINUOUS
10
104.6703289999999953
20
-102.3349699999999984
11
104.5892229999999898
21
-102.2807770000000005
0
LINE
8
BLACK
6
CONTINUOUS
10
104.5892229999999898
20
-102.2807770000000005
11
104.5350299999999919
21
-102.199670999999995
0
LINE
8
BLACK
6
CONTINUOUS
10
104.5350299999999919
20
-102.199670999999995
11
104.5160009999999886
21
-102.1039999999999992
0
LINE
8
BLACK
6
CONTINUOUS
10
104.5160009999999886
20
-102.1039999999999992
11
104.5159999999999911
21
-100.0539989999999904
0
LINE
8
BLACK
6
CONTINUOUS
10
104.5159999999999911
20
-100.0539989999999904
11
104.5350299999999919
21
-99.958328999999992
0
LINE
8
BLACK
6
CONTINUOUS
10
104.5350299999999919
20
-99.958328999999992
11
104.5892229999999898
21
-99.8772230000000008
0
LINE
8
BLACK
6
CONTINUOUS
10
104.5892229999999898
20
-99.8772230000000008
11
104.6703289999999953
21
-99.8230299999999886
0
LINE
8
BLACK
6
CONTINUOUS
10
104.6703289999999953
20
-99.8230299999999886
11
104.7659999999999911
21
-99.8040009999999995
0
LINE
8
BLACK
6
CONTINUOUS
10
104.7659999999999911
20
-99.8040009999999995
11
106.816001
21
-99.804000000000002
0
LINE
8
BLACK
6
CONTINUOUS
10
106.816001
20
-99.804000000000002
11
106.9116709999999983
21
-99.8230299999999886
0
LINE
8
BLACK
6
CONTINUOUS
10
93.0120000000000005
20
-102.1409999999999911
11
91.4119999999999919
21
-102.1409999999999911
0
LINE
8
BLACK
6
CONTINUOUS
10
91.4119999999999919
20
-102.1409999999999911
11
91.4119999999999919
21
-100.5409999999999968
0
LINE
8
BLACK
6
CONTINUOUS
10
91.4119999999999919
20
-100.5409999999999968
11
93.0120000000000005
21
-100.5409999999999968
0
LINE
8
BLACK
6
CONTINUOUS
10
93.0120000000000005
20
-100.5409999999999968
11
93.0120000000000005
21
-102.1409999999999911
0
LINE
8
BLACK
6
CONTINUOUS
10
100.0100169999999906
20
-100.5610579999999885
11
100.1791070000000019
21
-100.6202249999999907
0
LINE
8
BLACK
6
CONTINUOUS
10
100.1791070000000019
20
-100.6202249999999907
11
100.3307920000000024
21
-100.7155349999999885
0
LINE
8
BLACK
6
CONTINUOUS
10
100.3307920000000024
20
-100.7155349999999885
11
100.4574649999999991
21
-100.8422079999999994
0
LINE
8
BLACK
6
CONTINUOUS
10
100.4574649999999991
20
-100.8422079999999994
11
100.5527749999999969
21
-100.9938929999999999
0
LINE
8
BLACK
6
CONTINUOUS
10
100.5527749999999969
20
-100.9938929999999999
11
100.6119419999999991
21
-101.162982999999997
0
LINE
8
BLACK
6
CONTINUOUS
10
100.6119419999999991
20
-101.162982999999997
11
100.6319999999999908
21
-101.340999999999994
0
LINE
8
BLACK
6
CONTINUOUS
10
100.6319999999999908
20
-101.340999999999994
11
100.6119419999999991
21
-101.519016999999991
0
LINE
8
BLACK
6
CONTINUOUS
10
100.6119419999999991
20
-101.519016999999991
11
100.5527749999999969
21
-101.6881070000000022
0
LINE
8
BLACK
6
CONTINUOUS
10
100.5527749999999969
20
-101.6881070000000022
11
100.4574649999999991
21
-101.8397919999999885
0
LINE
8
BLACK
6
CONTINUOUS
10
100.4574649999999991
20
-101.8397919999999885
11
100.3307920000000024
21
-101.9664649999999995
0
LINE
8
BLACK
6
CONTINUOUS
10
100.3307920000000024
20
-101.9664649999999995
11
100.1791070000000019
21
-102.0617749999999972
0
LINE
8
BLACK
6
CONTINUOUS
10
100.1791070000000019
20
-102.0617749999999972
11
100.0100169999999906
21
-102.1209419999999994
0
LINE
8
BLACK
6
CONTINUOUS
10
100.0100169999999906
20
-102.1209419999999994
11
99.8319999999999936
21
-102.1409999999999911
0
LINE
8
BLACK
6
CONTINUOUS
10
99.8319999999999936
20
-102.1409999999999911
11
99.6539829999999967
21
-102.1209419999999994
0
LINE
8
BLACK
6
CONTINUOUS
10
99.6539829999999967
20
-102.1209419999999994
11
99.4848929999999996
21
-102.0617749999999972
0
LINE
8
BLACK
6
CONTINUOUS
10
99.4848929999999996
20
-102.0617749999999972
11
99.3332079999999991
21
-101.9664649999999995
0
LINE
8
BLACK
6
CONTINUOUS
10
99.3332079999999991
20
-101.9664649999999995
11
99.2065350000000024
21
-101.8397919999999885
0
LINE
8
BLACK
6
CONTINUOUS
10
99.2065350000000024
20
-101.8397919999999885
11
99.1112249999999904
21
-101.6881070000000022
0
LINE
8
BLACK
6
CONTINUOUS
10
99.1112249999999904
20
-101.6881070000000022
11
99.0520580000000024
21
-101.519016999999991
0
LINE
8
BLACK
6
CONTINUOUS
10
99.0520580000000024
20
-101.519016999999991
11
99.0319999999999965
21
-101.340999999999994
0
LINE
8
BLACK
6
CONTINUOUS
10
99.0319999999999965
20
-101.340999999999994
11
99.0520580000000024
21
-101.162982999999997
0
LINE
8
BLACK
6
CONTINUOUS
10
99.0520580000000024
20
-101.162982999999997
11
99.1112249999999904
21
-100.9938929999999999
0
LINE
8
BLACK
6
CONTINUOUS
10
99.1112249999999904
20
-100.9938929999999999
11
99.2065350000000024
21
-100.8422079999999994
0
LINE
8
BLACK
6
CONTINUOUS
10
99.2065350000000024
20
-100.8422079999999994
11
99.3332079999999991
21
-100.7155349999999885
0
LINE
8
BLACK
6
CONTINUOUS
10
99.3332079999999991
20
-100.7155349999999885
11
99.4848929999999996
21
-100.6202249999999907
0
LINE
8
BLACK
6
CONTINUOUS
10
99.4848929999999996
20
-100.6202249999999907
11
99.6539829999999967
21
-100.5610579999999885
0
LINE
8
BLACK
6
CONTINUOUS
10
99.6539829999999967
20
-100.5610579999999885
11
99.8319999999999936
21
-100.5409999999999968
0
LINE
8
BLACK
6
CONTINUOUS
10
99.8319999999999936
20
-100.5409999999999968
11
100.0100169999999906
21
-100.5610579999999885
0
LINE
8
BLACK
6
CONTINUOUS
10
85.078000000000003
20
-101.4399999999999977
11
83.578000000000003
21
-101.4399999999999977
0
LINE
8
BLACK
6
CONTINUOUS
10
83.578000000000003
20
-101.4399999999999977
11
83.578000000000003
21
-99.9399999999999977
0
LINE
8
BLACK
6
CONTINUOUS
10
83.578000000000003
20
-99.9399999999999977
11
85.078000000000003
21
-99.9399999999999977
0
LINE
8
BLACK
6
CONTINUOUS
10
85.078000000000003
20
-99.9399999999999977
11
85.078000000000003
21
-101.4399999999999977
0
LINE
8
BLACK
6
CONTINUOUS
10
87.0348910000000018
20
-99.9588040000000007
11
87.1934129999999925
21
-100.0142729999999887
0
LINE
8
BLACK
6
CONTINUOUS
10
87.1934129999999925
20
-100.0142729999999887
11
87.3356169999999992
21
-100.1036259999999913
0
LINE
8
BLACK
6
CONTINUOUS
10
87.3356169999999992
20
-100.1036259999999913
11
87.4543740000000014
21
-100.2223829999999936
0
LINE
8
BLACK
6
CONTINUOUS
10
87.4543740000000014
20
-100.2223829999999936
11
87.5437269999999899
21
-100.3645870000000002
0
LINE
8
BLACK
6
CONTINUOUS
10
87.5437269999999899
20
-100.3645870000000002
11
87.5991959999999921
21
-100.5231089999999909
0
LINE
8
BLACK
6
CONTINUOUS
10
87.5991959999999921
20
-100.5231089999999909
11
87.617999999999995
21
-100.6899999999999977
0
LINE
8
BLACK
6
CONTINUOUS
10
87.617999999999995
20
-100.6899999999999977
11
87.5991959999999921
21
-100.8568909999999903
0
LINE
8
BLACK
6
CONTINUOUS
10
87.5991959999999921
20
-100.8568909999999903
11
87.5437269999999899
21
-101.0154129999999952
0
LINE
8
BLACK
6
CONTINUOUS
10
87.5437269999999899
20
-101.0154129999999952
11
87.4543740000000014
21
-101.1576170000000019
0
LINE
8
BLACK
6
CONTINUOUS
10
87.4543740000000014
20
-101.1576170000000019
11
87.3356169999999992
21
-101.2763739999999899
0
LINE
8
BLACK
6
CONTINUOUS
10
87.3356169999999992
20
-101.2763739999999899
11
87.1934129999999925
21
-101.3657269999999926
0
LINE
8
BLACK
6
CONTINUOUS
10
87.1934129999999925
20
-101.3657269999999926
11
87.0348910000000018
21
-101.4211959999999948
0
LINE
8
BLACK
6
CONTINUOUS
10
87.0348910000000018
20
-101.4211959999999948
11
86.867999999999995
21
-101.4399999999999977
0
LINE
8
BLACK
6
CONTINUOUS
10
86.867999999999995
20
-101.4399999999999977
11
86.7011090000000024
21
-101.4211959999999948
0
LINE
8
BLACK
6
CONTINUOUS
10
86.7011090000000024
20
-101.4211959999999948
11
86.5425869999999975
21
-101.3657269999999926
0
LINE
8
BLACK
6
CONTINUOUS
10
86.5425869999999975
20
-101.3657269999999926
11
86.4003829999999908
21
-101.2763739999999899
0
LINE
8
BLACK
6
CONTINUOUS
10
86.4003829999999908
20
-101.2763739999999899
11
86.2816260000000028
21
-101.1576170000000019
0
LINE
8
BLACK
6
CONTINUOUS
10
86.2816260000000028
20
-101.1576170000000019
11
86.1922730000000001
21
-101.0154129999999952
0
LINE
8
BLACK
6
CONTINUOUS
10
86.1922730000000001
20
-101.0154129999999952
11
86.1368039999999979
21
-100.8568909999999903
0
LINE
8
BLACK
6
CONTINUOUS
10
86.1368039999999979
20
-100.8568909999999903
11
86.117999999999995
21
-100.6899999999999977
0
LINE
8
BLACK
6
CONTINUOUS
10
86.117999999999995
20
-100.6899999999999977
11
86.1368039999999979
21
-100.5231089999999909
0
LINE
8
BLACK
6
CONTINUOUS
10
86.1368039999999979
20
-100.5231089999999909
11
86.1922730000000001
21
-100.3645870000000002
0
LINE
8
BLACK
6
CONTINUOUS
10
86.1922730000000001
20
-100.3645870000000002
11
86.2816260000000028
21
-100.2223829999999936
0
LINE
8
BLACK
6
CONTINUOUS
10
86.2816260000000028
20
-100.2223829999999936
11
86.4003829999999908
21
-100.1036259999999913
0
LINE
8
BLACK
6
CONTINUOUS
10
86.4003829999999908
20
-100.1036259999999913
11
86.5425869999999975
21
-100.0142729999999887
0
LINE
8
BLACK
6
CONTINUOUS
10
86.5425869999999975
20
-100.0142729999999887
11
86.7011090000000024
21
-99.9588040000000007
0
LINE
8
BLACK
6
CONTINUOUS
10
86.7011090000000024
20
-99.9588040000000007
11
86.867999999999995
21
-99.9399999999999977
0
LINE
8
BLACK
6
CONTINUOUS
10
86.867999999999995
20
-99.9399999999999977
11
87.0348910000000018
21
-99.9588040000000007
0
LINE
8
BLACK
6
CONTINUOUS
10
89.5748909999999938
20
-99.9588040000000007
11
89.7334129999999988
21
-100.0142729999999887
0
LINE
8
BLACK
6
CONTINUOUS
10
89.7334129999999988
20
-100.0142729999999887
11
89.8756169999999912
21
-100.1036259999999913
0
LINE
8
BLACK
6
CONTINUOUS
10
89.8756169999999912
20
-100.1036259999999913
11
89.9943739999999934
21
-100.2223829999999936
0
LINE
8
BLACK
6
CONTINUOUS
10
89.9943739999999934
20
-100.2223829999999936
11
90.0837269999999961
21
-100.3645870000000002
0
LINE
8
BLACK
6
CONTINUOUS
10
90.0837269999999961
20
-100.3645870000000002
11
90.1391959999999983
21
-100.5231089999999909
0
LINE
8
BLACK
6
CONTINUOUS
10
90.1391959999999983
20
-100.5231089999999909
11
90.1580000000000013
21
-100.6899999999999977
0
LINE
8
BLACK
6
CONTINUOUS
10
90.1580000000000013
20
-100.6899999999999977
11
90.1391959999999983
21
-100.8568909999999903
0
LINE
8
BLACK
6
CONTINUOUS
10
90.1391959999999983
20
-100.8568909999999903
11
90.0837269999999961
21
-101.0154129999999952
0
LINE
8
BLACK
6
CONTINUOUS
10
90.0837269999999961
20
-101.0154129999999952
11
89.9943739999999934
21
-101.1576170000000019
0
LINE
8
BLACK
6
CONTINUOUS
10
89.9943739999999934
20
-101.1576170000000019
11
89.8756169999999912
21
-101.2763739999999899
0
LINE
8
BLACK
6
CONTINUOUS
10
89.8756169999999912
20
-101.2763739999999899
11
89.7334129999999988
21
-101.3657269999999926
0
LINE
8
BLACK
6
CONTINUOUS
10
89.7334129999999988
20
-101.3657269999999926
11
89.5748909999999938
21
-101.4211959999999948
0
LINE
8
BLACK
6
CONTINUOUS
10
89.5748909999999938
20
-101.4211959999999948
11
89.4080000000000013
21
-101.4399999999999977
0
LINE
8
BLACK
6
CONTINUOUS
10
89.4080000000000013
20
-101.4399999999999977
11
89.2411089999999945
21
-101.4211959999999948
0
LINE
8
BLACK
6
CONTINUOUS
10
89.2411089999999945
20
-101.4211959999999948
11
89.0825869999999895
21
-101.3657269999999926
0
LINE
8
BLACK
6
CONTINUOUS
10
89.0825869999999895
20
-101.3657269999999926
11
88.9403829999999971
21
-101.2763739999999899
0
LINE
8
BLACK
6
CONTINUOUS
10
88.9403829999999971
20
-101.2763739999999899
11
88.8216259999999949
21
-101.1576170000000019
0
LINE
8
BLACK
6
CONTINUOUS
10
88.8216259999999949
20
-101.1576170000000019
11
88.7322729999999922
21
-101.0154129999999952
0
LINE
8
BLACK
6
CONTINUOUS
10
88.7322729999999922
20
-101.0154129999999952
11
88.67680399999999
21
-100.8568909999999903
0
LINE
8
BLACK
6
CONTINUOUS
10
88.67680399999999
20
-100.8568909999999903
11
88.6580000000000013
21
-100.6899999999999977
0
LINE
8
BLACK
6
CONTINUOUS
10
88.6580000000000013
20
-100.6899999999999977
11
88.67680399999999
21
-100.5231089999999909
0
LINE
8
BLACK
6
CONTINUOUS
10
88.67680399999999
20
-100.5231089999999909
11
88.7322729999999922
21
-100.3645870000000002
0
LINE
8
BLACK
6
CONTINUOUS
10
88.7322729999999922
20
-100.3645870000000002
11
88.8216259999999949
21
-100.2223829999999936
0
LINE
8
BLACK
6
CONTINUOUS
10
88.8216259999999949
20
-100.2223829999999936
11
88.9403829999999971
21
-100.1036259999999913
0
LINE
8
BLACK
6
CONTINUOUS
10
88.9403829999999971
20
-100.1036259999999913
11
89.0825869999999895
21
-100.0142729999999887
0
LINE
8
BLACK
6
CONTINUOUS
10
89.0825869999999895
20
-100.0142729999999887
11
89.2411089999999945
21
-99.9588040000000007
0
LINE
8
BLACK
6
CONTINUOUS
10
89.2411089999999945
20
-99.9588040000000007
11
89.4080000000000013
21
-99.9399999999999977
0
LINE
8
BLACK
6
CONTINUOUS
10
89.4080000000000013
20
-99.9399999999999977
11
89.5748909999999938
21
-99.9588040000000007
0
LINE
8
BLACK
6
CONTINUOUS
10
113.4620169999999888
20
-98.2400579999999906
11
113.6311070000000001
21
-98.2992249999999927
0
LINE
8
BLACK
6
CONTINUOUS
10
113.6311070000000001
20
-98.2992249999999927
11
113.7827920000000006
21
-98.3945349999999905
0
LINE
8
BLACK
6
CONTINUOUS
10
113.7827920000000006
20
-98.3945349999999905
11
113.9094649999999973
21
-98.5212080000000014
0
LINE
8
BLACK
6
CONTINUOUS
10
113.9094649999999973
20
-98.5212080000000014
11
114.0047749999999951
21
-98.672893000000002
0
LINE
8
BLACK
6
CONTINUOUS
10
114.0047749999999951
20
-98.672893000000002
11
114.0639419999999973
21
-98.841982999999999
0
LINE
8
BLACK
6
CONTINUOUS
10
114.0639419999999973
20
-98.841982999999999
11
114.083999999999989
21
-99.019999999999996
0
LINE
8
BLACK
6
CONTINUOUS
10
114.083999999999989
20
-99.019999999999996
11
114.0639419999999973
21
-99.198016999999993
0
LINE
8
BLACK
6
CONTINUOUS
10
114.0639419999999973
20
-99.198016999999993
11
114.0047749999999951
21
-99.3671069999999901
0
LINE
8
BLACK
6
CONTINUOUS
10
114.0047749999999951
20
-99.3671069999999901
11
113.9094649999999973
21
-99.5187919999999906
0
LINE
8
BLACK
6
CONTINUOUS
10
113.9094649999999973
20
-99.5187919999999906
11
113.7827920000000006
21
-99.6454650000000015
0
LINE
8
BLACK
6
CONTINUOUS
10
113.7827920000000006
20
-99.6454650000000015
11
113.6311070000000001
21
-99.7407749999999993
0
LINE
8
BLACK
6
CONTINUOUS
10
113.6311070000000001
20
-99.7407749999999993
11
113.4620169999999888
21
-99.7999420000000015
0
LINE
8
BLACK
6
CONTINUOUS
10
113.4620169999999888
20
-99.7999420000000015
11
113.2839999999999918
21
-99.8199999999999932
0
LINE
8
BLACK
6
CONTINUOUS
10
113.2839999999999918
20
-99.8199999999999932
11
113.1059829999999948
21
-99.7999420000000015
0
LINE
8
BLACK
6
CONTINUOUS
10
113.1059829999999948
20
-99.7999420000000015
11
112.9368929999999978
21
-99.7407749999999993
0
LINE
8
BLACK
6
CONTINUOUS
10
112.9368929999999978
20
-99.7407749999999993
11
112.7852079999999972
21
-99.6454650000000015
0
LINE
8
BLACK
6
CONTINUOUS
10
112.7852079999999972
20
-99.6454650000000015
11
112.6585350000000005
21
-99.5187919999999906
0
LINE
8
BLACK
6
CONTINUOUS
10
112.6585350000000005
20
-99.5187919999999906
11
112.5632249999999885
21
-99.3671069999999901
0
LINE
8
BLACK
6
CONTINUOUS
10
112.5632249999999885
20
-99.3671069999999901
11
112.5040580000000006
21
-99.198016999999993
0
LINE
8
BLACK
6
CONTINUOUS
10
112.5040580000000006
20
-99.198016999999993
11
112.4839999999999947
21
-99.019999999999996
0
LINE
8
BLACK
6
CONTINUOUS
10
112.4839999999999947
20
-99.019999999999996
11
112.5040580000000006
21
-98.841982999999999
0
LINE
8
BLACK
6
CONTINUOUS
10
112.5040580000000006
20
-98.841982999999999
11
112.5632249999999885
21
-98.672893000000002
0
LINE
8
BLACK
6
CONTINUOUS
10
112.5632249999999885
20
-98.672893000000002
11
112.6585350000000005
21
-98.5212080000000014
0
LINE
8
BLACK
6
CONTINUOUS
10
112.6585350000000005
20
-98.5212080000000014
11
112.7852079999999972
21
-98.3945349999999905
0
LINE
8
BLACK
6
CONTINUOUS
10
112.7852079999999972
20
-98.3945349999999905
11
112.9368929999999978
21
-98.2992249999999927
0
LINE
8
BLACK
6
CONTINUOUS
10
112.9368929999999978
20
-98.2992249999999927
11
113.1059829999999948
21
-98.2400579999999906
0
LINE
8
BLACK
6
CONTINUOUS
10
113.1059829999999948
20
-98.2400579999999906
11
113.2839999999999918
21
-98.2199999999999989
0
LINE
8
BLACK
6
CONTINUOUS
10
113.2839999999999918
20
-98.2199999999999989
11
113.4620169999999888
21
-98.2400579999999906
0
LINE
8
BLACK
6
CONTINUOUS
10
62.9080349999999981
20
-95.9599299999999999
11
63.1056430000000006
21
-95.9912279999999924
0
LINE
8
BLACK
6
CONTINUOUS
10
63.1056430000000006
20
-95.9912279999999924
11
63.2959209999999999
21
-96.0530539999999888
0
LINE
8
BLACK
6
CONTINUOUS
10
63.2959209999999999
20
-96.0530539999999888
11
63.474185999999996
21
-96.1438839999999999
0
LINE
8
BLACK
6
CONTINUOUS
10
63.474185999999996
20
-96.1438839999999999
11
63.6360460000000003
21
-96.2614820000000009
0
LINE
8
BLACK
6
CONTINUOUS
10
63.6360460000000003
20
-96.2614820000000009
11
63.7775180000000006
21
-96.402953999999994
0
LINE
8
BLACK
6
CONTINUOUS
10
63.7775180000000006
20
-96.402953999999994
11
63.8951159999999945
21
-96.5648139999999984
0
LINE
8
BLACK
6
CONTINUOUS
10
63.8951159999999945
20
-96.5648139999999984
11
63.9859459999999984
21
-96.7430789999999945
0
LINE
8
BLACK
6
CONTINUOUS
10
63.9859459999999984
20
-96.7430789999999945
11
64.0477719999999948
21
-96.9333570000000009
0
LINE
8
BLACK
6
CONTINUOUS
10
64.0477719999999948
20
-96.9333570000000009
11
64.0790700000000015
21
-97.1309649999999891
0
LINE
8
BLACK
6
CONTINUOUS
10
64.0790700000000015
20
-97.1309649999999891
11
64.0790700000000015
21
-97.331035
0
LINE
8
BLACK
6
CONTINUOUS
10
64.0790700000000015
20
-97.331035
11
64.0477719999999948
21
-97.5286430000000024
0
LINE
8
BLACK
6
CONTINUOUS
10
64.0477719999999948
20
-97.5286430000000024
11
63.9859459999999984
21
-97.7189209999999946
0
LINE
8
BLACK
6
CONTINUOUS
10
63.9859459999999984
20
-97.7189209999999946
11
63.8951159999999945
21
-97.8971859999999907
0
LINE
8
BLACK
6
CONTINUOUS
10
63.8951159999999945
20
-97.8971859999999907
11
63.7775180000000006
21
-98.059045999999995
0
LINE
8
BLACK
6
CONTINUOUS
10
63.7775180000000006
20
-98.059045999999995
11
63.6360460000000003
21
-98.2005180000000024
0
LINE
8
BLACK
6
CONTINUOUS
10
63.6360460000000003
20
-98.2005180000000024
11
63.474185999999996
21
-98.3181159999999892
0
LINE
8
BLACK
6
CONTINUOUS
10
63.474185999999996
20
-98.3181159999999892
11
63.2959209999999999
21
-98.4089460000000003
0
LINE
8
BLACK
6
CONTINUOUS
10
63.2959209999999999
20
-98.4089460000000003
11
63.1056430000000006
21
-98.4707719999999966
0
LINE
8
BLACK
6
CONTINUOUS
10
63.1056430000000006
20
-98.4707719999999966
11
62.9080349999999981
21
-98.5020699999999891
0
LINE
8
BLACK
6
CONTINUOUS
10
62.9080349999999981
20
-98.5020699999999891
11
61.3979999999999961
21
-98.5060000000000002
0
LINE
8
BLACK
6
CONTINUOUS
10
61.3979999999999961
20
-98.5060000000000002
11
61.2979649999999978
21
-98.5020699999999891
0
LINE
8
BLACK
6
CONTINUOUS
10
61.2979649999999978
20
-98.5020699999999891
11
61.1003569999999954
21
-98.4707719999999966
0
LINE
8
BLACK
6
CONTINUOUS
10
61.1003569999999954
20
-98.4707719999999966
11
60.9100789999999961
21
-98.4089460000000003
0
LINE
8
BLACK
6
CONTINUOUS
10
60.9100789999999961
20
-98.4089460000000003
11
60.731814
21
-98.3181159999999892
0
LINE
8
BLACK
6
CONTINUOUS
10
60.731814
20
-98.3181159999999892
11
60.5699539999999956
21
-98.2005180000000024
0
LINE
8
BLACK
6
CONTINUOUS
10
60.5699539999999956
20
-98.2005180000000024
11
60.4284819999999954
21
-98.059045999999995
0
LINE
8
BLACK
6
CONTINUOUS
10
60.4284819999999954
20
-98.059045999999995
11
60.3108839999999944
21
-97.8971859999999907
0
LINE
8
BLACK
6
CONTINUOUS
10
60.3108839999999944
20
-97.8971859999999907
11
60.2200539999999975
21
-97.7189209999999946
0
LINE
8
BLACK
6
CONTINUOUS
10
60.2200539999999975
20
-97.7189209999999946
11
60.158227999999994
21
-97.5286430000000024
0
LINE
8
BLACK
6
CONTINUOUS
10
60.158227999999994
20
-97.5286430000000024
11
60.1269299999999944
21
-97.331035
0
LINE
8
BLACK
6
CONTINUOUS
10
60.1269299999999944
20
-97.331035
11
60.1269299999999944
21
-97.1309649999999891
0
LINE
8
BLACK
6
CONTINUOUS
10
60.1269299999999944
20
-97.1309649999999891
11
60.158227999999994
21
-96.9333570000000009
0
LINE
8
BLACK
6
CONTINUOUS
10
60.158227999999994
20
-96.9333570000000009
11
60.2200539999999975
21
-96.7430789999999945
0
LINE
8
BLACK
6
CONTINUOUS
10
60.2200539999999975
20
-96.7430789999999945
11
60.3108839999999944
21
-96.5648139999999984
0
LINE
8
BLACK
6
CONTINUOUS
10
60.3108839999999944
20
-96.5648139999999984
11
60.4284819999999954
21
-96.402953999999994
0
LINE
8
BLACK
6
CONTINUOUS
10
60.4284819999999954
20
-96.402953999999994
11
60.5699539999999956
21
-96.2614820000000009
0
LINE
8
BLACK
6
CONTINUOUS
10
60.5699539999999956
20
-96.2614820000000009
11
60.731814
21
-96.1438839999999999
0
LINE
8
BLACK
6
CONTINUOUS
10
60.731814
20
-96.1438839999999999
11
60.9100789999999961
21
-96.0530539999999888
0
LINE
8
BLACK
6
CONTINUOUS
10
60.9100789999999961
20
-96.0530539999999888
11
61.1003569999999954
21
-95.9912279999999924
0
LINE
8
BLACK
6
CONTINUOUS
10
61.1003569999999954
20
-95.9912279999999924
11
61.2979649999999978
21
-95.9599299999999999
0
LINE
8
BLACK
6
CONTINUOUS
10
61.2979649999999978
20
-95.9599299999999999
11
62.8079999999999998
21
-95.9559999999999889
0
LINE
8
BLACK
6
CONTINUOUS
10
62.8079999999999998
20
-95.9559999999999889
11
62.9080349999999981
21
-95.9599299999999999
0
LINE
8
BLACK
6
CONTINUOUS
10
73.4570169999999933
20
-96.502057999999991
11
73.6261069999999904
21
-96.5612249999999932
0
LINE
8
BLACK
6
CONTINUOUS
10
73.6261069999999904
20
-96.5612249999999932
11
73.7777919999999909
21
-96.656534999999991
0
LINE
8
BLACK
6
CONTINUOUS
10
73.7777919999999909
20
-96.656534999999991
11
73.9044650000000019
21
-96.7832080000000019
0
LINE
8
BLACK
6
CONTINUOUS
10
73.9044650000000019
20
-96.7832080000000019
11
73.9997749999999996
21
-96.9348930000000024
0
LINE
8
BLACK
6
CONTINUOUS
10
73.9997749999999996
20
-96.9348930000000024
11
74.0589420000000018
21
-97.1039829999999995
0
LINE
8
BLACK
6
CONTINUOUS
10
74.0589420000000018
20
-97.1039829999999995
11
74.0789999999999935
21
-97.2819999999999965
0
LINE
8
BLACK
6
CONTINUOUS
10
74.0789999999999935
20
-97.2819999999999965
11
74.0589420000000018
21
-97.4600169999999935
0
LINE
8
BLACK
6
CONTINUOUS
10
74.0589420000000018
20
-97.4600169999999935
11
73.9997749999999996
21
-97.6291069999999905
0
LINE
8
BLACK
6
CONTINUOUS
10
73.9997749999999996
20
-97.6291069999999905
11
73.9044650000000019
21
-97.780791999999991
0
LINE
8
BLACK
6
CONTINUOUS
10
73.9044650000000019
20
-97.780791999999991
11
73.7777919999999909
21
-97.907465000000002
0
LINE
8
BLACK
6
CONTINUOUS
10
73.7777919999999909
20
-97.907465000000002
11
73.6261069999999904
21
-98.0027749999999997
0
LINE
8
BLACK
6
CONTINUOUS
10
73.6261069999999904
20
-98.0027749999999997
11
73.4570169999999933
21
-98.0619420000000019
0
LINE
8
BLACK
6
CONTINUOUS
10
73.4570169999999933
20
-98.0619420000000019
11
73.2789999999999964
21
-98.0819999999999936
0
LINE
8
BLACK
6
CONTINUOUS
10
73.2789999999999964
20
-98.0819999999999936
11
73.1009829999999994
21
-98.0619420000000019
0
LINE
8
BLACK
6
CONTINUOUS
10
73.1009829999999994
20
-98.0619420000000019
11
72.9318930000000023
21
-98.0027749999999997
0
LINE
8
BLACK
6
CONTINUOUS
10
72.9318930000000023
20
-98.0027749999999997
11
72.7802080000000018
21
-97.907465000000002
0
LINE
8
BLACK
6
CONTINUOUS
10
72.7802080000000018
20
-97.907465000000002
11
72.6535349999999909
21
-97.780791999999991
0
LINE
8
BLACK
6
CONTINUOUS
10
72.6535349999999909
20
-97.780791999999991
11
72.5582249999999931
21
-97.6291069999999905
0
LINE
8
BLACK
6
CONTINUOUS
10
72.5582249999999931
20
-97.6291069999999905
11
72.4990579999999909
21
-97.4600169999999935
0
LINE
8
BLACK
6
CONTINUOUS
10
72.4990579999999909
20
-97.4600169999999935
11
72.4789999999999992
21
-97.2819999999999965
0
LINE
8
BLACK
6
CONTINUOUS
10
72.4789999999999992
20
-97.2819999999999965
11
72.4990579999999909
21
-97.1039829999999995
0
LINE
8
BLACK
6
CONTINUOUS
10
72.4990579999999909
20
-97.1039829999999995
11
72.5582249999999931
21
-96.9348930000000024
0
LINE
8
BLACK
6
CONTINUOUS
10
72.5582249999999931
20
-96.9348930000000024
11
72.6535349999999909
21
-96.7832080000000019
0
LINE
8
BLACK
6
CONTINUOUS
10
72.6535349999999909
20
-96.7832080000000019
11
72.7802080000000018
21
-96.656534999999991
0
LINE
8
BLACK
6
CONTINUOUS
10
72.7802080000000018
20
-96.656534999999991
11
72.9318930000000023
21
-96.5612249999999932
0
LINE
8
BLACK
6
CONTINUOUS
10
72.9318930000000023
20
-96.5612249999999932
11
73.1009829999999994
21
-96.502057999999991
0
LINE
8
BLACK
6
CONTINUOUS
10
73.1009829999999994
20
-96.502057999999991
11
73.2789999999999964
21
-96.4819999999999993
0
LINE
8
BLACK
6
CONTINUOUS
10
73.2789999999999964
20
-96.4819999999999993
11
73.4570169999999933
21
-96.502057999999991
0
LINE
8
BLACK
6
CONTINUOUS
10
81.0770169999999979
20
-96.502057999999991
11
81.246106999999995
21
-96.5612249999999932
0
LINE
8
BLACK
6
CONTINUOUS
10
81.246106999999995
20
-96.5612249999999932
11
81.3977919999999955
21
-96.656534999999991
0
LINE
8
BLACK
6
CONTINUOUS
10
81.3977919999999955
20
-96.656534999999991
11
81.5244649999999922
21
-96.7832080000000019
0
LINE
8
BLACK
6
CONTINUOUS
10
81.5244649999999922
20
-96.7832080000000019
11
81.61977499999999
21
-96.9348930000000024
0
LINE
8
BLACK
6
CONTINUOUS
10
81.61977499999999
20
-96.9348930000000024
11
81.6789419999999922
21
-97.1039829999999995
0
LINE
8
BLACK
6
CONTINUOUS
10
81.6789419999999922
20
-97.1039829999999995
11
81.6989999999999981
21
-97.2819999999999965
0
LINE
8
BLACK
6
CONTINUOUS
10
81.6989999999999981
20
-97.2819999999999965
11
81.6789419999999922
21
-97.4600169999999935
0
LINE
8
BLACK
6
CONTINUOUS
10
81.6789419999999922
20
-97.4600169999999935
11
81.61977499999999
21
-97.6291069999999905
0
LINE
8
BLACK
6
CONTINUOUS
10
81.61977499999999
20
-97.6291069999999905
11
81.5244649999999922
21
-97.780791999999991
0
LINE
8
BLACK
6
CONTINUOUS
10
81.5244649999999922
20
-97.780791999999991
11
81.3977919999999955
21
-97.907465000000002
0
LINE
8
BLACK
6
CONTINUOUS
10
81.3977919999999955
20
-97.907465000000002
11
81.246106999999995
21
-98.0027749999999997
0
LINE
8
BLACK
6
CONTINUOUS
10
81.246106999999995
20
-98.0027749999999997
11
81.0770169999999979
21
-98.0619420000000019
0
LINE
8
BLACK
6
CONTINUOUS
10
81.0770169999999979
20
-98.0619420000000019
11
80.8990000000000009
21
-98.0819999999999936
0
LINE
8
BLACK
6
CONTINUOUS
10
80.8990000000000009
20
-98.0819999999999936
11
80.7209829999999897
21
-98.0619420000000019
0
LINE
8
BLACK
6
CONTINUOUS
10
80.7209829999999897
20
-98.0619420000000019
11
80.5518929999999926
21
-98.0027749999999997
0
LINE
8
BLACK
6
CONTINUOUS
10
80.5518929999999926
20
-98.0027749999999997
11
80.4002079999999921
21
-97.907465000000002
0
LINE
8
BLACK
6
CONTINUOUS
10
80.4002079999999921
20
-97.907465000000002
11
80.2735349999999954
21
-97.780791999999991
0
LINE
8
BLACK
6
CONTINUOUS
10
80.2735349999999954
20
-97.780791999999991
11
80.1782249999999976
21
-97.6291069999999905
0
LINE
8
BLACK
6
CONTINUOUS
10
80.1782249999999976
20
-97.6291069999999905
11
80.1190579999999954
21
-97.4600169999999935
0
LINE
8
BLACK
6
CONTINUOUS
10
80.1190579999999954
20
-97.4600169999999935
11
80.0989999999999895
21
-97.2819999999999965
0
LINE
8
BLACK
6
CONTINUOUS
10
80.0989999999999895
20
-97.2819999999999965
11
80.1190579999999954
21
-97.1039829999999995
0
LINE
8
BLACK
6
CONTINUOUS
10
80.1190579999999954
20
-97.1039829999999995
11
80.1782249999999976
21
-96.9348930000000024
0
LINE
8
BLACK
6
CONTINUOUS
10
80.1782249999999976
20
-96.9348930000000024
11
80.2735349999999954
21
-96.7832080000000019
0
LINE
8
BLACK
6
CONTINUOUS
10
80.2735349999999954
20
-96.7832080000000019
11
80.4002079999999921
21
-96.656534999999991
0
LINE
8
BLACK
6
CONTINUOUS
10
80.4002079999999921
20
-96.656534999999991
11
80.5518929999999926
21
-96.5612249999999932
0
LINE
8
BLACK
6
CONTINUOUS
10
80.5518929999999926
20
-96.5612249999999932
11
80.7209829999999897
21
-96.502057999999991
0
LINE
8
BLACK
6
CONTINUOUS
10
80.7209829999999897
20
-96.502057999999991
11
80.8990000000000009
21
-96.4819999999999993
0
LINE
8
BLACK
6
CONTINUOUS
10
80.8990000000000009
20
-96.4819999999999993
11
81.0770169999999979
21
-96.502057999999991
0
LINE
8
BLACK
6
CONTINUOUS
10
106.012400999999997
20
-95.0233699999999999
11
106.2270759999999967
21
-95.0808919999999915
0
LINE
8
BLACK
6
CONTINUOUS
10
106.2270759999999967
20
-95.0808919999999915
11
106.4284999999999997
21
-95.1748180000000019
0
LINE
8
BLACK
6
CONTINUOUS
10
106.4284999999999997
20
-95.1748180000000019
11
106.6105539999999934
21
-95.3022929999999917
0
LINE
8
BLACK
6
CONTINUOUS
10
106.6105539999999934
20
-95.3022929999999917
11
106.7677070000000015
21
-95.4594459999999998
0
LINE
8
BLACK
6
CONTINUOUS
10
106.7677070000000015
20
-95.4594459999999998
11
106.8951819999999913
21
-95.6414999999999935
0
LINE
8
BLACK
6
CONTINUOUS
10
106.8951819999999913
20
-95.6414999999999935
11
106.9891080000000017
21
-95.8429239999999965
0
LINE
8
BLACK
6
CONTINUOUS
10
106.9891080000000017
20
-95.8429239999999965
11
107.0466299999999933
21
-96.0575989999999962
0
LINE
8
BLACK
6
CONTINUOUS
10
107.0466299999999933
20
-96.0575989999999962
11
107.0659999999999883
21
-96.2789999999999964
0
LINE
8
BLACK
6
CONTINUOUS
10
107.0659999999999883
20
-96.2789999999999964
11
107.0466299999999933
21
-96.5004009999999965
0
LINE
8
BLACK
6
CONTINUOUS
10
107.0466299999999933
20
-96.5004009999999965
11
106.9891080000000017
21
-96.7150759999999963
0
LINE
8
BLACK
6
CONTINUOUS
10
106.9891080000000017
20
-96.7150759999999963
11
106.8951819999999913
21
-96.9164999999999992
0
LINE
8
BLACK
6
CONTINUOUS
10
106.8951819999999913
20
-96.9164999999999992
11
106.7677070000000015
21
-97.0985539999999929
0
LINE
8
BLACK
6
CONTINUOUS
10
106.7677070000000015
20
-97.0985539999999929
11
106.6105539999999934
21
-97.255707000000001
0
LINE
8
BLACK
6
CONTINUOUS
10
106.6105539999999934
20
-97.255707000000001
11
106.4284999999999997
21
-97.3831819999999908
0
LINE
8
BLACK
6
CONTINUOUS
10
106.4284999999999997
20
-97.3831819999999908
11
106.2270759999999967
21
-97.4771080000000012
0
LINE
8
BLACK
6
CONTINUOUS
10
106.2270759999999967
20
-97.4771080000000012
11
106.012400999999997
21
-97.5346299999999928
0
LINE
8
BLACK
6
CONTINUOUS
10
106.012400999999997
20
-97.5346299999999928
11
105.7909999999999968
21
-97.554000000000002
0
LINE
8
BLACK
6
CONTINUOUS
10
105.7909999999999968
20
-97.554000000000002
11
105.5695989999999966
21
-97.5346299999999928
0
LINE
8
BLACK
6
CONTINUOUS
10
105.5695989999999966
20
-97.5346299999999928
11
105.3549239999999969
21
-97.4771080000000012
0
LINE
8
BLACK
6
CONTINUOUS
10
105.3549239999999969
20
-97.4771080000000012
11
105.153499999999994
21
-97.3831819999999908
0
LINE
8
BLACK
6
CONTINUOUS
10
105.153499999999994
20
-97.3831819999999908
11
104.9714460000000003
21
-97.255707000000001
0
LINE
8
BLACK
6
CONTINUOUS
10
104.9714460000000003
20
-97.255707000000001
11
104.8142929999999922
21
-97.0985539999999929
0
LINE
8
BLACK
6
CONTINUOUS
10
104.8142929999999922
20
-97.0985539999999929
11
104.6868179999999882
21
-96.9164999999999992
0
LINE
8
BLACK
6
CONTINUOUS
10
104.6868179999999882
20
-96.9164999999999992
11
104.592891999999992
21
-96.7150759999999963
0
LINE
8
BLACK
6
CONTINUOUS
10
104.592891999999992
20
-96.7150759999999963
11
104.5353700000000003
21
-96.5004009999999965
0
LINE
8
BLACK
6
CONTINUOUS
10
104.5353700000000003
20
-96.5004009999999965
11
104.5159999999999911
21
-96.2789999999999964
0
LINE
8
BLACK
6
CONTINUOUS
10
104.5159999999999911
20
-96.2789999999999964
11
104.5353700000000003
21
-96.0575989999999962
0
LINE
8
BLACK
6
CONTINUOUS
10
104.5353700000000003
20
-96.0575989999999962
11
104.592891999999992
21
-95.8429239999999965
0
LINE
8
BLACK
6
CONTINUOUS
10
104.592891999999992
20
-95.8429239999999965
11
104.6868179999999882
21
-95.6414999999999935
0
LINE
8
BLACK
6
CONTINUOUS
10
104.6868179999999882
20
-95.6414999999999935
11
104.8142929999999922
21
-95.4594459999999998
0
LINE
8
BLACK
6
CONTINUOUS
10
104.8142929999999922
20
-95.4594459999999998
11
104.9714460000000003
21
-95.3022929999999917
0
LINE
8
BLACK
6
CONTINUOUS
10
104.9714460000000003
20
-95.3022929999999917
11
105.153499999999994
21
-95.1748180000000019
0
LINE
8
BLACK
6
CONTINUOUS
10
105.153499999999994
20
-95.1748180000000019
11
105.3549239999999969
21
-95.0808919999999915
0
LINE
8
BLACK
6
CONTINUOUS
10
105.3549239999999969
20
-95.0808919999999915
11
105.5695989999999966
21
-95.0233699999999999
0
LINE
8
BLACK
6
CONTINUOUS
10
105.5695989999999966
20
-95.0233699999999999
11
105.7909999999999968
21
-95.0039999999999907
0
LINE
8
BLACK
6
CONTINUOUS
10
105.7909999999999968
20
-95.0039999999999907
11
106.012400999999997
21
-95.0233699999999999
0
LINE
8
BLACK
6
CONTINUOUS
10
73.4570169999999933
20
-93.3270579999999939
11
73.6261069999999904
21
-93.386224999999996
0
LINE
8
BLACK
6
CONTINUOUS
10
73.6261069999999904
20
-93.386224999999996
11
73.7777919999999909
21
-93.4815349999999938
0
LINE
8
BLACK
6
CONTINUOUS
10
73.7777919999999909
20
-93.4815349999999938
11
73.9044650000000019
21
-93.6082079999999905
0
LINE
8
BLACK
6
CONTINUOUS
10
73.9044650000000019
20
-93.6082079999999905
11
73.9997749999999996
21
-93.759892999999991
0
LINE
8
BLACK
6
CONTINUOUS
10
73.9997749999999996
20
-93.759892999999991
11
74.0589420000000018
21
-93.9289830000000023
0
LINE
8
BLACK
6
CONTINUOUS
10
74.0589420000000018
20
-93.9289830000000023
11
74.0789999999999935
21
-94.1069999999999993
0
LINE
8
BLACK
6
CONTINUOUS
10
74.0789999999999935
20
-94.1069999999999993
11
74.0589420000000018
21
-94.2850169999999963
0
LINE
8
BLACK
6
CONTINUOUS
10
74.0589420000000018
20
-94.2850169999999963
11
73.9997749999999996
21
-94.4541069999999934
0
LINE
8
BLACK
6
CONTINUOUS
10
73.9997749999999996
20
-94.4541069999999934
11
73.9044650000000019
21
-94.6057919999999939
0
LINE
8
BLACK
6
CONTINUOUS
10
73.9044650000000019
20
-94.6057919999999939
11
73.7777919999999909
21
-94.7324649999999906
0
LINE
8
BLACK
6
CONTINUOUS
10
73.7777919999999909
20
-94.7324649999999906
11
73.6261069999999904
21
-94.8277750000000026
0
LINE
8
BLACK
6
CONTINUOUS
10
73.6261069999999904
20
-94.8277750000000026
11
73.4570169999999933
21
-94.8869419999999906
0
LINE
8
BLACK
6
CONTINUOUS
10
73.4570169999999933
20
-94.8869419999999906
11
73.2789999999999964
21
-94.9069999999999965
0
LINE
8
BLACK
6
CONTINUOUS
10
73.2789999999999964
20
-94.9069999999999965
11
73.1009829999999994
21
-94.8869419999999906
0
LINE
8
BLACK
6
CONTINUOUS
10
73.1009829999999994
20
-94.8869419999999906
11
72.9318930000000023
21
-94.8277750000000026
0
LINE
8
BLACK
6
CONTINUOUS
10
72.9318930000000023
20
-94.8277750000000026
11
72.7802080000000018
21
-94.7324649999999906
0
LINE
8
BLACK
6
CONTINUOUS
10
72.7802080000000018
20
-94.7324649999999906
11
72.6535349999999909
21
-94.6057919999999939
0
LINE
8
BLACK
6
CONTINUOUS
10
72.6535349999999909
20
-94.6057919999999939
11
72.5582249999999931
21
-94.4541069999999934
0
LINE
8
BLACK
6
CONTINUOUS
10
72.5582249999999931
20
-94.4541069999999934
11
72.4990579999999909
21
-94.2850169999999963
0
LINE
8
BLACK
6
CONTINUOUS
10
72.4990579999999909
20
-94.2850169999999963
11
72.4789999999999992
21
-94.1069999999999993
0
LINE
8
BLACK
6
CONTINUOUS
10
72.4789999999999992
20
-94.1069999999999993
11
72.4990579999999909
21
-93.9289830000000023
0
LINE
8
BLACK
6
CONTINUOUS
10
72.4990579999999909
20
-93.9289830000000023
11
72.5582249999999931
21
-93.759892999999991
0
LINE
8
BLACK
6
CONTINUOUS
10
72.5582249999999931
20
-93.759892999999991
11
72.6535349999999909
21
-93.6082079999999905
0
LINE
8
BLACK
6
CONTINUOUS
10
72.6535349999999909
20
-93.6082079999999905
11
72.7802080000000018
21
-93.4815349999999938
0
LINE
8
BLACK
6
CONTINUOUS
10
72.7802080000000018
20
-93.4815349999999938
11
72.9318930000000023
21
-93.386224999999996
0
LINE
8
BLACK
6
CONTINUOUS
10
72.9318930000000023
20
-93.386224999999996
11
73.1009829999999994
21
-93.3270579999999939
0
LINE
8
BLACK
6
CONTINUOUS
10
73.1009829999999994
20
-93.3270579999999939
11
73.2789999999999964
21
-93.3070000000000022
0
LINE
8
BLACK
6
CONTINUOUS
10
73.2789999999999964
20
-93.3070000000000022
11
73.4570169999999933
21
-93.3270579999999939
0
LINE
8
BLACK
6
CONTINUOUS
10
81.0770169999999979
20
-93.3270579999999939
11
81.246106999999995
21
-93.386224999999996
0
LINE
8
BLACK
6
CONTINUOUS
10
81.246106999999995
20
-93.386224999999996
11
81.3977919999999955
21
-93.4815349999999938
0
LINE
8
BLACK
6
CONTINUOUS
10
81.3977919999999955
20
-93.4815349999999938
11
81.5244649999999922
21
-93.6082079999999905
0
LINE
8
BLACK
6
CONTINUOUS
10
81.5244649999999922
20
-93.6082079999999905
11
81.61977499999999
21
-93.759892999999991
0
LINE
8
BLACK
6
CONTINUOUS
10
81.61977499999999
20
-93.759892999999991
11
81.6789419999999922
21
-93.9289830000000023
0
LINE
8
BLACK
6
CONTINUOUS
10
81.6789419999999922
20
-93.9289830000000023
11
81.6989999999999981
21
-94.1069999999999993
0
LINE
8
BLACK
6
CONTINUOUS
10
81.6989999999999981
20
-94.1069999999999993
11
81.6789419999999922
21
-94.2850169999999963
0
LINE
8
BLACK
6
CONTINUOUS
10
81.6789419999999922
20
-94.2850169999999963
11
81.61977499999999
21
-94.4541069999999934
0
LINE
8
BLACK
6
CONTINUOUS
10
81.61977499999999
20
-94.4541069999999934
11
81.5244649999999922
21
-94.6057919999999939
0
LINE
8
BLACK
6
CONTINUOUS
10
81.5244649999999922
20
-94.6057919999999939
11
81.3977919999999955
21
-94.7324649999999906
0
LINE
8
BLACK
6
CONTINUOUS
10
81.3977919999999955
20
-94.7324649999999906
11
81.246106999999995
21
-94.8277750000000026
0
LINE
8
BLACK
6
CONTINUOUS
10
81.246106999999995
20
-94.8277750000000026
11
81.0770169999999979
21
-94.8869419999999906
0
LINE
8
BLACK
6
CONTINUOUS
10
81.0770169999999979
20
-94.8869419999999906
11
80.8990000000000009
21
-94.9069999999999965
0
LINE
8
BLACK
6
CONTINUOUS
10
80.8990000000000009
20
-94.9069999999999965
11
80.7209829999999897
21
-94.8869419999999906
0
LINE
8
BLACK
6
CONTINUOUS
10
80.7209829999999897
20
-94.8869419999999906
11
80.5518929999999926
21
-94.8277750000000026
0
LINE
8
BLACK
6
CONTINUOUS
10
80.5518929999999926
20
-94.8277750000000026
11
80.4002079999999921
21
-94.7324649999999906
0
LINE
8
BLACK
6
CONTINUOUS
10
80.4002079999999921
20
-94.7324649999999906
11
80.2735349999999954
21
-94.6057919999999939
0
LINE
8
BLACK
6
CONTINUOUS
10
80.2735349999999954
20
-94.6057919999999939
11
80.1782249999999976
21
-94.4541069999999934
0
LINE
8
BLACK
6
CONTINUOUS
10
80.1782249999999976
20
-94.4541069999999934
11
80.1190579999999954
21
-94.2850169999999963
0
LINE
8
BLACK
6
CONTINUOUS
10
80.1190579999999954
20
-94.2850169999999963
11
80.0989999999999895
21
-94.1069999999999993
0
LINE
8
BLACK
6
CONTINUOUS
10
80.0989999999999895
20
-94.1069999999999993
11
80.1190579999999954
21
-93.9289830000000023
0
LINE
8
BLACK
6
CONTINUOUS
10
80.1190579999999954
20
-93.9289830000000023
11
80.1782249999999976
21
-93.759892999999991
0
LINE
8
BLACK
6
CONTINUOUS
10
80.1782249999999976
20
-93.759892999999991
11
80.2735349999999954
21
-93.6082079999999905
0
LINE
8
BLACK
6
CONTINUOUS
10
80.2735349999999954
20
-93.6082079999999905
11
80.4002079999999921
21
-93.4815349999999938
0
LINE
8
BLACK
6
CONTINUOUS
10
80.4002079999999921
20
-93.4815349999999938
11
80.5518929999999926
21
-93.386224999999996
0
LINE
8
BLACK
6
CONTINUOUS
10
80.5518929999999926
20
-93.386224999999996
11
80.7209829999999897
21
-93.3270579999999939
0
LINE
8
BLACK
6
CONTINUOUS
10
80.7209829999999897
20
-93.3270579999999939
11
80.8990000000000009
21
-93.3070000000000022
0
LINE
8
BLACK
6
CONTINUOUS
10
80.8990000000000009
20
-93.3070000000000022
11
81.0770169999999979
21
-93.3270579999999939
0
LINE
8
BLACK
6
CONTINUOUS
10
113.4620169999999888
20
-93.2400579999999906
11
113.6311070000000001
21
-93.2992249999999927
0
LINE
8
BLACK
6
CONTINUOUS
10
113.6311070000000001
20
-93.2992249999999927
11
113.7827920000000006
21
-93.3945349999999905
0
LINE
8
BLACK
6
CONTINUOUS
10
113.7827920000000006
20
-93.3945349999999905
11
113.9094649999999973
21
-93.5212080000000014
0
LINE
8
BLACK
6
CONTINUOUS
10
113.9094649999999973
20
-93.5212080000000014
11
114.0047749999999951
21
-93.672893000000002
0
LINE
8
BLACK
6
CONTINUOUS
10
114.0047749999999951
20
-93.672893000000002
11
114.0639419999999973
21
-93.841982999999999
0
LINE
8
BLACK
6
CONTINUOUS
10
114.0639419999999973
20
-93.841982999999999
11
114.083999999999989
21
-94.019999999999996
0
LINE
8
BLACK
6
CONTINUOUS
10
114.083999999999989
20
-94.019999999999996
11
114.0639419999999973
21
-94.198016999999993
0
LINE
8
BLACK
6
CONTINUOUS
10
114.0639419999999973
20
-94.198016999999993
11
114.0047749999999951
21
-94.3671069999999901
0
LINE
8
BLACK
6
CONTINUOUS
10
114.0047749999999951
20
-94.3671069999999901
11
113.9094649999999973
21
-94.5187919999999906
0
LINE
8
BLACK
6
CONTINUOUS
10
113.9094649999999973
20
-94.5187919999999906
11
113.7827920000000006
21
-94.6454650000000015
0
LINE
8
BLACK
6
CONTINUOUS
10
113.7827920000000006
20
-94.6454650000000015
11
113.6311070000000001
21
-94.7407749999999993
0
LINE
8
BLACK
6
CONTINUOUS
10
113.6311070000000001
20
-94.7407749999999993
11
113.4620169999999888
21
-94.7999420000000015
0
LINE
8
BLACK
6
CONTINUOUS
10
113.4620169999999888
20
-94.7999420000000015
11
113.2839999999999918
21
-94.8199999999999932
0
LINE
8
BLACK
6
CONTINUOUS
10
113.2839999999999918
20
-94.8199999999999932
11
113.1059829999999948
21
-94.7999420000000015
0
LINE
8
BLACK
6
CONTINUOUS
10
113.1059829999999948
20
-94.7999420000000015
11
112.9368929999999978
21
-94.7407749999999993
0
LINE
8
BLACK
6
CONTINUOUS
10
112.9368929999999978
20
-94.7407749999999993
11
112.7852079999999972
21
-94.6454650000000015
0
LINE
8
BLACK
6
CONTINUOUS
10
112.7852079999999972
20
-94.6454650000000015
11
112.6585350000000005
21
-94.5187919999999906
0
LINE
8
BLACK
6
CONTINUOUS
10
112.6585350000000005
20
-94.5187919999999906
11
112.5632249999999885
21
-94.3671069999999901
0
LINE
8
BLACK
6
CONTINUOUS
10
112.5632249999999885
20
-94.3671069999999901
11
112.5040580000000006
21
-94.198016999999993
0
LINE
8
BLACK
6
CONTINUOUS
10
112.5040580000000006
20
-94.198016999999993
11
112.4839999999999947
21
-94.019999999999996
0
LINE
8
BLACK
6
CONTINUOUS
10
112.4839999999999947
20
-94.019999999999996
11
112.5040580000000006
21
-93.841982999999999
0
LINE
8
BLACK
6
CONTINUOUS
10
112.5040580000000006
20
-93.841982999999999
11
112.5632249999999885
21
-93.672893000000002
0
LINE
8
BLACK
6
CONTINUOUS
10
112.5632249999999885
20
-93.672893000000002
11
112.6585350000000005
21
-93.5212080000000014
0
LINE
8
BLACK
6
CONTINUOUS
10
112.6585350000000005
20
-93.5212080000000014
11
112.7852079999999972
21
-93.3945349999999905
0
LINE
8
BLACK
6
CONTINUOUS
10
112.7852079999999972
20
-93.3945349999999905
11
112.9368929999999978
21
-93.2992249999999927
0
LINE
8
BLACK
6
CONTINUOUS
10
112.9368929999999978
20
-93.2992249999999927
11
113.1059829999999948
21
-93.2400579999999906
0
LINE
8
BLACK
6
CONTINUOUS
10
113.1059829999999948
20
-93.2400579999999906
11
113.2839999999999918
21
-93.2199999999999989
0
LINE
8
BLACK
6
CONTINUOUS
10
113.2839999999999918
20
-93.2199999999999989
11
113.4620169999999888
21
-93.2400579999999906
0
LINE
8
BLACK
6
CONTINUOUS
10
87.5189999999999912
20
-93.6099999999999994
11
85.7189999999999941
21
-93.6099999999999994
0
LINE
8
BLACK
6
CONTINUOUS
10
85.7189999999999941
20
-93.6099999999999994
11
85.7189999999999941
21
-91.8100000000000023
0
LINE
8
BLACK
6
CONTINUOUS
10
85.7189999999999941
20
-91.8100000000000023
11
87.5189999999999912
21
-91.8100000000000023
0
LINE
8
BLACK
6
CONTINUOUS
10
87.5189999999999912
20
-91.8100000000000023
11
87.5189999999999912
21
-93.6099999999999994
0
LINE
8
BLACK
6
CONTINUOUS
10
84.3571149999999932
20
-91.8540489999999892
11
84.5289999999999964
21
-91.9305769999999995
0
LINE
8
BLACK
6
CONTINUOUS
10
84.5289999999999964
20
-91.9305769999999995
11
84.6812180000000012
21
-92.0411699999999939
0
LINE
8
BLACK
6
CONTINUOUS
10
84.6812180000000012
20
-92.0411699999999939
11
84.807114999999996
21
-92.1809930000000008
0
LINE
8
BLACK
6
CONTINUOUS
10
84.807114999999996
20
-92.1809930000000008
11
84.9011909999999972
21
-92.3439369999999968
0
LINE
8
BLACK
6
CONTINUOUS
10
84.9011909999999972
20
-92.3439369999999968
11
84.9593330000000009
21
-92.522878999999989
0
LINE
8
BLACK
6
CONTINUOUS
10
84.9593330000000009
20
-92.522878999999989
11
84.9789999999999992
21
-92.7099999999999937
0
LINE
8
BLACK
6
CONTINUOUS
10
84.9789999999999992
20
-92.7099999999999937
11
84.9593330000000009
21
-92.8971209999999985
0
LINE
8
BLACK
6
CONTINUOUS
10
84.9593330000000009
20
-92.8971209999999985
11
84.9011909999999972
21
-93.0760629999999907
0
LINE
8
BLACK
6
CONTINUOUS
10
84.9011909999999972
20
-93.0760629999999907
11
84.807114999999996
21
-93.2390070000000009
0
LINE
8
BLACK
6
CONTINUOUS
10
84.807114999999996
20
-93.2390070000000009
11
84.6812180000000012
21
-93.3788299999999936
0
LINE
8
BLACK
6
CONTINUOUS
10
84.6812180000000012
20
-93.3788299999999936
11
84.5289999999999964
21
-93.4894230000000022
0
LINE
8
BLACK
6
CONTINUOUS
10
84.5289999999999964
20
-93.4894230000000022
11
84.3571149999999932
21
-93.5659509999999983
0
LINE
8
BLACK
6
CONTINUOUS
10
84.3571149999999932
20
-93.5659509999999983
11
84.1730759999999947
21
-93.6050699999999978
0
LINE
8
BLACK
6
CONTINUOUS
10
84.1730759999999947
20
-93.6050699999999978
11
83.9849239999999924
21
-93.6050699999999978
0
LINE
8
BLACK
6
CONTINUOUS
10
83.9849239999999924
20
-93.6050699999999978
11
83.8008849999999939
21
-93.5659509999999983
0
LINE
8
BLACK
6
CONTINUOUS
10
83.8008849999999939
20
-93.5659509999999983
11
83.6289999999999907
21
-93.4894230000000022
0
LINE
8
BLACK
6
CONTINUOUS
10
83.6289999999999907
20
-93.4894230000000022
11
83.476782
21
-93.3788299999999936
0
LINE
8
BLACK
6
CONTINUOUS
10
83.476782
20
-93.3788299999999936
11
83.350884999999991
21
-93.2390070000000009
0
LINE
8
BLACK
6
CONTINUOUS
10
83.350884999999991
20
-93.2390070000000009
11
83.2568089999999899
21
-93.0760629999999907
0
LINE
8
BLACK
6
CONTINUOUS
10
83.2568089999999899
20
-93.0760629999999907
11
83.1986670000000004
21
-92.8971209999999985
0
LINE
8
BLACK
6
CONTINUOUS
10
83.1986670000000004
20
-92.8971209999999985
11
83.179000000000002
21
-92.7099999999999937
0
LINE
8
BLACK
6
CONTINUOUS
10
83.179000000000002
20
-92.7099999999999937
11
83.1986670000000004
21
-92.522878999999989
0
LINE
8
BLACK
6
CONTINUOUS
10
83.1986670000000004
20
-92.522878999999989
11
83.2568089999999899
21
-92.3439369999999968
0
LINE
8
BLACK
6
CONTINUOUS
10
83.2568089999999899
20
-92.3439369999999968
11
83.350884999999991
21
-92.1809930000000008
0
LINE
8
BLACK
6
CONTINUOUS
10
83.350884999999991
20
-92.1809930000000008
11
83.476782
21
-92.0411699999999939
0
LINE
8
BLACK
6
CONTINUOUS
10
83.476782
20
-92.0411699999999939
11
83.6289999999999907
21
-91.9305769999999995
0
LINE
8
BLACK
6
CONTINUOUS
10
83.6289999999999907
20
-91.9305769999999995
11
83.8008849999999939
21
-91.8540489999999892
0
LINE
8
BLACK
6
CONTINUOUS
10
83.8008849999999939
20
-91.8540489999999892
11
83.9849239999999924
21
-91.8149299999999897
0
LINE
8
BLACK
6
CONTINUOUS
10
83.9849239999999924
20
-91.8149299999999897
11
84.1730759999999947
21
-91.8149299999999897
0
LINE
8
BLACK
6
CONTINUOUS
10
84.1730759999999947
20
-91.8149299999999897
11
84.3571149999999932
21
-91.8540489999999892
0
LINE
8
BLACK
6
CONTINUOUS
10
64.0829999999999984
20
-93.5060000000000002
11
60.1229999999999976
21
-93.5060000000000002
0
LINE
8
BLACK
6
CONTINUOUS
10
60.1229999999999976
20
-93.5060000000000002
11
60.1229999999999976
21
-90.9559999999999889
0
LINE
8
BLACK
6
CONTINUOUS
10
60.1229999999999976
20
-90.9559999999999889
11
64.0829999999999984
21
-90.9559999999999889
0
LINE
8
BLACK
6
CONTINUOUS
10
64.0829999999999984
20
-90.9559999999999889
11
64.0829999999999984
21
-93.5060000000000002
0
LINE
8
BLACK
6
CONTINUOUS
10
90.475016999999994
20
-90.6600579999999923
11
90.6441069999999911
21
-90.7192249999999945
0
LINE
8
BLACK
6
CONTINUOUS
10
90.6441069999999911
20
-90.7192249999999945
11
90.7957919999999916
21
-90.8145349999999922
0
LINE
8
BLACK
6
CONTINUOUS
10
90.7957919999999916
20
-90.8145349999999922
11
90.9224650000000025
21
-90.9412079999999889
0
LINE
8
BLACK
6
CONTINUOUS
10
90.9224650000000025
20
-90.9412079999999889
11
91.0177750000000003
21
-91.0928929999999895
0
LINE
8
BLACK
6
CONTINUOUS
10
91.0177750000000003
20
-91.0928929999999895
11
91.0769420000000025
21
-91.2619830000000007
0
LINE
8
BLACK
6
CONTINUOUS
10
91.0769420000000025
20
-91.2619830000000007
11
91.0969999999999942
21
-91.4399999999999977
0
LINE
8
BLACK
6
CONTINUOUS
10
91.0969999999999942
20
-91.4399999999999977
11
91.0769420000000025
21
-91.6180169999999947
0
LINE
8
BLACK
6
CONTINUOUS
10
91.0769420000000025
20
-91.6180169999999947
11
91.0177750000000003
21
-91.7871069999999918
0
LINE
8
BLACK
6
CONTINUOUS
10
91.0177750000000003
20
-91.7871069999999918
11
90.9224650000000025
21
-91.9387919999999923
0
LINE
8
BLACK
6
CONTINUOUS
10
90.9224650000000025
20
-91.9387919999999923
11
90.7957919999999916
21
-92.065464999999989
0
LINE
8
BLACK
6
CONTINUOUS
10
90.7957919999999916
20
-92.065464999999989
11
90.6441069999999911
21
-92.160775000000001
0
LINE
8
BLACK
6
CONTINUOUS
10
90.6441069999999911
20
-92.160775000000001
11
90.475016999999994
21
-92.219941999999989
0
LINE
8
BLACK
6
CONTINUOUS
10
90.475016999999994
20
-92.219941999999989
11
90.296999999999997
21
-92.2399999999999949
0
LINE
8
BLACK
6
CONTINUOUS
10
90.296999999999997
20
-92.2399999999999949
11
90.1189830000000001
21
-92.219941999999989
0
LINE
8
BLACK
6
CONTINUOUS
10
90.1189830000000001
20
-92.219941999999989
11
89.949893000000003
21
-92.160775000000001
0
LINE
8
BLACK
6
CONTINUOUS
10
89.949893000000003
20
-92.160775000000001
11
89.7982080000000025
21
-92.065464999999989
0
LINE
8
BLACK
6
CONTINUOUS
10
89.7982080000000025
20
-92.065464999999989
11
89.6715349999999916
21
-91.9387919999999923
0
LINE
8
BLACK
6
CONTINUOUS
10
89.6715349999999916
20
-91.9387919999999923
11
89.5762249999999938
21
-91.7871069999999918
0
LINE
8
BLACK
6
CONTINUOUS
10
89.5762249999999938
20
-91.7871069999999918
11
89.5170579999999916
21
-91.6180169999999947
0
LINE
8
BLACK
6
CONTINUOUS
10
89.5170579999999916
20
-91.6180169999999947
11
89.4969999999999999
21
-91.4399999999999977
0
LINE
8
BLACK
6
CONTINUOUS
10
89.4969999999999999
20
-91.4399999999999977
11
89.5170579999999916
21
-91.2619830000000007
0
LINE
8
BLACK
6
CONTINUOUS
10
89.5170579999999916
20
-91.2619830000000007
11
89.5762249999999938
21
-91.0928929999999895
0
LINE
8
BLACK
6
CONTINUOUS
10
89.5762249999999938
20
-91.0928929999999895
11
89.6715349999999916
21
-90.9412079999999889
0
LINE
8
BLACK
6
CONTINUOUS
10
89.6715349999999916
20
-90.9412079999999889
11
89.7982080000000025
21
-90.8145349999999922
0
LINE
8
BLACK
6
CONTINUOUS
10
89.7982080000000025
20
-90.8145349999999922
11
89.949893000000003
21
-90.7192249999999945
0
LINE
8
BLACK
6
CONTINUOUS
10
89.949893000000003
20
-90.7192249999999945
11
90.1189830000000001
21
-90.6600579999999923
0
LINE
8
BLACK
6
CONTINUOUS
10
90.1189830000000001
20
-90.6600579999999923
11
90.296999999999997
21
-90.6400000000000006
0
LINE
8
BLACK
6
CONTINUOUS
10
90.296999999999997
20
-90.6400000000000006
11
90.475016999999994
21
-90.6600579999999923
0
LINE
8
BLACK
6
CONTINUOUS
10
113.2080169999999981
20
-90.6600579999999923
11
113.3771069999999952
21
-90.7192249999999945
0
LINE
8
BLACK
6
CONTINUOUS
10
113.3771069999999952
20
-90.7192249999999945
11
113.5287919999999957
21
-90.8145349999999922
0
LINE
8
BLACK
6
CONTINUOUS
10
113.5287919999999957
20
-90.8145349999999922
11
113.6554649999999924
21
-90.9412079999999889
0
LINE
8
BLACK
6
CONTINUOUS
10
113.6554649999999924
20
-90.9412079999999889
11
113.7507749999999902
21
-91.0928929999999895
0
LINE
8
BLACK
6
CONTINUOUS
10
113.7507749999999902
20
-91.0928929999999895
11
113.8099419999999924
21
-91.2619830000000007
0
LINE
8
BLACK
6
CONTINUOUS
10
113.8099419999999924
20
-91.2619830000000007
11
113.8299999999999983
21
-91.4399999999999977
0
LINE
8
BLACK
6
CONTINUOUS
10
113.8299999999999983
20
-91.4399999999999977
11
113.8099419999999924
21
-91.6180169999999947
0
LINE
8
BLACK
6
CONTINUOUS
10
113.8099419999999924
20
-91.6180169999999947
11
113.7507749999999902
21
-91.7871069999999918
0
LINE
8
BLACK
6
CONTINUOUS
10
113.7507749999999902
20
-91.7871069999999918
11
113.6554649999999924
21
-91.9387919999999923
0
LINE
8
BLACK
6
CONTINUOUS
10
113.6554649999999924
20
-91.9387919999999923
11
113.5287919999999957
21
-92.065464999999989
0
LINE
8
BLACK
6
CONTINUOUS
10
113.5287919999999957
20
-92.065464999999989
11
113.3771069999999952
21
-92.160775000000001
0
LINE
8
BLACK
6
CONTINUOUS
10
113.3771069999999952
20
-92.160775000000001
11
113.2080169999999981
21
-92.219941999999989
0
LINE
8
BLACK
6
CONTINUOUS
10
113.2080169999999981
20
-92.219941999999989
11
113.0300000000000011
21
-92.2399999999999949
0
LINE
8
BLACK
6
CONTINUOUS
10
113.0300000000000011
20
-92.2399999999999949
11
112.8519829999999899
21
-92.219941999999989
0
LINE
8
BLACK
6
CONTINUOUS
10
112.8519829999999899
20
-92.219941999999989
11
112.6828929999999929
21
-92.160775000000001
0
LINE
8
BLACK
6
CONTINUOUS
10
112.6828929999999929
20
-92.160775000000001
11
112.5312079999999924
21
-92.065464999999989
0
LINE
8
BLACK
6
CONTINUOUS
10
112.5312079999999924
20
-92.065464999999989
11
112.4045349999999956
21
-91.9387919999999923
0
LINE
8
BLACK
6
CONTINUOUS
10
112.4045349999999956
20
-91.9387919999999923
11
112.3092249999999979
21
-91.7871069999999918
0
LINE
8
BLACK
6
CONTINUOUS
10
112.3092249999999979
20
-91.7871069999999918
11
112.2500579999999957
21
-91.6180169999999947
0
LINE
8
BLACK
6
CONTINUOUS
10
112.2500579999999957
20
-91.6180169999999947
11
112.2299999999999898
21
-91.4399999999999977
0
LINE
8
BLACK
6
CONTINUOUS
10
112.2299999999999898
20
-91.4399999999999977
11
112.2500579999999957
21
-91.2619830000000007
0
LINE
8
BLACK
6
CONTINUOUS
10
112.2500579999999957
20
-91.2619830000000007
11
112.3092249999999979
21
-91.0928929999999895
0
LINE
8
BLACK
6
CONTINUOUS
10
112.3092249999999979
20
-91.0928929999999895
11
112.4045349999999956
21
-90.9412079999999889
0
LINE
8
BLACK
6
CONTINUOUS
10
112.4045349999999956
20
-90.9412079999999889
11
112.5312079999999924
21
-90.8145349999999922
0
LINE
8
BLACK
6
CONTINUOUS
10
112.5312079999999924
20
-90.8145349999999922
11
112.6828929999999929
21
-90.7192249999999945
0
LINE
8
BLACK
6
CONTINUOUS
10
112.6828929999999929
20
-90.7192249999999945
11
112.8519829999999899
21
-90.6600579999999923
0
LINE
8
BLACK
6
CONTINUOUS
10
112.8519829999999899
20
-90.6600579999999923
11
113.0300000000000011
21
-90.6400000000000006
0
LINE
8
BLACK
6
CONTINUOUS
10
113.0300000000000011
20
-90.6400000000000006
11
113.2080169999999981
21
-90.6600579999999923
0
LINE
8
BLACK
6
CONTINUOUS
10
116.3830169999999953
20
-90.6600579999999923
11
116.5521069999999924
21
-90.7192249999999945
0
LINE
8
BLACK
6
CONTINUOUS
10
116.5521069999999924
20
-90.7192249999999945
11
116.7037919999999929
21
-90.8145349999999922
0
LINE
8
BLACK
6
CONTINUOUS
10
116.7037919999999929
20
-90.8145349999999922
11
116.8304649999999896
21
-90.9412079999999889
0
LINE
8
BLACK
6
CONTINUOUS
10
116.8304649999999896
20
-90.9412079999999889
11
116.9257750000000016
21
-91.0928929999999895
0
LINE
8
BLACK
6
CONTINUOUS
10
116.9257750000000016
20
-91.0928929999999895
11
116.9849419999999895
21
-91.2619830000000007
0
LINE
8
BLACK
6
CONTINUOUS
10
116.9849419999999895
20
-91.2619830000000007
11
117.0049999999999955
21
-91.4399999999999977
0
LINE
8
BLACK
6
CONTINUOUS
10
117.0049999999999955
20
-91.4399999999999977
11
116.9849419999999895
21
-91.6180169999999947
0
LINE
8
BLACK
6
CONTINUOUS
10
116.9849419999999895
20
-91.6180169999999947
11
116.9257750000000016
21
-91.7871069999999918
0
LINE
8
BLACK
6
CONTINUOUS
10
116.9257750000000016
20
-91.7871069999999918
11
116.8304649999999896
21
-91.9387919999999923
0
LINE
8
BLACK
6
CONTINUOUS
10
116.8304649999999896
20
-91.9387919999999923
11
116.7037919999999929
21
-92.065464999999989
0
LINE
8
BLACK
6
CONTINUOUS
10
116.7037919999999929
20
-92.065464999999989
11
116.5521069999999924
21
-92.160775000000001
0
LINE
8
BLACK
6
CONTINUOUS
10
116.5521069999999924
20
-92.160775000000001
11
116.3830169999999953
21
-92.219941999999989
0
LINE
8
BLACK
6
CONTINUOUS
10
116.3830169999999953
20
-92.219941999999989
11
116.2049999999999983
21
-92.2399999999999949
0
LINE
8
BLACK
6
CONTINUOUS
10
116.2049999999999983
20
-92.2399999999999949
11
116.0269830000000013
21
-92.219941999999989
0
LINE
8
BLACK
6
CONTINUOUS
10
116.0269830000000013
20
-92.219941999999989
11
115.85789299999999
21
-92.160775000000001
0
LINE
8
BLACK
6
CONTINUOUS
10
115.85789299999999
20
-92.160775000000001
11
115.7062079999999895
21
-92.065464999999989
0
LINE
8
BLACK
6
CONTINUOUS
10
115.7062079999999895
20
-92.065464999999989
11
115.5795349999999928
21
-91.9387919999999923
0
LINE
8
BLACK
6
CONTINUOUS
10
115.5795349999999928
20
-91.9387919999999923
11
115.484224999999995
21
-91.7871069999999918
0
LINE
8
BLACK
6
CONTINUOUS
10
115.484224999999995
20
-91.7871069999999918
11
115.4250579999999928
21
-91.6180169999999947
0
LINE
8
BLACK
6
CONTINUOUS
10
115.4250579999999928
20
-91.6180169999999947
11
115.4050000000000011
21
-91.4399999999999977
0
LINE
8
BLACK
6
CONTINUOUS
10
115.4050000000000011
20
-91.4399999999999977
11
115.4250579999999928
21
-91.2619830000000007
0
LINE
8
BLACK
6
CONTINUOUS
10
115.4250579999999928
20
-91.2619830000000007
11
115.484224999999995
21
-91.0928929999999895
0
LINE
8
BLACK
6
CONTINUOUS
10
115.484224999999995
20
-91.0928929999999895
11
115.5795349999999928
21
-90.9412079999999889
0
LINE
8
BLACK
6
CONTINUOUS
10
115.5795349999999928
20
-90.9412079999999889
11
115.7062079999999895
21
-90.8145349999999922
0
LINE
8
BLACK
6
CONTINUOUS
10
115.7062079999999895
20
-90.8145349999999922
11
115.85789299999999
21
-90.7192249999999945
0
LINE
8
BLACK
6
CONTINUOUS
10
115.85789299999999
20
-90.7192249999999945
11
116.0269830000000013
21
-90.6600579999999923
0
LINE
8
BLACK
6
CONTINUOUS
10
116.0269830000000013
20
-90.6600579999999923
11
116.2049999999999983
21
-90.6400000000000006
0
LINE
8
BLACK
6
CONTINUOUS
10
116.2049999999999983
20
-90.6400000000000006
11
116.3830169999999953
21
-90.6600579999999923
0
LINE
8
BLACK
6
CONTINUOUS
10
95.3649999999999949
20
-92.1899999999999977
11
93.8649999999999949
21
-92.1899999999999977
0
LINE
8
BLACK
6
CONTINUOUS
10
93.8649999999999949
20
-92.1899999999999977
11
93.8649999999999949
21
-90.6899999999999977
0
LINE
8
BLACK
6
CONTINUOUS
10
93.8649999999999949
20
-90.6899999999999977
11
95.3649999999999949
21
-90.6899999999999977
0
LINE
8
BLACK
6
CONTINUOUS
10
95.3649999999999949
20
-90.6899999999999977
11
95.3649999999999949
21
-92.1899999999999977
0
LINE
8
BLACK
6
CONTINUOUS
10
108.7728910000000013
20
-90.7088040000000007
11
108.9314129999999921
21
-90.7642730000000029
0
LINE
8
BLACK
6
CONTINUOUS
10
108.9314129999999921
20
-90.7642730000000029
11
109.0736169999999987
21
-90.8536259999999913
0
LINE
8
BLACK
6
CONTINUOUS
10
109.0736169999999987
20
-90.8536259999999913
11
109.1923740000000009
21
-90.9723829999999936
0
LINE
8
BLACK
6
CONTINUOUS
10
109.1923740000000009
20
-90.9723829999999936
11
109.2817269999999894
21
-91.1145870000000002
0
LINE
8
BLACK
6
CONTINUOUS
10
109.2817269999999894
20
-91.1145870000000002
11
109.3371959999999916
21
-91.2731089999999909
0
LINE
8
BLACK
6
CONTINUOUS
10
109.3371959999999916
20
-91.2731089999999909
11
109.3559999999999945
21
-91.4399999999999977
0
LINE
8
BLACK
6
CONTINUOUS
10
109.3559999999999945
20
-91.4399999999999977
11
109.3371959999999916
21
-91.6068909999999903
0
LINE
8
BLACK
6
CONTINUOUS
10
109.3371959999999916
20
-91.6068909999999903
11
109.2817269999999894
21
-91.7654129999999952
0
LINE
8
BLACK
6
CONTINUOUS
10
109.2817269999999894
20
-91.7654129999999952
11
109.1923740000000009
21
-91.9076170000000019
0
LINE
8
BLACK
6
CONTINUOUS
10
109.1923740000000009
20
-91.9076170000000019
11
109.0736169999999987
21
-92.0263739999999899
0
LINE
8
BLACK
6
CONTINUOUS
10
109.0736169999999987
20
-92.0263739999999899
11
108.9314129999999921
21
-92.1157269999999926
0
LINE
8
BLACK
6
CONTINUOUS
10
108.9314129999999921
20
-92.1157269999999926
11
108.7728910000000013
21
-92.1711959999999948
0
LINE
8
BLACK
6
CONTINUOUS
10
108.7728910000000013
20
-92.1711959999999948
11
108.6059999999999945
21
-92.1899999999999977
0
LINE
8
BLACK
6
CONTINUOUS
10
108.6059999999999945
20
-92.1899999999999977
11
108.439109000000002
21
-92.1711959999999948
0
LINE
8
BLACK
6
CONTINUOUS
10
108.439109000000002
20
-92.1711959999999948
11
108.280586999999997
21
-92.1157269999999926
0
LINE
8
BLACK
6
CONTINUOUS
10
108.280586999999997
20
-92.1157269999999926
11
108.1383829999999904
21
-92.0263739999999899
0
LINE
8
BLACK
6
CONTINUOUS
10
108.1383829999999904
20
-92.0263739999999899
11
108.0196259999999882
21
-91.9076170000000019
0
LINE
8
BLACK
6
CONTINUOUS
10
108.0196259999999882
20
-91.9076170000000019
11
107.9302729999999997
21
-91.7654129999999952
0
LINE
8
BLACK
6
CONTINUOUS
10
107.9302729999999997
20
-91.7654129999999952
11
107.8748039999999975
21
-91.6068909999999903
0
LINE
8
BLACK
6
CONTINUOUS
10
107.8748039999999975
20
-91.6068909999999903
11
107.8559999999999945
21
-91.4399999999999977
0
LINE
8
BLACK
6
CONTINUOUS
10
107.8559999999999945
20
-91.4399999999999977
11
107.8748039999999975
21
-91.2731089999999909
0
LINE
8
BLACK
6
CONTINUOUS
10
107.8748039999999975
20
-91.2731089999999909
11
107.9302729999999997
21
-91.1145870000000002
0
LINE
8
BLACK
6
CONTINUOUS
10
107.9302729999999997
20
-91.1145870000000002
11
108.0196259999999882
21
-90.9723829999999936
0
LINE
8
BLACK
6
CONTINUOUS
10
108.0196259999999882
20
-90.9723829999999936
11
108.1383829999999904
21
-90.8536259999999913
0
LINE
8
BLACK
6
CONTINUOUS
10
108.1383829999999904
20
-90.8536259999999913
11
108.280586999999997
21
-90.7642730000000029
0
LINE
8
BLACK
6
CONTINUOUS
10
108.280586999999997
20
-90.7642730000000029
11
108.439109000000002
21
-90.7088040000000007
0
LINE
8
BLACK
6
CONTINUOUS
10
108.439109000000002
20
-90.7088040000000007
11
108.6059999999999945
21
-90.6899999999999977
0
LINE
8
BLACK
6
CONTINUOUS
10
108.6059999999999945
20
-90.6899999999999977
11
108.7728910000000013
21
-90.7088040000000007
0
LINE
8
BLACK
6
CONTINUOUS
10
73.4570169999999933
20
-90.1520579999999967
11
73.6261069999999904
21
-90.2112249999999989
0
LINE
8
BLACK
6
CONTINUOUS
10
73.6261069999999904
20
-90.2112249999999989
11
73.7777919999999909
21
-90.3065349999999967
0
LINE
8
BLACK
6
CONTINUOUS
10
73.7777919999999909
20
-90.3065349999999967
11
73.9044650000000019
21
-90.4332079999999934
0
LINE
8
BLACK
6
CONTINUOUS
10
73.9044650000000019
20
-90.4332079999999934
11
73.9997749999999996
21
-90.5848929999999939
0
LINE
8
BLACK
6
CONTINUOUS
10
73.9997749999999996
20
-90.5848929999999939
11
74.0589420000000018
21
-90.753982999999991
0
LINE
8
BLACK
6
CONTINUOUS
10
74.0589420000000018
20
-90.753982999999991
11
74.0789999999999935
21
-90.9320000000000022
0
LINE
8
BLACK
6
CONTINUOUS
10
74.0789999999999935
20
-90.9320000000000022
11
74.0589420000000018
21
-91.1100169999999991
0
LINE
8
BLACK
6
CONTINUOUS
10
74.0589420000000018
20
-91.1100169999999991
11
73.9997749999999996
21
-91.2791069999999962
0
LINE
8
BLACK
6
CONTINUOUS
10
73.9997749999999996
20
-91.2791069999999962
11
73.9044650000000019
21
-91.4307919999999967
0
LINE
8
BLACK
6
CONTINUOUS
10
73.9044650000000019
20
-91.4307919999999967
11
73.7777919999999909
21
-91.5574649999999934
0
LINE
8
BLACK
6
CONTINUOUS
10
73.7777919999999909
20
-91.5574649999999934
11
73.6261069999999904
21
-91.6527749999999912
0
LINE
8
BLACK
6
CONTINUOUS
10
73.6261069999999904
20
-91.6527749999999912
11
73.4570169999999933
21
-91.7119419999999934
0
LINE
8
BLACK
6
CONTINUOUS
10
73.4570169999999933
20
-91.7119419999999934
11
73.2789999999999964
21
-91.7319999999999993
0
LINE
8
BLACK
6
CONTINUOUS
10
73.2789999999999964
20
-91.7319999999999993
11
73.1009829999999994
21
-91.7119419999999934
0
LINE
8
BLACK
6
CONTINUOUS
10
73.1009829999999994
20
-91.7119419999999934
11
72.9318930000000023
21
-91.6527749999999912
0
LINE
8
BLACK
6
CONTINUOUS
10
72.9318930000000023
20
-91.6527749999999912
11
72.7802080000000018
21
-91.5574649999999934
0
LINE
8
BLACK
6
CONTINUOUS
10
72.7802080000000018
20
-91.5574649999999934
11
72.6535349999999909
21
-91.4307919999999967
0
LINE
8
BLACK
6
CONTINUOUS
10
72.6535349999999909
20
-91.4307919999999967
11
72.5582249999999931
21
-91.2791069999999962
0
LINE
8
BLACK
6
CONTINUOUS
10
72.5582249999999931
20
-91.2791069999999962
11
72.4990579999999909
21
-91.1100169999999991
0
LINE
8
BLACK
6
CONTINUOUS
10
72.4990579999999909
20
-91.1100169999999991
11
72.4789999999999992
21
-90.9320000000000022
0
LINE
8
BLACK
6
CONTINUOUS
10
72.4789999999999992
20
-90.9320000000000022
11
72.4990579999999909
21
-90.753982999999991
0
LINE
8
BLACK
6
CONTINUOUS
10
72.4990579999999909
20
-90.753982999999991
11
72.5582249999999931
21
-90.5848929999999939
0
LINE
8
BLACK
6
CONTINUOUS
10
72.5582249999999931
20
-90.5848929999999939
11
72.6535349999999909
21
-90.4332079999999934
0
LINE
8
BLACK
6
CONTINUOUS
10
72.6535349999999909
20
-90.4332079999999934
11
72.7802080000000018
21
-90.3065349999999967
0
LINE
8
BLACK
6
CONTINUOUS
10
72.7802080000000018
20
-90.3065349999999967
11
72.9318930000000023
21
-90.2112249999999989
0
LINE
8
BLACK
6
CONTINUOUS
10
72.9318930000000023
20
-90.2112249999999989
11
73.1009829999999994
21
-90.1520579999999967
0
LINE
8
BLACK
6
CONTINUOUS
10
73.1009829999999994
20
-90.1520579999999967
11
73.2789999999999964
21
-90.1319999999999908
0
LINE
8
BLACK
6
CONTINUOUS
10
73.2789999999999964
20
-90.1319999999999908
11
73.4570169999999933
21
-90.1520579999999967
0
LINE
8
BLACK
6
CONTINUOUS
10
81.0770169999999979
20
-90.1520579999999967
11
81.246106999999995
21
-90.2112249999999989
0
LINE
8
BLACK
6
CONTINUOUS
10
81.246106999999995
20
-90.2112249999999989
11
81.3977919999999955
21
-90.3065349999999967
0
LINE
8
BLACK
6
CONTINUOUS
10
81.3977919999999955
20
-90.3065349999999967
11
81.5244649999999922
21
-90.4332079999999934
0
LINE
8
BLACK
6
CONTINUOUS
10
81.5244649999999922
20
-90.4332079999999934
11
81.61977499999999
21
-90.5848929999999939
0
LINE
8
BLACK
6
CONTINUOUS
10
81.61977499999999
20
-90.5848929999999939
11
81.6789419999999922
21
-90.753982999999991
0
LINE
8
BLACK
6
CONTINUOUS
10
81.6789419999999922
20
-90.753982999999991
11
81.6989999999999981
21
-90.9320000000000022
0
LINE
8
BLACK
6
CONTINUOUS
10
81.6989999999999981
20
-90.9320000000000022
11
81.6789419999999922
21
-91.1100169999999991
0
LINE
8
BLACK
6
CONTINUOUS
10
81.6789419999999922
20
-91.1100169999999991
11
81.61977499999999
21
-91.2791069999999962
0
LINE
8
BLACK
6
CONTINUOUS
10
81.61977499999999
20
-91.2791069999999962
11
81.5244649999999922
21
-91.4307919999999967
0
LINE
8
BLACK
6
CONTINUOUS
10
81.5244649999999922
20
-91.4307919999999967
11
81.3977919999999955
21
-91.5574649999999934
0
LINE
8
BLACK
6
CONTINUOUS
10
81.3977919999999955
20
-91.5574649999999934
11
81.246106999999995
21
-91.6527749999999912
0
LINE
8
BLACK
6
CONTINUOUS
10
81.246106999999995
20
-91.6527749999999912
11
81.0770169999999979
21
-91.7119419999999934
0
LINE
8
BLACK
6
CONTINUOUS
10
81.0770169999999979
20
-91.7119419999999934
11
80.8990000000000009
21
-91.7319999999999993
0
LINE
8
BLACK
6
CONTINUOUS
10
80.8990000000000009
20
-91.7319999999999993
11
80.7209829999999897
21
-91.7119419999999934
0
LINE
8
BLACK
6
CONTINUOUS
10
80.7209829999999897
20
-91.7119419999999934
11
80.5518929999999926
21
-91.6527749999999912
0
LINE
8
BLACK
6
CONTINUOUS
10
80.5518929999999926
20
-91.6527749999999912
11
80.4002079999999921
21
-91.5574649999999934
0
LINE
8
BLACK
6
CONTINUOUS
10
80.4002079999999921
20
-91.5574649999999934
11
80.2735349999999954
21
-91.4307919999999967
0
LINE
8
BLACK
6
CONTINUOUS
10
80.2735349999999954
20
-91.4307919999999967
11
80.1782249999999976
21
-91.2791069999999962
0
LINE
8
BLACK
6
CONTINUOUS
10
80.1782249999999976
20
-91.2791069999999962
11
80.1190579999999954
21
-91.1100169999999991
0
LINE
8
BLACK
6
CONTINUOUS
10
80.1190579999999954
20
-91.1100169999999991
11
80.0989999999999895
21
-90.9320000000000022
0
LINE
8
BLACK
6
CONTINUOUS
10
80.0989999999999895
20
-90.9320000000000022
11
80.1190579999999954
21
-90.753982999999991
0
LINE
8
BLACK
6
CONTINUOUS
10
80.1190579999999954
20
-90.753982999999991
11
80.1782249999999976
21
-90.5848929999999939
0
LINE
8
BLACK
6
CONTINUOUS
10
80.1782249999999976
20
-90.5848929999999939
11
80.2735349999999954
21
-90.4332079999999934
0
LINE
8
BLACK
6
CONTINUOUS
10
80.2735349999999954
20
-90.4332079999999934
11
80.4002079999999921
21
-90.3065349999999967
0
LINE
8
BLACK
6
CONTINUOUS
10
80.4002079999999921
20
-90.3065349999999967
11
80.5518929999999926
21
-90.2112249999999989
0
LINE
8
BLACK
6
CONTINUOUS
10
80.5518929999999926
20
-90.2112249999999989
11
80.7209829999999897
21
-90.1520579999999967
0
LINE
8
BLACK
6
CONTINUOUS
10
80.7209829999999897
20
-90.1520579999999967
11
80.8990000000000009
21
-90.1319999999999908
0
LINE
8
BLACK
6
CONTINUOUS
10
80.8990000000000009
20
-90.1319999999999908
11
81.0770169999999979
21
-90.1520579999999967
0
LINE
8
BLACK
6
CONTINUOUS
10
97.968016999999989
20
-90.1520579999999967
11
98.1371070000000003
21
-90.2112249999999989
0
LINE
8
BLACK
6
CONTINUOUS
10
98.1371070000000003
20
-90.2112249999999989
11
98.2887920000000008
21
-90.3065349999999967
0
LINE
8
BLACK
6
CONTINUOUS
10
98.2887920000000008
20
-90.3065349999999967
11
98.4154649999999975
21
-90.4332079999999934
0
LINE
8
BLACK
6
CONTINUOUS
10
98.4154649999999975
20
-90.4332079999999934
11
98.5107749999999953
21
-90.5848929999999939
0
LINE
8
BLACK
6
CONTINUOUS
10
98.5107749999999953
20
-90.5848929999999939
11
98.5699419999999975
21
-90.753982999999991
0
LINE
8
BLACK
6
CONTINUOUS
10
98.5699419999999975
20
-90.753982999999991
11
98.5899999999999892
21
-90.9320000000000022
0
LINE
8
BLACK
6
CONTINUOUS
10
98.5899999999999892
20
-90.9320000000000022
11
98.5699419999999975
21
-91.1100169999999991
0
LINE
8
BLACK
6
CONTINUOUS
10
98.5699419999999975
20
-91.1100169999999991
11
98.5107749999999953
21
-91.2791069999999962
0
LINE
8
BLACK
6
CONTINUOUS
10
98.5107749999999953
20
-91.2791069999999962
11
98.4154649999999975
21
-91.4307919999999967
0
LINE
8
BLACK
6
CONTINUOUS
10
98.4154649999999975
20
-91.4307919999999967
11
98.2887920000000008
21
-91.5574649999999934
0
LINE
8
BLACK
6
CONTINUOUS
10
98.2887920000000008
20
-91.5574649999999934
11
98.1371070000000003
21
-91.6527749999999912
0
LINE
8
BLACK
6
CONTINUOUS
10
98.1371070000000003
20
-91.6527749999999912
11
97.968016999999989
21
-91.7119419999999934
0
LINE
8
BLACK
6
CONTINUOUS
10
97.968016999999989
20
-91.7119419999999934
11
97.789999999999992
21
-91.7319999999999993
0
LINE
8
BLACK
6
CONTINUOUS
10
97.789999999999992
20
-91.7319999999999993
11
97.6119829999999951
21
-91.7119419999999934
0
LINE
8
BLACK
6
CONTINUOUS
10
97.6119829999999951
20
-91.7119419999999934
11
97.442892999999998
21
-91.6527749999999912
0
LINE
8
BLACK
6
CONTINUOUS
10
97.442892999999998
20
-91.6527749999999912
11
97.2912079999999975
21
-91.5574649999999934
0
LINE
8
BLACK
6
CONTINUOUS
10
97.2912079999999975
20
-91.5574649999999934
11
97.1645350000000008
21
-91.4307919999999967
0
LINE
8
BLACK
6
CONTINUOUS
10
97.1645350000000008
20
-91.4307919999999967
11
97.0692249999999888
21
-91.2791069999999962
0
LINE
8
BLACK
6
CONTINUOUS
10
97.0692249999999888
20
-91.2791069999999962
11
97.0100580000000008
21
-91.1100169999999991
0
LINE
8
BLACK
6
CONTINUOUS
10
97.0100580000000008
20
-91.1100169999999991
11
96.9899999999999949
21
-90.9320000000000022
0
LINE
8
BLACK
6
CONTINUOUS
10
96.9899999999999949
20
-90.9320000000000022
11
97.0100580000000008
21
-90.753982999999991
0
LINE
8
BLACK
6
CONTINUOUS
10
97.0100580000000008
20
-90.753982999999991
11
97.0692249999999888
21
-90.5848929999999939
0
LINE
8
BLACK
6
CONTINUOUS
10
97.0692249999999888
20
-90.5848929999999939
11
97.1645350000000008
21
-90.4332079999999934
0
LINE
8
BLACK
6
CONTINUOUS
10
97.1645350000000008
20
-90.4332079999999934
11
97.2912079999999975
21
-90.3065349999999967
0
LINE
8
BLACK
6
CONTINUOUS
10
97.2912079999999975
20
-90.3065349999999967
11
97.442892999999998
21
-90.2112249999999989
0
LINE
8
BLACK
6
CONTINUOUS
10
97.442892999999998
20
-90.2112249999999989
11
97.6119829999999951
21
-90.1520579999999967
0
LINE
8
BLACK
6
CONTINUOUS
10
97.6119829999999951
20
-90.1520579999999967
11
97.789999999999992
21
-90.1319999999999908
0
LINE
8
BLACK
6
CONTINUOUS
10
97.789999999999992
20
-90.1319999999999908
11
97.968016999999989
21
-90.1520579999999967
0
LINE
8
BLACK
6
CONTINUOUS
10
105.5880169999999936
20
-90.1520579999999967
11
105.7571069999999906
21
-90.2112249999999989
0
LINE
8
BLACK
6
CONTINUOUS
10
105.7571069999999906
20
-90.2112249999999989
11
105.9087919999999912
21
-90.3065349999999967
0
LINE
8
BLACK
6
CONTINUOUS
10
105.9087919999999912
20
-90.3065349999999967
11
106.0354650000000021
21
-90.4332079999999934
0
LINE
8
BLACK
6
CONTINUOUS
10
106.0354650000000021
20
-90.4332079999999934
11
106.1307749999999999
21
-90.5848929999999939
0
LINE
8
BLACK
6
CONTINUOUS
10
106.1307749999999999
20
-90.5848929999999939
11
106.1899420000000021
21
-90.753982999999991
0
LINE
8
BLACK
6
CONTINUOUS
10
106.1899420000000021
20
-90.753982999999991
11
106.2099999999999937
21
-90.9320000000000022
0
LINE
8
BLACK
6
CONTINUOUS
10
106.2099999999999937
20
-90.9320000000000022
11
106.1899420000000021
21
-91.1100169999999991
0
LINE
8
BLACK
6
CONTINUOUS
10
106.1899420000000021
20
-91.1100169999999991
11
106.1307749999999999
21
-91.2791069999999962
0
LINE
8
BLACK
6
CONTINUOUS
10
106.1307749999999999
20
-91.2791069999999962
11
106.0354650000000021
21
-91.4307919999999967
0
LINE
8
BLACK
6
CONTINUOUS
10
106.0354650000000021
20
-91.4307919999999967
11
105.9087919999999912
21
-91.5574649999999934
0
LINE
8
BLACK
6
CONTINUOUS
10
105.9087919999999912
20
-91.5574649999999934
11
105.7571069999999906
21
-91.6527749999999912
0
LINE
8
BLACK
6
CONTINUOUS
10
105.7571069999999906
20
-91.6527749999999912
11
105.5880169999999936
21
-91.7119419999999934
0
LINE
8
BLACK
6
CONTINUOUS
10
105.5880169999999936
20
-91.7119419999999934
11
105.4099999999999966
21
-91.7319999999999993
0
LINE
8
BLACK
6
CONTINUOUS
10
105.4099999999999966
20
-91.7319999999999993
11
105.2319829999999996
21
-91.7119419999999934
0
LINE
8
BLACK
6
CONTINUOUS
10
105.2319829999999996
20
-91.7119419999999934
11
105.0628929999999883
21
-91.6527749999999912
0
LINE
8
BLACK
6
CONTINUOUS
10
105.0628929999999883
20
-91.6527749999999912
11
104.911208000000002
21
-91.5574649999999934
0
LINE
8
BLACK
6
CONTINUOUS
10
104.911208000000002
20
-91.5574649999999934
11
104.7845349999999911
21
-91.4307919999999967
0
LINE
8
BLACK
6
CONTINUOUS
10
104.7845349999999911
20
-91.4307919999999967
11
104.6892249999999933
21
-91.2791069999999962
0
LINE
8
BLACK
6
CONTINUOUS
10
104.6892249999999933
20
-91.2791069999999962
11
104.6300579999999911
21
-91.1100169999999991
0
LINE
8
BLACK
6
CONTINUOUS
10
104.6300579999999911
20
-91.1100169999999991
11
104.6099999999999994
21
-90.9320000000000022
0
LINE
8
BLACK
6
CONTINUOUS
10
104.6099999999999994
20
-90.9320000000000022
11
104.6300579999999911
21
-90.753982999999991
0
LINE
8
BLACK
6
CONTINUOUS
10
104.6300579999999911
20
-90.753982999999991
11
104.6892249999999933
21
-90.5848929999999939
0
LINE
8
BLACK
6
CONTINUOUS
10
104.6892249999999933
20
-90.5848929999999939
11
104.7845349999999911
21
-90.4332079999999934
0
LINE
8
BLACK
6
CONTINUOUS
10
104.7845349999999911
20
-90.4332079999999934
11
104.911208000000002
21
-90.3065349999999967
0
LINE
8
BLACK
6
CONTINUOUS
10
104.911208000000002
20
-90.3065349999999967
11
105.0628929999999883
21
-90.2112249999999989
0
LINE
8
BLACK
6
CONTINUOUS
10
105.0628929999999883
20
-90.2112249999999989
11
105.2319829999999996
21
-90.1520579999999967
0
LINE
8
BLACK
6
CONTINUOUS
10
105.2319829999999996
20
-90.1520579999999967
11
105.4099999999999966
21
-90.1319999999999908
0
LINE
8
BLACK
6
CONTINUOUS
10
105.4099999999999966
20
-90.1319999999999908
11
105.5880169999999936
21
-90.1520579999999967
0
LINE
8
BLACK
6
CONTINUOUS
10
94.7818910000000017
20
-88.1688039999999944
11
94.9404129999999924
21
-88.2242729999999966
0
LINE
8
BLACK
6
CONTINUOUS
10
94.9404129999999924
20
-88.2242729999999966
11
95.0826169999999991
21
-88.3136259999999993
0
LINE
8
BLACK
6
CONTINUOUS
10
95.0826169999999991
20
-88.3136259999999993
11
95.2013740000000013
21
-88.4323830000000015
0
LINE
8
BLACK
6
CONTINUOUS
10
95.2013740000000013
20
-88.4323830000000015
11
95.2907269999999897
21
-88.574586999999994
0
LINE
8
BLACK
6
CONTINUOUS
10
95.2907269999999897
20
-88.574586999999994
11
95.346195999999992
21
-88.7331089999999989
0
LINE
8
BLACK
6
CONTINUOUS
10
95.346195999999992
20
-88.7331089999999989
11
95.3649999999999949
21
-88.8999999999999915
0
LINE
8
BLACK
6
CONTINUOUS
10
95.3649999999999949
20
-88.8999999999999915
11
95.346195999999992
21
-89.0668909999999983
0
LINE
8
BLACK
6
CONTINUOUS
10
95.346195999999992
20
-89.0668909999999983
11
95.2907269999999897
21
-89.225412999999989
0
LINE
8
BLACK
6
CONTINUOUS
10
95.2907269999999897
20
-89.225412999999989
11
95.2013740000000013
21
-89.3676169999999956
0
LINE
8
BLACK
6
CONTINUOUS
10
95.2013740000000013
20
-89.3676169999999956
11
95.0826169999999991
21
-89.4863739999999979
0
LINE
8
BLACK
6
CONTINUOUS
10
95.0826169999999991
20
-89.4863739999999979
11
94.9404129999999924
21
-89.5757270000000005
0
LINE
8
BLACK
6
CONTINUOUS
10
94.9404129999999924
20
-89.5757270000000005
11
94.7818910000000017
21
-89.6311960000000028
0
LINE
8
BLACK
6
CONTINUOUS
10
94.7818910000000017
20
-89.6311960000000028
11
94.6149999999999949
21
-89.6499999999999915
0
LINE
8
BLACK
6
CONTINUOUS
10
94.6149999999999949
20
-89.6499999999999915
11
94.4481090000000023
21
-89.6311960000000028
0
LINE
8
BLACK
6
CONTINUOUS
10
94.4481090000000023
20
-89.6311960000000028
11
94.2895869999999974
21
-89.5757270000000005
0
LINE
8
BLACK
6
CONTINUOUS
10
94.2895869999999974
20
-89.5757270000000005
11
94.1473829999999907
21
-89.4863739999999979
0
LINE
8
BLACK
6
CONTINUOUS
10
94.1473829999999907
20
-89.4863739999999979
11
94.0286260000000027
21
-89.3676169999999956
0
LINE
8
BLACK
6
CONTINUOUS
10
94.0286260000000027
20
-89.3676169999999956
11
93.939273
21
-89.225412999999989
0
LINE
8
BLACK
6
CONTINUOUS
10
93.939273
20
-89.225412999999989
11
93.8838039999999978
21
-89.0668909999999983
0
LINE
8
BLACK
6
CONTINUOUS
10
93.8838039999999978
20
-89.0668909999999983
11
93.8649999999999949
21
-88.8999999999999915
0
LINE
8
BLACK
6
CONTINUOUS
10
93.8649999999999949
20
-88.8999999999999915
11
93.8838039999999978
21
-88.7331089999999989
0
LINE
8
BLACK
6
CONTINUOUS
10
93.8838039999999978
20
-88.7331089999999989
11
93.939273
21
-88.574586999999994
0
LINE
8
BLACK
6
CONTINUOUS
10
93.939273
20
-88.574586999999994
11
94.0286260000000027
21
-88.4323830000000015
0
LINE
8
BLACK
6
CONTINUOUS
10
94.0286260000000027
20
-88.4323830000000015
11
94.1473829999999907
21
-88.3136259999999993
0
LINE
8
BLACK
6
CONTINUOUS
10
94.1473829999999907
20
-88.3136259999999993
11
94.2895869999999974
21
-88.2242729999999966
0
LINE
8
BLACK
6
CONTINUOUS
10
94.2895869999999974
20
-88.2242729999999966
11
94.4481090000000023
21
-88.1688039999999944
0
LINE
8
BLACK
6
CONTINUOUS
10
94.4481090000000023
20
-88.1688039999999944
11
94.6149999999999949
21
-88.1499999999999915
0
LINE
8
BLACK
6
CONTINUOUS
10
94.6149999999999949
20
-88.1499999999999915
11
94.7818910000000017
21
-88.1688039999999944
0
LINE
8
BLACK
6
CONTINUOUS
10
108.7728910000000013
20
-88.1688039999999944
11
108.9314129999999921
21
-88.2242729999999966
0
LINE
8
BLACK
6
CONTINUOUS
10
108.9314129999999921
20
-88.2242729999999966
11
109.0736169999999987
21
-88.3136259999999993
0
LINE
8
BLACK
6
CONTINUOUS
10
109.0736169999999987
20
-88.3136259999999993
11
109.1923740000000009
21
-88.4323830000000015
0
LINE
8
BLACK
6
CONTINUOUS
10
109.1923740000000009
20
-88.4323830000000015
11
109.2817269999999894
21
-88.574586999999994
0
LINE
8
BLACK
6
CONTINUOUS
10
109.2817269999999894
20
-88.574586999999994
11
109.3371959999999916
21
-88.7331089999999989
0
LINE
8
BLACK
6
CONTINUOUS
10
109.3371959999999916
20
-88.7331089999999989
11
109.3559999999999945
21
-88.8999999999999915
0
LINE
8
BLACK
6
CONTINUOUS
10
109.3559999999999945
20
-88.8999999999999915
11
109.3371959999999916
21
-89.0668909999999983
0
LINE
8
BLACK
6
CONTINUOUS
10
109.3371959999999916
20
-89.0668909999999983
11
109.2817269999999894
21
-89.225412999999989
0
LINE
8
BLACK
6
CONTINUOUS
10
109.2817269999999894
20
-89.225412999999989
11
109.1923740000000009
21
-89.3676169999999956
0
LINE
8
BLACK
6
CONTINUOUS
10
109.1923740000000009
20
-89.3676169999999956
11
109.0736169999999987
21
-89.4863739999999979
0
LINE
8
BLACK
6
CONTINUOUS
10
109.0736169999999987
20
-89.4863739999999979
11
108.9314129999999921
21
-89.5757270000000005
0
LINE
8
BLACK
6
CONTINUOUS
10
108.9314129999999921
20
-89.5757270000000005
11
108.7728910000000013
21
-89.6311960000000028
0
LINE
8
BLACK
6
CONTINUOUS
10
108.7728910000000013
20
-89.6311960000000028
11
108.6059999999999945
21
-89.6499999999999915
0
LINE
8
BLACK
6
CONTINUOUS
10
108.6059999999999945
20
-89.6499999999999915
11
108.439109000000002
21
-89.6311960000000028
0
LINE
8
BLACK
6
CONTINUOUS
10
108.439109000000002
20
-89.6311960000000028
11
108.280586999999997
21
-89.5757270000000005
0
LINE
8
BLACK
6
CONTINUOUS
10
108.280586999999997
20
-89.5757270000000005
11
108.1383829999999904
21
-89.4863739999999979
0
LINE
8
BLACK
6
CONTINUOUS
10
108.1383829999999904
20
-89.4863739999999979
11
108.0196259999999882
21
-89.3676169999999956
0
LINE
8
BLACK
6
CONTINUOUS
10
108.0196259999999882
20
-89.3676169999999956
11
107.9302729999999997
21
-89.225412999999989
0
LINE
8
BLACK
6
CONTINUOUS
10
107.9302729999999997
20
-89.225412999999989
11
107.8748039999999975
21
-89.0668909999999983
0
LINE
8
BLACK
6
CONTINUOUS
10
107.8748039999999975
20
-89.0668909999999983
11
107.8559999999999945
21
-88.8999999999999915
0
LINE
8
BLACK
6
CONTINUOUS
10
107.8559999999999945
20
-88.8999999999999915
11
107.8748039999999975
21
-88.7331089999999989
0
LINE
8
BLACK
6
CONTINUOUS
10
107.8748039999999975
20
-88.7331089999999989
11
107.9302729999999997
21
-88.574586999999994
0
LINE
8
BLACK
6
CONTINUOUS
10
107.9302729999999997
20
-88.574586999999994
11
108.0196259999999882
21
-88.4323830000000015
0
LINE
8
BLACK
6
CONTINUOUS
10
108.0196259999999882
20
-88.4323830000000015
11
108.1383829999999904
21
-88.3136259999999993
0
LINE
8
BLACK
6
CONTINUOUS
10
108.1383829999999904
20
-88.3136259999999993
11
108.280586999999997
21
-88.2242729999999966
0
LINE
8
BLACK
6
CONTINUOUS
10
108.280586999999997
20
-88.2242729999999966
11
108.439109000000002
21
-88.1688039999999944
0
LINE
8
BLACK
6
CONTINUOUS
10
108.439109000000002
20
-88.1688039999999944
11
108.6059999999999945
21
-88.1499999999999915
0
LINE
8
BLACK
6
CONTINUOUS
10
108.6059999999999945
20
-88.1499999999999915
11
108.7728910000000013
21
-88.1688039999999944
0
LINE
8
BLACK
6
CONTINUOUS
10
86.2439999999999998
20
-88.1490000000000009
11
84.4440000000000026
21
-88.1490000000000009
0
LINE
8
BLACK
6
CONTINUOUS
10
84.4440000000000026
20
-88.1490000000000009
11
84.4440000000000026
21
-86.3489999999999895
0
LINE
8
BLACK
6
CONTINUOUS
10
84.4440000000000026
20
-86.3489999999999895
11
86.2439999999999998
21
-86.3489999999999895
0
LINE
8
BLACK
6
CONTINUOUS
10
86.2439999999999998
20
-86.3489999999999895
11
86.2439999999999998
21
-88.1490000000000009
0
LINE
8
BLACK
6
CONTINUOUS
10
59.8279999999999959
20
-88.1439999999999912
11
58.0279999999999987
21
-88.1439999999999912
0
LINE
8
BLACK
6
CONTINUOUS
10
58.0279999999999987
20
-88.1439999999999912
11
58.0279999999999987
21
-86.3439999999999941
0
LINE
8
BLACK
6
CONTINUOUS
10
58.0279999999999987
20
-86.3439999999999941
11
59.8279999999999959
21
-86.3439999999999941
0
LINE
8
BLACK
6
CONTINUOUS
10
59.8279999999999959
20
-86.3439999999999941
11
59.8279999999999959
21
-88.1439999999999912
0
LINE
8
BLACK
6
CONTINUOUS
10
73.0360000000000014
20
-88.1439999999999912
11
71.23599999999999
21
-88.1439999999999912
0
LINE
8
BLACK
6
CONTINUOUS
10
71.23599999999999
20
-88.1439999999999912
11
71.23599999999999
21
-86.3439999999999941
0
LINE
8
BLACK
6
CONTINUOUS
10
71.23599999999999
20
-86.3439999999999941
11
73.0360000000000014
21
-86.3439999999999941
0
LINE
8
BLACK
6
CONTINUOUS
10
73.0360000000000014
20
-86.3439999999999941
11
73.0360000000000014
21
-88.1439999999999912
0
LINE
8
BLACK
6
CONTINUOUS
10
79.6400000000000006
20
-88.1439999999999912
11
77.8400000000000034
21
-88.1439999999999912
0
LINE
8
BLACK
6
CONTINUOUS
10
77.8400000000000034
20
-88.1439999999999912
11
77.8400000000000034
21
-86.3439999999999941
0
LINE
8
BLACK
6
CONTINUOUS
10
77.8400000000000034
20
-86.3439999999999941
11
79.6400000000000006
21
-86.3439999999999941
0
LINE
8
BLACK
6
CONTINUOUS
10
79.6400000000000006
20
-86.3439999999999941
11
79.6400000000000006
21
-88.1439999999999912
0
LINE
8
BLACK
6
CONTINUOUS
10
65.8101149999999961
20
-86.3830489999999998
11
65.9819999999999993
21
-86.4595769999999959
0
LINE
8
BLACK
6
CONTINUOUS
10
65.9819999999999993
20
-86.4595769999999959
11
66.13421799999999
21
-86.5701699999999903
0
LINE
8
BLACK
6
CONTINUOUS
10
66.13421799999999
20
-86.5701699999999903
11
66.260114999999999
21
-86.7099929999999972
0
LINE
8
BLACK
6
CONTINUOUS
10
66.260114999999999
20
-86.7099929999999972
11
66.3541910000000001
21
-86.8729369999999932
0
LINE
8
BLACK
6
CONTINUOUS
10
66.3541910000000001
20
-86.8729369999999932
11
66.4123330000000038
21
-87.0518789999999996
0
LINE
8
BLACK
6
CONTINUOUS
10
66.4123330000000038
20
-87.0518789999999996
11
66.4320000000000022
21
-87.2389999999999901
0
LINE
8
BLACK
6
CONTINUOUS
10
66.4320000000000022
20
-87.2389999999999901
11
66.4123330000000038
21
-87.4261209999999949
0
LINE
8
BLACK
6
CONTINUOUS
10
66.4123330000000038
20
-87.4261209999999949
11
66.3541910000000001
21
-87.6050630000000012
0
LINE
8
BLACK
6
CONTINUOUS
10
66.3541910000000001
20
-87.6050630000000012
11
66.260114999999999
21
-87.7680069999999972
0
LINE
8
BLACK
6
CONTINUOUS
10
66.260114999999999
20
-87.7680069999999972
11
66.13421799999999
21
-87.9078299999999899
0
LINE
8
BLACK
6
CONTINUOUS
10
66.13421799999999
20
-87.9078299999999899
11
65.9819999999999993
21
-88.0184229999999985
0
LINE
8
BLACK
6
CONTINUOUS
10
65.9819999999999993
20
-88.0184229999999985
11
65.8101149999999961
21
-88.0949509999999947
0
LINE
8
BLACK
6
CONTINUOUS
10
65.8101149999999961
20
-88.0949509999999947
11
65.6260759999999976
21
-88.1340699999999941
0
LINE
8
BLACK
6
CONTINUOUS
10
65.6260759999999976
20
-88.1340699999999941
11
65.4379239999999953
21
-88.1340699999999941
0
LINE
8
BLACK
6
CONTINUOUS
10
65.4379239999999953
20
-88.1340699999999941
11
65.2538849999999968
21
-88.0949509999999947
0
LINE
8
BLACK
6
CONTINUOUS
10
65.2538849999999968
20
-88.0949509999999947
11
65.0819999999999936
21
-88.0184229999999985
0
LINE
8
BLACK
6
CONTINUOUS
10
65.0819999999999936
20
-88.0184229999999985
11
64.929782000000003
21
-87.9078299999999899
0
LINE
8
BLACK
6
CONTINUOUS
10
64.929782000000003
20
-87.9078299999999899
11
64.803884999999994
21
-87.7680069999999972
0
LINE
8
BLACK
6
CONTINUOUS
10
64.803884999999994
20
-87.7680069999999972
11
64.7098089999999928
21
-87.6050630000000012
0
LINE
8
BLACK
6
CONTINUOUS
10
64.7098089999999928
20
-87.6050630000000012
11
64.6516670000000033
21
-87.4261209999999949
0
LINE
8
BLACK
6
CONTINUOUS
10
64.6516670000000033
20
-87.4261209999999949
11
64.6319999999999908
21
-87.2389999999999901
0
LINE
8
BLACK
6
CONTINUOUS
10
64.6319999999999908
20
-87.2389999999999901
11
64.6516670000000033
21
-87.0518789999999996
0
LINE
8
BLACK
6
CONTINUOUS
10
64.6516670000000033
20
-87.0518789999999996
11
64.7098089999999928
21
-86.8729369999999932
0
LINE
8
BLACK
6
CONTINUOUS
10
64.7098089999999928
20
-86.8729369999999932
11
64.803884999999994
21
-86.7099929999999972
0
LINE
8
BLACK
6
CONTINUOUS
10
64.803884999999994
20
-86.7099929999999972
11
64.929782000000003
21
-86.5701699999999903
0
LINE
8
BLACK
6
CONTINUOUS
10
64.929782000000003
20
-86.5701699999999903
11
65.0819999999999936
21
-86.4595769999999959
0
LINE
8
BLACK
6
CONTINUOUS
10
65.0819999999999936
20
-86.4595769999999959
11
65.2538849999999968
21
-86.3830489999999998
0
LINE
8
BLACK
6
CONTINUOUS
10
65.2538849999999968
20
-86.3830489999999998
11
65.4379239999999953
21
-86.3439300000000003
0
LINE
8
BLACK
6
CONTINUOUS
10
65.4379239999999953
20
-86.3439300000000003
11
65.6260759999999976
21
-86.3439300000000003
0
LINE
8
BLACK
6
CONTINUOUS
10
65.6260759999999976
20
-86.3439300000000003
11
65.8101149999999961
21
-86.3830489999999998
0
LINE
8
BLACK
6
CONTINUOUS
10
97.968016999999989
20
-86.0880579999999895
11
98.1371070000000003
21
-86.1472249999999917
0
LINE
8
BLACK
6
CONTINUOUS
10
98.1371070000000003
20
-86.1472249999999917
11
98.2887920000000008
21
-86.2425349999999895
0
LINE
8
BLACK
6
CONTINUOUS
10
98.2887920000000008
20
-86.2425349999999895
11
98.4154649999999975
21
-86.3692080000000004
0
LINE
8
BLACK
6
CONTINUOUS
10
98.4154649999999975
20
-86.3692080000000004
11
98.5107749999999953
21
-86.5208930000000009
0
LINE
8
BLACK
6
CONTINUOUS
10
98.5107749999999953
20
-86.5208930000000009
11
98.5699419999999975
21
-86.689982999999998
0
LINE
8
BLACK
6
CONTINUOUS
10
98.5699419999999975
20
-86.689982999999998
11
98.5899999999999892
21
-86.867999999999995
0
LINE
8
BLACK
6
CONTINUOUS
10
98.5899999999999892
20
-86.867999999999995
11
98.5699419999999975
21
-87.046016999999992
0
LINE
8
BLACK
6
CONTINUOUS
10
98.5699419999999975
20
-87.046016999999992
11
98.5107749999999953
21
-87.2151069999999891
0
LINE
8
BLACK
6
CONTINUOUS
10
98.5107749999999953
20
-87.2151069999999891
11
98.4154649999999975
21
-87.3667919999999896
0
LINE
8
BLACK
6
CONTINUOUS
10
98.4154649999999975
20
-87.3667919999999896
11
98.2887920000000008
21
-87.4934650000000005
0
LINE
8
BLACK
6
CONTINUOUS
10
98.2887920000000008
20
-87.4934650000000005
11
98.1371070000000003
21
-87.5887749999999983
0
LINE
8
BLACK
6
CONTINUOUS
10
98.1371070000000003
20
-87.5887749999999983
11
97.968016999999989
21
-87.6479420000000005
0
LINE
8
BLACK
6
CONTINUOUS
10
97.968016999999989
20
-87.6479420000000005
11
97.789999999999992
21
-87.6679999999999922
0
LINE
8
BLACK
6
CONTINUOUS
10
97.789999999999992
20
-87.6679999999999922
11
97.6119829999999951
21
-87.6479420000000005
0
LINE
8
BLACK
6
CONTINUOUS
10
97.6119829999999951
20
-87.6479420000000005
11
97.442892999999998
21
-87.5887749999999983
0
LINE
8
BLACK
6
CONTINUOUS
10
97.442892999999998
20
-87.5887749999999983
11
97.2912079999999975
21
-87.4934650000000005
0
LINE
8
BLACK
6
CONTINUOUS
10
97.2912079999999975
20
-87.4934650000000005
11
97.1645350000000008
21
-87.3667919999999896
0
LINE
8
BLACK
6
CONTINUOUS
10
97.1645350000000008
20
-87.3667919999999896
11
97.0692249999999888
21
-87.2151069999999891
0
LINE
8
BLACK
6
CONTINUOUS
10
97.0692249999999888
20
-87.2151069999999891
11
97.0100580000000008
21
-87.046016999999992
0
LINE
8
BLACK
6
CONTINUOUS
10
97.0100580000000008
20
-87.046016999999992
11
96.9899999999999949
21
-86.867999999999995
0
LINE
8
BLACK
6
CONTINUOUS
10
96.9899999999999949
20
-86.867999999999995
11
97.0100580000000008
21
-86.689982999999998
0
LINE
8
BLACK
6
CONTINUOUS
10
97.0100580000000008
20
-86.689982999999998
11
97.0692249999999888
21
-86.5208930000000009
0
LINE
8
BLACK
6
CONTINUOUS
10
97.0692249999999888
20
-86.5208930000000009
11
97.1645350000000008
21
-86.3692080000000004
0
LINE
8
BLACK
6
CONTINUOUS
10
97.1645350000000008
20
-86.3692080000000004
11
97.2912079999999975
21
-86.2425349999999895
0
LINE
8
BLACK
6
CONTINUOUS
10
97.2912079999999975
20
-86.2425349999999895
11
97.442892999999998
21
-86.1472249999999917
0
LINE
8
BLACK
6
CONTINUOUS
10
97.442892999999998
20
-86.1472249999999917
11
97.6119829999999951
21
-86.0880579999999895
0
LINE
8
BLACK
6
CONTINUOUS
10
97.6119829999999951
20
-86.0880579999999895
11
97.789999999999992
21
-86.0679999999999978
0
LINE
8
BLACK
6
CONTINUOUS
10
97.789999999999992
20
-86.0679999999999978
11
97.968016999999989
21
-86.0880579999999895
0
LINE
8
BLACK
6
CONTINUOUS
10
105.5880169999999936
20
-86.0880579999999895
11
105.7571069999999906
21
-86.1472249999999917
0
LINE
8
BLACK
6
CONTINUOUS
10
105.7571069999999906
20
-86.1472249999999917
11
105.9087919999999912
21
-86.2425349999999895
0
LINE
8
BLACK
6
CONTINUOUS
10
105.9087919999999912
20
-86.2425349999999895
11
106.0354650000000021
21
-86.3692080000000004
0
LINE
8
BLACK
6
CONTINUOUS
10
106.0354650000000021
20
-86.3692080000000004
11
106.1307749999999999
21
-86.5208930000000009
0
LINE
8
BLACK
6
CONTINUOUS
10
106.1307749999999999
20
-86.5208930000000009
11
106.1899420000000021
21
-86.689982999999998
0
LINE
8
BLACK
6
CONTINUOUS
10
106.1899420000000021
20
-86.689982999999998
11
106.2099999999999937
21
-86.867999999999995
0
LINE
8
BLACK
6
CONTINUOUS
10
106.2099999999999937
20
-86.867999999999995
11
106.1899420000000021
21
-87.046016999999992
0
LINE
8
BLACK
6
CONTINUOUS
10
106.1899420000000021
20
-87.046016999999992
11
106.1307749999999999
21
-87.2151069999999891
0
LINE
8
BLACK
6
CONTINUOUS
10
106.1307749999999999
20
-87.2151069999999891
11
106.0354650000000021
21
-87.3667919999999896
0
LINE
8
BLACK
6
CONTINUOUS
10
106.0354650000000021
20
-87.3667919999999896
11
105.9087919999999912
21
-87.4934650000000005
0
LINE
8
BLACK
6
CONTINUOUS
10
105.9087919999999912
20
-87.4934650000000005
11
105.7571069999999906
21
-87.5887749999999983
0
LINE
8
BLACK
6
CONTINUOUS
10
105.7571069999999906
20
-87.5887749999999983
11
105.5880169999999936
21
-87.6479420000000005
0
LINE
8
BLACK
6
CONTINUOUS
10
105.5880169999999936
20
-87.6479420000000005
11
105.4099999999999966
21
-87.6679999999999922
0
LINE
8
BLACK
6
CONTINUOUS
10
105.4099999999999966
20
-87.6679999999999922
11
105.2319829999999996
21
-87.6479420000000005
0
LINE
8
BLACK
6
CONTINUOUS
10
105.2319829999999996
20
-87.6479420000000005
11
105.0628929999999883
21
-87.5887749999999983
0
LINE
8
BLACK
6
CONTINUOUS
10
105.0628929999999883
20
-87.5887749999999983
11
104.911208000000002
21
-87.4934650000000005
0
LINE
8
BLACK
6
CONTINUOUS
10
104.911208000000002
20
-87.4934650000000005
11
104.7845349999999911
21
-87.3667919999999896
0
LINE
8
BLACK
6
CONTINUOUS
10
104.7845349999999911
20
-87.3667919999999896
11
104.6892249999999933
21
-87.2151069999999891
0
LINE
8
BLACK
6
CONTINUOUS
10
104.6892249999999933
20
-87.2151069999999891
11
104.6300579999999911
21
-87.046016999999992
0
LINE
8
BLACK
6
CONTINUOUS
10
104.6300579999999911
20
-87.046016999999992
11
104.6099999999999994
21
-86.867999999999995
0
LINE
8
BLACK
6
CONTINUOUS
10
104.6099999999999994
20
-86.867999999999995
11
104.6300579999999911
21
-86.689982999999998
0
LINE
8
BLACK
6
CONTINUOUS
10
104.6300579999999911
20
-86.689982999999998
11
104.6892249999999933
21
-86.5208930000000009
0
LINE
8
BLACK
6
CONTINUOUS
10
104.6892249999999933
20
-86.5208930000000009
11
104.7845349999999911
21
-86.3692080000000004
0
LINE
8
BLACK
6
CONTINUOUS
10
104.7845349999999911
20
-86.3692080000000004
11
104.911208000000002
21
-86.2425349999999895
0
LINE
8
BLACK
6
CONTINUOUS
10
104.911208000000002
20
-86.2425349999999895
11
105.0628929999999883
21
-86.1472249999999917
0
LINE
8
BLACK
6
CONTINUOUS
10
105.0628929999999883
20
-86.1472249999999917
11
105.2319829999999996
21
-86.0880579999999895
0
LINE
8
BLACK
6
CONTINUOUS
10
105.2319829999999996
20
-86.0880579999999895
11
105.4099999999999966
21
-86.0679999999999978
0
LINE
8
BLACK
6
CONTINUOUS
10
105.4099999999999966
20
-86.0679999999999978
11
105.5880169999999936
21
-86.0880579999999895
0
LINE
8
BLACK
6
CONTINUOUS
10
94.7818910000000017
20
-85.6288040000000024
11
94.9404129999999924
21
-85.6842729999999904
0
LINE
8
BLACK
6
CONTINUOUS
10
94.9404129999999924
20
-85.6842729999999904
11
95.0826169999999991
21
-85.773625999999993
0
LINE
8
BLACK
6
CONTINUOUS
10
95.0826169999999991
20
-85.773625999999993
11
95.2013740000000013
21
-85.8923829999999953
0
LINE
8
BLACK
6
CONTINUOUS
10
95.2013740000000013
20
-85.8923829999999953
11
95.2907269999999897
21
-86.0345870000000019
0
LINE
8
BLACK
6
CONTINUOUS
10
95.2907269999999897
20
-86.0345870000000019
11
95.346195999999992
21
-86.1931089999999926
0
LINE
8
BLACK
6
CONTINUOUS
10
95.346195999999992
20
-86.1931089999999926
11
95.3649999999999949
21
-86.3599999999999994
0
LINE
8
BLACK
6
CONTINUOUS
10
95.3649999999999949
20
-86.3599999999999994
11
95.346195999999992
21
-86.526890999999992
0
LINE
8
BLACK
6
CONTINUOUS
10
95.346195999999992
20
-86.526890999999992
11
95.2907269999999897
21
-86.6854129999999969
0
LINE
8
BLACK
6
CONTINUOUS
10
95.2907269999999897
20
-86.6854129999999969
11
95.2013740000000013
21
-86.8276169999999894
0
LINE
8
BLACK
6
CONTINUOUS
10
95.2013740000000013
20
-86.8276169999999894
11
95.0826169999999991
21
-86.9463739999999916
0
LINE
8
BLACK
6
CONTINUOUS
10
95.0826169999999991
20
-86.9463739999999916
11
94.9404129999999924
21
-87.0357269999999943
0
LINE
8
BLACK
6
CONTINUOUS
10
94.9404129999999924
20
-87.0357269999999943
11
94.7818910000000017
21
-87.0911959999999965
0
LINE
8
BLACK
6
CONTINUOUS
10
94.7818910000000017
20
-87.0911959999999965
11
94.6149999999999949
21
-87.1099999999999994
0
LINE
8
BLACK
6
CONTINUOUS
10
94.6149999999999949
20
-87.1099999999999994
11
94.4481090000000023
21
-87.0911959999999965
0
LINE
8
BLACK
6
CONTINUOUS
10
94.4481090000000023
20
-87.0911959999999965
11
94.2895869999999974
21
-87.0357269999999943
0
LINE
8
BLACK
6
CONTINUOUS
10
94.2895869999999974
20
-87.0357269999999943
11
94.1473829999999907
21
-86.9463739999999916
0
LINE
8
BLACK
6
CONTINUOUS
10
94.1473829999999907
20
-86.9463739999999916
11
94.0286260000000027
21
-86.8276169999999894
0
LINE
8
BLACK
6
CONTINUOUS
10
94.0286260000000027
20
-86.8276169999999894
11
93.939273
21
-86.6854129999999969
0
LINE
8
BLACK
6
CONTINUOUS
10
93.939273
20
-86.6854129999999969
11
93.8838039999999978
21
-86.526890999999992
0
LINE
8
BLACK
6
CONTINUOUS
10
93.8838039999999978
20
-86.526890999999992
11
93.8649999999999949
21
-86.3599999999999994
0
LINE
8
BLACK
6
CONTINUOUS
10
93.8649999999999949
20
-86.3599999999999994
11
93.8838039999999978
21
-86.1931089999999926
0
LINE
8
BLACK
6
CONTINUOUS
10
93.8838039999999978
20
-86.1931089999999926
11
93.939273
21
-86.0345870000000019
0
LINE
8
BLACK
6
CONTINUOUS
10
93.939273
20
-86.0345870000000019
11
94.0286260000000027
21
-85.8923829999999953
0
LINE
8
BLACK
6
CONTINUOUS
10
94.0286260000000027
20
-85.8923829999999953
11
94.1473829999999907
21
-85.773625999999993
0
LINE
8
BLACK
6
CONTINUOUS
10
94.1473829999999907
20
-85.773625999999993
11
94.2895869999999974
21
-85.6842729999999904
0
LINE
8
BLACK
6
CONTINUOUS
10
94.2895869999999974
20
-85.6842729999999904
11
94.4481090000000023
21
-85.6288040000000024
0
LINE
8
BLACK
6
CONTINUOUS
10
94.4481090000000023
20
-85.6288040000000024
11
94.6149999999999949
21
-85.6099999999999994
0
LINE
8
BLACK
6
CONTINUOUS
10
94.6149999999999949
20
-85.6099999999999994
11
94.7818910000000017
21
-85.6288040000000024
0
LINE
8
BLACK
6
CONTINUOUS
10
109.3559999999999945
20
-87.1099999999999994
11
107.8559999999999945
21
-87.1099999999999994
0
LINE
8
BLACK
6
CONTINUOUS
10
107.8559999999999945
20
-87.1099999999999994
11
107.8559999999999945
21
-85.6099999999999994
0
LINE
8
BLACK
6
CONTINUOUS
10
107.8559999999999945
20
-85.6099999999999994
11
109.3559999999999945
21
-85.6099999999999994
0
LINE
8
BLACK
6
CONTINUOUS
10
109.3559999999999945
20
-85.6099999999999994
11
109.3559999999999945
21
-87.1099999999999994
0
LINE
8
BLACK
6
CONTINUOUS
10
85.6221149999999938
20
-83.8530489999999986
11
85.7939999999999969
21
-83.9295769999999948
0
LINE
8
BLACK
6
CONTINUOUS
10
85.7939999999999969
20
-83.9295769999999948
11
85.9462180000000018
21
-84.0401699999999892
0
LINE
8
BLACK
6
CONTINUOUS
10
85.9462180000000018
20
-84.0401699999999892
11
86.0721149999999966
21
-84.1799929999999961
0
LINE
8
BLACK
6
CONTINUOUS
10
86.0721149999999966
20
-84.1799929999999961
11
86.1661909999999978
21
-84.3429369999999921
0
LINE
8
BLACK
6
CONTINUOUS
10
86.1661909999999978
20
-84.3429369999999921
11
86.2243330000000014
21
-84.5218789999999984
0
LINE
8
BLACK
6
CONTINUOUS
10
86.2243330000000014
20
-84.5218789999999984
11
86.2439999999999998
21
-84.7090000000000032
0
LINE
8
BLACK
6
CONTINUOUS
10
86.2439999999999998
20
-84.7090000000000032
11
86.2243330000000014
21
-84.8961209999999937
0
LINE
8
BLACK
6
CONTINUOUS
10
86.2243330000000014
20
-84.8961209999999937
11
86.1661909999999978
21
-85.0750630000000001
0
LINE
8
BLACK
6
CONTINUOUS
10
86.1661909999999978
20
-85.0750630000000001
11
86.0721149999999966
21
-85.2380069999999961
0
LINE
8
BLACK
6
CONTINUOUS
10
86.0721149999999966
20
-85.2380069999999961
11
85.9462180000000018
21
-85.377830000000003
0
LINE
8
BLACK
6
CONTINUOUS
10
85.9462180000000018
20
-85.377830000000003
11
85.7939999999999969
21
-85.4884229999999974
0
LINE
8
BLACK
6
CONTINUOUS
10
85.7939999999999969
20
-85.4884229999999974
11
85.6221149999999938
21
-85.5649509999999935
0
LINE
8
BLACK
6
CONTINUOUS
10
85.6221149999999938
20
-85.5649509999999935
11
85.4380759999999952
21
-85.604069999999993
0
LINE
8
BLACK
6
CONTINUOUS
10
85.4380759999999952
20
-85.604069999999993
11
85.2499239999999929
21
-85.604069999999993
0
LINE
8
BLACK
6
CONTINUOUS
10
85.2499239999999929
20
-85.604069999999993
11
85.0658849999999944
21
-85.5649509999999935
0
LINE
8
BLACK
6
CONTINUOUS
10
85.0658849999999944
20
-85.5649509999999935
11
84.8939999999999912
21
-85.4884229999999974
0
LINE
8
BLACK
6
CONTINUOUS
10
84.8939999999999912
20
-85.4884229999999974
11
84.7417820000000006
21
-85.377830000000003
0
LINE
8
BLACK
6
CONTINUOUS
10
84.7417820000000006
20
-85.377830000000003
11
84.6158849999999916
21
-85.2380069999999961
0
LINE
8
BLACK
6
CONTINUOUS
10
84.6158849999999916
20
-85.2380069999999961
11
84.5218089999999904
21
-85.0750630000000001
0
LINE
8
BLACK
6
CONTINUOUS
10
84.5218089999999904
20
-85.0750630000000001
11
84.4636670000000009
21
-84.8961209999999937
0
LINE
8
BLACK
6
CONTINUOUS
10
84.4636670000000009
20
-84.8961209999999937
11
84.4440000000000026
21
-84.7090000000000032
0
LINE
8
BLACK
6
CONTINUOUS
10
84.4440000000000026
20
-84.7090000000000032
11
84.4636670000000009
21
-84.5218789999999984
0
LINE
8
BLACK
6
CONTINUOUS
10
84.4636670000000009
20
-84.5218789999999984
11
84.5218089999999904
21
-84.3429369999999921
0
LINE
8
BLACK
6
CONTINUOUS
10
84.5218089999999904
20
-84.3429369999999921
11
84.6158849999999916
21
-84.1799929999999961
0
LINE
8
BLACK
6
CONTINUOUS
10
84.6158849999999916
20
-84.1799929999999961
11
84.7417820000000006
21
-84.0401699999999892
0
LINE
8
BLACK
6
CONTINUOUS
10
84.7417820000000006
20
-84.0401699999999892
11
84.8939999999999912
21
-83.9295769999999948
0
LINE
8
BLACK
6
CONTINUOUS
10
84.8939999999999912
20
-83.9295769999999948
11
85.0658849999999944
21
-83.8530489999999986
0
LINE
8
BLACK
6
CONTINUOUS
10
85.0658849999999944
20
-83.8530489999999986
11
85.2499239999999929
21
-83.8139299999999992
0
LINE
8
BLACK
6
CONTINUOUS
10
85.2499239999999929
20
-83.8139299999999992
11
85.4380759999999952
21
-83.8139299999999992
0
LINE
8
BLACK
6
CONTINUOUS
10
85.4380759999999952
20
-83.8139299999999992
11
85.6221149999999938
21
-83.8530489999999986
0
LINE
8
BLACK
6
CONTINUOUS
10
59.2061149999999969
20
-83.8480490000000032
11
59.3780000000000001
21
-83.9245769999999993
0
LINE
8
BLACK
6
CONTINUOUS
10
59.3780000000000001
20
-83.9245769999999993
11
59.5302179999999979
21
-84.0351699999999937
0
LINE
8
BLACK
6
CONTINUOUS
10
59.5302179999999979
20
-84.0351699999999937
11
59.6561149999999998
21
-84.1749930000000006
0
LINE
8
BLACK
6
CONTINUOUS
10
59.6561149999999998
20
-84.1749930000000006
11
59.7501909999999938
21
-84.3379369999999966
0
LINE
8
BLACK
6
CONTINUOUS
10
59.7501909999999938
20
-84.3379369999999966
11
59.8083329999999975
21
-84.516879000000003
0
LINE
8
BLACK
6
CONTINUOUS
10
59.8083329999999975
20
-84.516879000000003
11
59.8279999999999959
21
-84.7039999999999935
0
LINE
8
BLACK
6
CONTINUOUS
10
59.8279999999999959
20
-84.7039999999999935
11
59.8083329999999975
21
-84.8911209999999983
0
LINE
8
BLACK
6
CONTINUOUS
10
59.8083329999999975
20
-84.8911209999999983
11
59.7501909999999938
21
-85.0700629999999904
0
LINE
8
BLACK
6
CONTINUOUS
10
59.7501909999999938
20
-85.0700629999999904
11
59.6561149999999998
21
-85.2330070000000006
0
LINE
8
BLACK
6
CONTINUOUS
10
59.6561149999999998
20
-85.2330070000000006
11
59.5302179999999979
21
-85.3728299999999933
0
LINE
8
BLACK
6
CONTINUOUS
10
59.5302179999999979
20
-85.3728299999999933
11
59.3780000000000001
21
-85.4834230000000019
0
LINE
8
BLACK
6
CONTINUOUS
10
59.3780000000000001
20
-85.4834230000000019
11
59.2061149999999969
21
-85.5599509999999981
0
LINE
8
BLACK
6
CONTINUOUS
10
59.2061149999999969
20
-85.5599509999999981
11
59.0220759999999984
21
-85.5990699999999975
0
LINE
8
BLACK
6
CONTINUOUS
10
59.0220759999999984
20
-85.5990699999999975
11
58.8339239999999961
21
-85.5990699999999975
0
LINE
8
BLACK
6
CONTINUOUS
10
58.8339239999999961
20
-85.5990699999999975
11
58.6498849999999976
21
-85.5599509999999981
0
LINE
8
BLACK
6
CONTINUOUS
10
58.6498849999999976
20
-85.5599509999999981
11
58.4779999999999944
21
-85.4834230000000019
0
LINE
8
BLACK
6
CONTINUOUS
10
58.4779999999999944
20
-85.4834230000000019
11
58.3257819999999967
21
-85.3728299999999933
0
LINE
8
BLACK
6
CONTINUOUS
10
58.3257819999999967
20
-85.3728299999999933
11
58.1998849999999948
21
-85.2330070000000006
0
LINE
8
BLACK
6
CONTINUOUS
10
58.1998849999999948
20
-85.2330070000000006
11
58.1058090000000007
21
-85.0700629999999904
0
LINE
8
BLACK
6
CONTINUOUS
10
58.1058090000000007
20
-85.0700629999999904
11
58.047666999999997
21
-84.8911209999999983
0
LINE
8
BLACK
6
CONTINUOUS
10
58.047666999999997
20
-84.8911209999999983
11
58.0279999999999987
21
-84.7039999999999935
0
LINE
8
BLACK
6
CONTINUOUS
10
58.0279999999999987
20
-84.7039999999999935
11
58.047666999999997
21
-84.516879000000003
0
LINE
8
BLACK
6
CONTINUOUS
10
58.047666999999997
20
-84.516879000000003
11
58.1058090000000007
21
-84.3379369999999966
0
LINE
8
BLACK
6
CONTINUOUS
10
58.1058090000000007
20
-84.3379369999999966
11
58.1998849999999948
21
-84.1749930000000006
0
LINE
8
BLACK
6
CONTINUOUS
10
58.1998849999999948
20
-84.1749930000000006
11
58.3257819999999967
21
-84.0351699999999937
0
LINE
8
BLACK
6
CONTINUOUS
10
58.3257819999999967
20
-84.0351699999999937
11
58.4779999999999944
21
-83.9245769999999993
0
LINE
8
BLACK
6
CONTINUOUS
10
58.4779999999999944
20
-83.9245769999999993
11
58.6498849999999976
21
-83.8480490000000032
0
LINE
8
BLACK
6
CONTINUOUS
10
58.6498849999999976
20
-83.8480490000000032
11
58.8339239999999961
21
-83.8089299999999895
0
LINE
8
BLACK
6
CONTINUOUS
10
58.8339239999999961
20
-83.8089299999999895
11
59.0220759999999984
21
-83.8089299999999895
0
LINE
8
BLACK
6
CONTINUOUS
10
59.0220759999999984
20
-83.8089299999999895
11
59.2061149999999969
21
-83.8480490000000032
0
LINE
8
BLACK
6
CONTINUOUS
10
72.4141149999999953
20
-83.8480490000000032
11
72.5859999999999985
21
-83.9245769999999993
0
LINE
8
BLACK
6
CONTINUOUS
10
72.5859999999999985
20
-83.9245769999999993
11
72.7382180000000034
21
-84.0351699999999937
0
LINE
8
BLACK
6
CONTINUOUS
10
72.7382180000000034
20
-84.0351699999999937
11
72.8641149999999982
21
-84.1749930000000006
0
LINE
8
BLACK
6
CONTINUOUS
10
72.8641149999999982
20
-84.1749930000000006
11
72.9581909999999993
21
-84.3379369999999966
0
LINE
8
BLACK
6
CONTINUOUS
10
72.9581909999999993
20
-84.3379369999999966
11
73.016333000000003
21
-84.516879000000003
0
LINE
8
BLACK
6
CONTINUOUS
10
73.016333000000003
20
-84.516879000000003
11
73.0360000000000014
21
-84.7039999999999935
0
LINE
8
BLACK
6
CONTINUOUS
10
73.0360000000000014
20
-84.7039999999999935
11
73.016333000000003
21
-84.8911209999999983
0
LINE
8
BLACK
6
CONTINUOUS
10
73.016333000000003
20
-84.8911209999999983
11
72.9581909999999993
21
-85.0700629999999904
0
LINE
8
BLACK
6
CONTINUOUS
10
72.9581909999999993
20
-85.0700629999999904
11
72.8641149999999982
21
-85.2330070000000006
0
LINE
8
BLACK
6
CONTINUOUS
10
72.8641149999999982
20
-85.2330070000000006
11
72.7382180000000034
21
-85.3728299999999933
0
LINE
8
BLACK
6
CONTINUOUS
10
72.7382180000000034
20
-85.3728299999999933
11
72.5859999999999985
21
-85.4834230000000019
0
LINE
8
BLACK
6
CONTINUOUS
10
72.5859999999999985
20
-85.4834230000000019
11
72.4141149999999953
21
-85.5599509999999981
0
LINE
8
BLACK
6
CONTINUOUS
10
72.4141149999999953
20
-85.5599509999999981
11
72.2300759999999968
21
-85.5990699999999975
0
LINE
8
BLACK
6
CONTINUOUS
10
72.2300759999999968
20
-85.5990699999999975
11
72.0419239999999945
21
-85.5990699999999975
0
LINE
8
BLACK
6
CONTINUOUS
10
72.0419239999999945
20
-85.5990699999999975
11
71.857884999999996
21
-85.5599509999999981
0
LINE
8
BLACK
6
CONTINUOUS
10
71.857884999999996
20
-85.5599509999999981
11
71.6859999999999928
21
-85.4834230000000019
0
LINE
8
BLACK
6
CONTINUOUS
10
71.6859999999999928
20
-85.4834230000000019
11
71.5337820000000022
21
-85.3728299999999933
0
LINE
8
BLACK
6
CONTINUOUS
10
71.5337820000000022
20
-85.3728299999999933
11
71.4078849999999932
21
-85.2330070000000006
0
LINE
8
BLACK
6
CONTINUOUS
10
71.4078849999999932
20
-85.2330070000000006
11
71.313808999999992
21
-85.0700629999999904
0
LINE
8
BLACK
6
CONTINUOUS
10
71.313808999999992
20
-85.0700629999999904
11
71.2556670000000025
21
-84.8911209999999983
0
LINE
8
BLACK
6
CONTINUOUS
10
71.2556670000000025
20
-84.8911209999999983
11
71.23599999999999
21
-84.7039999999999935
0
LINE
8
BLACK
6
CONTINUOUS
10
71.23599999999999
20
-84.7039999999999935
11
71.2556670000000025
21
-84.516879000000003
0
LINE
8
BLACK
6
CONTINUOUS
10
71.2556670000000025
20
-84.516879000000003
11
71.313808999999992
21
-84.3379369999999966
0
LINE
8
BLACK
6
CONTINUOUS
10
71.313808999999992
20
-84.3379369999999966
11
71.4078849999999932
21
-84.1749930000000006
0
LINE
8
BLACK
6
CONTINUOUS
10
71.4078849999999932
20
-84.1749930000000006
11
71.5337820000000022
21
-84.0351699999999937
0
LINE
8
BLACK
6
CONTINUOUS
10
71.5337820000000022
20
-84.0351699999999937
11
71.6859999999999928
21
-83.9245769999999993
0
LINE
8
BLACK
6
CONTINUOUS
10
71.6859999999999928
20
-83.9245769999999993
11
71.857884999999996
21
-83.8480490000000032
0
LINE
8
BLACK
6
CONTINUOUS
10
71.857884999999996
20
-83.8480490000000032
11
72.0419239999999945
21
-83.8089299999999895
0
LINE
8
BLACK
6
CONTINUOUS
10
72.0419239999999945
20
-83.8089299999999895
11
72.2300759999999968
21
-83.8089299999999895
0
LINE
8
BLACK
6
CONTINUOUS
10
72.2300759999999968
20
-83.8089299999999895
11
72.4141149999999953
21
-83.8480490000000032
0
LINE
8
BLACK
6
CONTINUOUS
10
79.0181149999999946
20
-83.8480490000000032
11
79.1899999999999977
21
-83.9245769999999993
0
LINE
8
BLACK
6
CONTINUOUS
10
79.1899999999999977
20
-83.9245769999999993
11
79.3422180000000026
21
-84.0351699999999937
0
LINE
8
BLACK
6
CONTINUOUS
10
79.3422180000000026
20
-84.0351699999999937
11
79.4681149999999974
21
-84.1749930000000006
0
LINE
8
BLACK
6
CONTINUOUS
10
79.4681149999999974
20
-84.1749930000000006
11
79.5621909999999986
21
-84.3379369999999966
0
LINE
8
BLACK
6
CONTINUOUS
10
79.5621909999999986
20
-84.3379369999999966
11
79.6203330000000022
21
-84.516879000000003
0
LINE
8
BLACK
6
CONTINUOUS
10
79.6203330000000022
20
-84.516879000000003
11
79.6400000000000006
21
-84.7039999999999935
0
LINE
8
BLACK
6
CONTINUOUS
10
79.6400000000000006
20
-84.7039999999999935
11
79.6203330000000022
21
-84.8911209999999983
0
LINE
8
BLACK
6
CONTINUOUS
10
79.6203330000000022
20
-84.8911209999999983
11
79.5621909999999986
21
-85.0700629999999904
0
LINE
8
BLACK
6
CONTINUOUS
10
79.5621909999999986
20
-85.0700629999999904
11
79.4681149999999974
21
-85.2330070000000006
0
LINE
8
BLACK
6
CONTINUOUS
10
79.4681149999999974
20
-85.2330070000000006
11
79.3422180000000026
21
-85.3728299999999933
0
LINE
8
BLACK
6
CONTINUOUS
10
79.3422180000000026
20
-85.3728299999999933
11
79.1899999999999977
21
-85.4834230000000019
0
LINE
8
BLACK
6
CONTINUOUS
10
79.1899999999999977
20
-85.4834230000000019
11
79.0181149999999946
21
-85.5599509999999981
0
LINE
8
BLACK
6
CONTINUOUS
10
79.0181149999999946
20
-85.5599509999999981
11
78.834075999999996
21
-85.5990699999999975
0
LINE
8
BLACK
6
CONTINUOUS
10
78.834075999999996
20
-85.5990699999999975
11
78.6459239999999937
21
-85.5990699999999975
0
LINE
8
BLACK
6
CONTINUOUS
10
78.6459239999999937
20
-85.5990699999999975
11
78.4618849999999952
21
-85.5599509999999981
0
LINE
8
BLACK
6
CONTINUOUS
10
78.4618849999999952
20
-85.5599509999999981
11
78.289999999999992
21
-85.4834230000000019
0
LINE
8
BLACK
6
CONTINUOUS
10
78.289999999999992
20
-85.4834230000000019
11
78.1377820000000014
21
-85.3728299999999933
0
LINE
8
BLACK
6
CONTINUOUS
10
78.1377820000000014
20
-85.3728299999999933
11
78.0118849999999924
21
-85.2330070000000006
0
LINE
8
BLACK
6
CONTINUOUS
10
78.0118849999999924
20
-85.2330070000000006
11
77.9178089999999912
21
-85.0700629999999904
0
LINE
8
BLACK
6
CONTINUOUS
10
77.9178089999999912
20
-85.0700629999999904
11
77.8596670000000017
21
-84.8911209999999983
0
LINE
8
BLACK
6
CONTINUOUS
10
77.8596670000000017
20
-84.8911209999999983
11
77.8400000000000034
21
-84.7039999999999935
0
LINE
8
BLACK
6
CONTINUOUS
10
77.8400000000000034
20
-84.7039999999999935
11
77.8596670000000017
21
-84.516879000000003
0
LINE
8
BLACK
6
CONTINUOUS
10
77.8596670000000017
20
-84.516879000000003
11
77.9178089999999912
21
-84.3379369999999966
0
LINE
8
BLACK
6
CONTINUOUS
10
77.9178089999999912
20
-84.3379369999999966
11
78.0118849999999924
21
-84.1749930000000006
0
LINE
8
BLACK
6
CONTINUOUS
10
78.0118849999999924
20
-84.1749930000000006
11
78.1377820000000014
21
-84.0351699999999937
0
LINE
8
BLACK
6
CONTINUOUS
10
78.1377820000000014
20
-84.0351699999999937
11
78.289999999999992
21
-83.9245769999999993
0
LINE
8
BLACK
6
CONTINUOUS
10
78.289999999999992
20
-83.9245769999999993
11
78.4618849999999952
21
-83.8480490000000032
0
LINE
8
BLACK
6
CONTINUOUS
10
78.4618849999999952
20
-83.8480490000000032
11
78.6459239999999937
21
-83.8089299999999895
0
LINE
8
BLACK
6
CONTINUOUS
10
78.6459239999999937
20
-83.8089299999999895
11
78.834075999999996
21
-83.8089299999999895
0
LINE
8
BLACK
6
CONTINUOUS
10
78.834075999999996
20
-83.8089299999999895
11
79.0181149999999946
21
-83.8480490000000032
0
LINE
8
BLACK
6
CONTINUOUS
10
66.4320000000000022
20
-85.5989999999999895
11
64.6319999999999908
21
-85.5989999999999895
0
LINE
8
BLACK
6
CONTINUOUS
10
64.6319999999999908
20
-85.5989999999999895
11
64.6319999999999908
21
-83.7989999999999924
0
LINE
8
BLACK
6
CONTINUOUS
10
64.6319999999999908
20
-83.7989999999999924
11
66.4320000000000022
21
-83.7989999999999924
0
LINE
8
BLACK
6
CONTINUOUS
10
66.4320000000000022
20
-83.7989999999999924
11
66.4320000000000022
21
-85.5989999999999895
0
LINE
8
BLACK
6
CONTINUOUS
10
90.475016999999994
20
-83.0400580000000019
11
90.6441069999999911
21
-83.0992249999999899
0
LINE
8
BLACK
6
CONTINUOUS
10
90.6441069999999911
20
-83.0992249999999899
11
90.7957919999999916
21
-83.1945350000000019
0
LINE
8
BLACK
6
CONTINUOUS
10
90.7957919999999916
20
-83.1945350000000019
11
90.9224650000000025
21
-83.3212079999999986
0
LINE
8
BLACK
6
CONTINUOUS
10
90.9224650000000025
20
-83.3212079999999986
11
91.0177750000000003
21
-83.4728929999999991
0
LINE
8
BLACK
6
CONTINUOUS
10
91.0177750000000003
20
-83.4728929999999991
11
91.0769420000000025
21
-83.6419829999999962
0
LINE
8
BLACK
6
CONTINUOUS
10
91.0769420000000025
20
-83.6419829999999962
11
91.0969999999999942
21
-83.8199999999999932
0
LINE
8
BLACK
6
CONTINUOUS
10
91.0969999999999942
20
-83.8199999999999932
11
91.0769420000000025
21
-83.9980169999999902
0
LINE
8
BLACK
6
CONTINUOUS
10
91.0769420000000025
20
-83.9980169999999902
11
91.0177750000000003
21
-84.1671070000000014
0
LINE
8
BLACK
6
CONTINUOUS
10
91.0177750000000003
20
-84.1671070000000014
11
90.9224650000000025
21
-84.318792000000002
0
LINE
8
BLACK
6
CONTINUOUS
10
90.9224650000000025
20
-84.318792000000002
11
90.7957919999999916
21
-84.4454649999999987
0
LINE
8
BLACK
6
CONTINUOUS
10
90.7957919999999916
20
-84.4454649999999987
11
90.6441069999999911
21
-84.5407749999999965
0
LINE
8
BLACK
6
CONTINUOUS
10
90.6441069999999911
20
-84.5407749999999965
11
90.475016999999994
21
-84.5999419999999986
0
LINE
8
BLACK
6
CONTINUOUS
10
90.475016999999994
20
-84.5999419999999986
11
90.296999999999997
21
-84.6199999999999903
0
LINE
8
BLACK
6
CONTINUOUS
10
90.296999999999997
20
-84.6199999999999903
11
90.1189830000000001
21
-84.5999419999999986
0
LINE
8
BLACK
6
CONTINUOUS
10
90.1189830000000001
20
-84.5999419999999986
11
89.949893000000003
21
-84.5407749999999965
0
LINE
8
BLACK
6
CONTINUOUS
10
89.949893000000003
20
-84.5407749999999965
11
89.7982080000000025
21
-84.4454649999999987
0
LINE
8
BLACK
6
CONTINUOUS
10
89.7982080000000025
20
-84.4454649999999987
11
89.6715349999999916
21
-84.318792000000002
0
LINE
8
BLACK
6
CONTINUOUS
10
89.6715349999999916
20
-84.318792000000002
11
89.5762249999999938
21
-84.1671070000000014
0
LINE
8
BLACK
6
CONTINUOUS
10
89.5762249999999938
20
-84.1671070000000014
11
89.5170579999999916
21
-83.9980169999999902
0
LINE
8
BLACK
6
CONTINUOUS
10
89.5170579999999916
20
-83.9980169999999902
11
89.4969999999999999
21
-83.8199999999999932
0
LINE
8
BLACK
6
CONTINUOUS
10
89.4969999999999999
20
-83.8199999999999932
11
89.5170579999999916
21
-83.6419829999999962
0
LINE
8
BLACK
6
CONTINUOUS
10
89.5170579999999916
20
-83.6419829999999962
11
89.5762249999999938
21
-83.4728929999999991
0
LINE
8
BLACK
6
CONTINUOUS
10
89.5762249999999938
20
-83.4728929999999991
11
89.6715349999999916
21
-83.3212079999999986
0
LINE
8
BLACK
6
CONTINUOUS
10
89.6715349999999916
20
-83.3212079999999986
11
89.7982080000000025
21
-83.1945350000000019
0
LINE
8
BLACK
6
CONTINUOUS
10
89.7982080000000025
20
-83.1945350000000019
11
89.949893000000003
21
-83.0992249999999899
0
LINE
8
BLACK
6
CONTINUOUS
10
89.949893000000003
20
-83.0992249999999899
11
90.1189830000000001
21
-83.0400580000000019
0
LINE
8
BLACK
6
CONTINUOUS
10
90.1189830000000001
20
-83.0400580000000019
11
90.296999999999997
21
-83.019999999999996
0
LINE
8
BLACK
6
CONTINUOUS
10
90.296999999999997
20
-83.019999999999996
11
90.475016999999994
21
-83.0400580000000019
0
LINE
8
BLACK
6
CONTINUOUS
10
113.2080169999999981
20
-83.0400580000000019
11
113.3771069999999952
21
-83.0992249999999899
0
LINE
8
BLACK
6
CONTINUOUS
10
113.3771069999999952
20
-83.0992249999999899
11
113.5287919999999957
21
-83.1945350000000019
0
LINE
8
BLACK
6
CONTINUOUS
10
113.5287919999999957
20
-83.1945350000000019
11
113.6554649999999924
21
-83.3212079999999986
0
LINE
8
BLACK
6
CONTINUOUS
10
113.6554649999999924
20
-83.3212079999999986
11
113.7507749999999902
21
-83.4728929999999991
0
LINE
8
BLACK
6
CONTINUOUS
10
113.7507749999999902
20
-83.4728929999999991
11
113.8099419999999924
21
-83.6419829999999962
0
LINE
8
BLACK
6
CONTINUOUS
10
113.8099419999999924
20
-83.6419829999999962
11
113.8299999999999983
21
-83.8199999999999932
0
LINE
8
BLACK
6
CONTINUOUS
10
113.8299999999999983
20
-83.8199999999999932
11
113.8099419999999924
21
-83.9980169999999902
0
LINE
8
BLACK
6
CONTINUOUS
10
113.8099419999999924
20
-83.9980169999999902
11
113.7507749999999902
21
-84.1671070000000014
0
LINE
8
BLACK
6
CONTINUOUS
10
113.7507749999999902
20
-84.1671070000000014
11
113.6554649999999924
21
-84.318792000000002
0
LINE
8
BLACK
6
CONTINUOUS
10
113.6554649999999924
20
-84.318792000000002
11
113.5287919999999957
21
-84.4454649999999987
0
LINE
8
BLACK
6
CONTINUOUS
10
113.5287919999999957
20
-84.4454649999999987
11
113.3771069999999952
21
-84.5407749999999965
0
LINE
8
BLACK
6
CONTINUOUS
10
113.3771069999999952
20
-84.5407749999999965
11
113.2080169999999981
21
-84.5999419999999986
0
LINE
8
BLACK
6
CONTINUOUS
10
113.2080169999999981
20
-84.5999419999999986
11
113.0300000000000011
21
-84.6199999999999903
0
LINE
8
BLACK
6
CONTINUOUS
10
113.0300000000000011
20
-84.6199999999999903
11
112.8519829999999899
21
-84.5999419999999986
0
LINE
8
BLACK
6
CONTINUOUS
10
112.8519829999999899
20
-84.5999419999999986
11
112.6828929999999929
21
-84.5407749999999965
0
LINE
8
BLACK
6
CONTINUOUS
10
112.6828929999999929
20
-84.5407749999999965
11
112.5312079999999924
21
-84.4454649999999987
0
LINE
8
BLACK
6
CONTINUOUS
10
112.5312079999999924
20
-84.4454649999999987
11
112.4045349999999956
21
-84.318792000000002
0
LINE
8
BLACK
6
CONTINUOUS
10
112.4045349999999956
20
-84.318792000000002
11
112.3092249999999979
21
-84.1671070000000014
0
LINE
8
BLACK
6
CONTINUOUS
10
112.3092249999999979
20
-84.1671070000000014
11
112.2500579999999957
21
-83.9980169999999902
0
LINE
8
BLACK
6
CONTINUOUS
10
112.2500579999999957
20
-83.9980169999999902
11
112.2299999999999898
21
-83.8199999999999932
0
LINE
8
BLACK
6
CONTINUOUS
10
112.2299999999999898
20
-83.8199999999999932
11
112.2500579999999957
21
-83.6419829999999962
0
LINE
8
BLACK
6
CONTINUOUS
10
112.2500579999999957
20
-83.6419829999999962
11
112.3092249999999979
21
-83.4728929999999991
0
LINE
8
BLACK
6
CONTINUOUS
10
112.3092249999999979
20
-83.4728929999999991
11
112.4045349999999956
21
-83.3212079999999986
0
LINE
8
BLACK
6
CONTINUOUS
10
112.4045349999999956
20
-83.3212079999999986
11
112.5312079999999924
21
-83.1945350000000019
0
LINE
8
BLACK
6
CONTINUOUS
10
112.5312079999999924
20
-83.1945350000000019
11
112.6828929999999929
21
-83.0992249999999899
0
LINE
8
BLACK
6
CONTINUOUS
10
112.6828929999999929
20
-83.0992249999999899
11
112.8519829999999899
21
-83.0400580000000019
0
LINE
8
BLACK
6
CONTINUOUS
10
112.8519829999999899
20
-83.0400580000000019
11
113.0300000000000011
21
-83.019999999999996
0
LINE
8
BLACK
6
CONTINUOUS
10
113.0300000000000011
20
-83.019999999999996
11
113.2080169999999981
21
-83.0400580000000019
0
LINE
8
BLACK
6
CONTINUOUS
10
116.3830169999999953
20
-83.0400580000000019
11
116.5521069999999924
21
-83.0992249999999899
0
LINE
8
BLACK
6
CONTINUOUS
10
116.5521069999999924
20
-83.0992249999999899
11
116.7037919999999929
21
-83.1945350000000019
0
LINE
8
BLACK
6
CONTINUOUS
10
116.7037919999999929
20
-83.1945350000000019
11
116.8304649999999896
21
-83.3212079999999986
0
LINE
8
BLACK
6
CONTINUOUS
10
116.8304649999999896
20
-83.3212079999999986
11
116.9257750000000016
21
-83.4728929999999991
0
LINE
8
BLACK
6
CONTINUOUS
10
116.9257750000000016
20
-83.4728929999999991
11
116.9849419999999895
21
-83.6419829999999962
0
LINE
8
BLACK
6
CONTINUOUS
10
116.9849419999999895
20
-83.6419829999999962
11
117.0049999999999955
21
-83.8199999999999932
0
LINE
8
BLACK
6
CONTINUOUS
10
117.0049999999999955
20
-83.8199999999999932
11
116.9849419999999895
21
-83.9980169999999902
0
LINE
8
BLACK
6
CONTINUOUS
10
116.9849419999999895
20
-83.9980169999999902
11
116.9257750000000016
21
-84.1671070000000014
0
LINE
8
BLACK
6
CONTINUOUS
10
116.9257750000000016
20
-84.1671070000000014
11
116.8304649999999896
21
-84.318792000000002
0
LINE
8
BLACK
6
CONTINUOUS
10
116.8304649999999896
20
-84.318792000000002
11
116.7037919999999929
21
-84.4454649999999987
0
LINE
8
BLACK
6
CONTINUOUS
10
116.7037919999999929
20
-84.4454649999999987
11
116.5521069999999924
21
-84.5407749999999965
0
LINE
8
BLACK
6
CONTINUOUS
10
116.5521069999999924
20
-84.5407749999999965
11
116.3830169999999953
21
-84.5999419999999986
0
LINE
8
BLACK
6
CONTINUOUS
10
116.3830169999999953
20
-84.5999419999999986
11
116.2049999999999983
21
-84.6199999999999903
0
LINE
8
BLACK
6
CONTINUOUS
10
116.2049999999999983
20
-84.6199999999999903
11
116.0269830000000013
21
-84.5999419999999986
0
LINE
8
BLACK
6
CONTINUOUS
10
116.0269830000000013
20
-84.5999419999999986
11
115.85789299999999
21
-84.5407749999999965
0
LINE
8
BLACK
6
CONTINUOUS
10
115.85789299999999
20
-84.5407749999999965
11
115.7062079999999895
21
-84.4454649999999987
0
LINE
8
BLACK
6
CONTINUOUS
10
115.7062079999999895
20
-84.4454649999999987
11
115.5795349999999928
21
-84.318792000000002
0
LINE
8
BLACK
6
CONTINUOUS
10
115.5795349999999928
20
-84.318792000000002
11
115.484224999999995
21
-84.1671070000000014
0
LINE
8
BLACK
6
CONTINUOUS
10
115.484224999999995
20
-84.1671070000000014
11
115.4250579999999928
21
-83.9980169999999902
0
LINE
8
BLACK
6
CONTINUOUS
10
115.4250579999999928
20
-83.9980169999999902
11
115.4050000000000011
21
-83.8199999999999932
0
LINE
8
BLACK
6
CONTINUOUS
10
115.4050000000000011
20
-83.8199999999999932
11
115.4250579999999928
21
-83.6419829999999962
0
LINE
8
BLACK
6
CONTINUOUS
10
115.4250579999999928
20
-83.6419829999999962
11
115.484224999999995
21
-83.4728929999999991
0
LINE
8
BLACK
6
CONTINUOUS
10
115.484224999999995
20
-83.4728929999999991
11
115.5795349999999928
21
-83.3212079999999986
0
LINE
8
BLACK
6
CONTINUOUS
10
115.5795349999999928
20
-83.3212079999999986
11
115.7062079999999895
21
-83.1945350000000019
0
LINE
8
BLACK
6
CONTINUOUS
10
115.7062079999999895
20
-83.1945350000000019
11
115.85789299999999
21
-83.0992249999999899
0
LINE
8
BLACK
6
CONTINUOUS
10
115.85789299999999
20
-83.0992249999999899
11
116.0269830000000013
21
-83.0400580000000019
0
LINE
8
BLACK
6
CONTINUOUS
10
116.0269830000000013
20
-83.0400580000000019
11
116.2049999999999983
21
-83.019999999999996
0
LINE
8
BLACK
6
CONTINUOUS
10
116.2049999999999983
20
-83.019999999999996
11
116.3830169999999953
21
-83.0400580000000019
0
LINE
8
BLACK
6
CONTINUOUS
10
98.3490169999999893
20
-82.1510579999999919
11
98.5181070000000005
21
-82.2102249999999941
0
LINE
8
BLACK
6
CONTINUOUS
10
98.5181070000000005
20
-82.2102249999999941
11
98.6697920000000011
21
-82.3055349999999919
0
LINE
8
BLACK
6
CONTINUOUS
10
98.6697920000000011
20
-82.3055349999999919
11
98.7964649999999978
21
-82.4322080000000028
0
LINE
8
BLACK
6
CONTINUOUS
10
98.7964649999999978
20
-82.4322080000000028
11
98.8917749999999955
21
-82.5838930000000033
0
LINE
8
BLACK
6
CONTINUOUS
10
98.8917749999999955
20
-82.5838930000000033
11
98.9509419999999977
21
-82.7529830000000004
0
LINE
8
BLACK
6
CONTINUOUS
10
98.9509419999999977
20
-82.7529830000000004
11
98.9709999999999894
21
-82.9309999999999974
0
LINE
8
BLACK
6
CONTINUOUS
10
98.9709999999999894
20
-82.9309999999999974
11
98.9509419999999977
21
-83.1090169999999944
0
LINE
8
BLACK
6
CONTINUOUS
10
98.9509419999999977
20
-83.1090169999999944
11
98.8917749999999955
21
-83.2781069999999914
0
LINE
8
BLACK
6
CONTINUOUS
10
98.8917749999999955
20
-83.2781069999999914
11
98.7964649999999978
21
-83.429791999999992
0
LINE
8
BLACK
6
CONTINUOUS
10
98.7964649999999978
20
-83.429791999999992
11
98.6697920000000011
21
-83.5564650000000029
0
LINE
8
BLACK
6
CONTINUOUS
10
98.6697920000000011
20
-83.5564650000000029
11
98.5181070000000005
21
-83.6517750000000007
0
LINE
8
BLACK
6
CONTINUOUS
10
98.5181070000000005
20
-83.6517750000000007
11
98.3490169999999893
21
-83.7109420000000028
0
LINE
8
BLACK
6
CONTINUOUS
10
98.3490169999999893
20
-83.7109420000000028
11
98.1709999999999923
21
-83.7309999999999945
0
LINE
8
BLACK
6
CONTINUOUS
10
98.1709999999999923
20
-83.7309999999999945
11
97.9929829999999953
21
-83.7109420000000028
0
LINE
8
BLACK
6
CONTINUOUS
10
97.9929829999999953
20
-83.7109420000000028
11
97.8238929999999982
21
-83.6517750000000007
0
LINE
8
BLACK
6
CONTINUOUS
10
97.8238929999999982
20
-83.6517750000000007
11
97.6722079999999977
21
-83.5564650000000029
0
LINE
8
BLACK
6
CONTINUOUS
10
97.6722079999999977
20
-83.5564650000000029
11
97.545535000000001
21
-83.429791999999992
0
LINE
8
BLACK
6
CONTINUOUS
10
97.545535000000001
20
-83.429791999999992
11
97.450224999999989
21
-83.2781069999999914
0
LINE
8
BLACK
6
CONTINUOUS
10
97.450224999999989
20
-83.2781069999999914
11
97.391058000000001
21
-83.1090169999999944
0
LINE
8
BLACK
6
CONTINUOUS
10
97.391058000000001
20
-83.1090169999999944
11
97.3709999999999951
21
-82.9309999999999974
0
LINE
8
BLACK
6
CONTINUOUS
10
97.3709999999999951
20
-82.9309999999999974
11
97.391058000000001
21
-82.7529830000000004
0
LINE
8
BLACK
6
CONTINUOUS
10
97.391058000000001
20
-82.7529830000000004
11
97.450224999999989
21
-82.5838930000000033
0
LINE
8
BLACK
6
CONTINUOUS
10
97.450224999999989
20
-82.5838930000000033
11
97.545535000000001
21
-82.4322080000000028
0
LINE
8
BLACK
6
CONTINUOUS
10
97.545535000000001
20
-82.4322080000000028
11
97.6722079999999977
21
-82.3055349999999919
0
LINE
8
BLACK
6
CONTINUOUS
10
97.6722079999999977
20
-82.3055349999999919
11
97.8238929999999982
21
-82.2102249999999941
0
LINE
8
BLACK
6
CONTINUOUS
10
97.8238929999999982
20
-82.2102249999999941
11
97.9929829999999953
21
-82.1510579999999919
0
LINE
8
BLACK
6
CONTINUOUS
10
97.9929829999999953
20
-82.1510579999999919
11
98.1709999999999923
21
-82.1310000000000002
0
LINE
8
BLACK
6
CONTINUOUS
10
98.1709999999999923
20
-82.1310000000000002
11
98.3490169999999893
21
-82.1510579999999919
0
LINE
8
BLACK
6
CONTINUOUS
10
105.9690169999999938
20
-82.1510579999999919
11
106.1381069999999909
21
-82.2102249999999941
0
LINE
8
BLACK
6
CONTINUOUS
10
106.1381069999999909
20
-82.2102249999999941
11
106.2897919999999914
21
-82.3055349999999919
0
LINE
8
BLACK
6
CONTINUOUS
10
106.2897919999999914
20
-82.3055349999999919
11
106.4164649999999881
21
-82.4322080000000028
0
LINE
8
BLACK
6
CONTINUOUS
10
106.4164649999999881
20
-82.4322080000000028
11
106.5117750000000001
21
-82.5838930000000033
0
LINE
8
BLACK
6
CONTINUOUS
10
106.5117750000000001
20
-82.5838930000000033
11
106.5709420000000023
21
-82.7529830000000004
0
LINE
8
BLACK
6
CONTINUOUS
10
106.5709420000000023
20
-82.7529830000000004
11
106.590999999999994
21
-82.9309999999999974
0
LINE
8
BLACK
6
CONTINUOUS
10
106.590999999999994
20
-82.9309999999999974
11
106.5709420000000023
21
-83.1090169999999944
0
LINE
8
BLACK
6
CONTINUOUS
10
106.5709420000000023
20
-83.1090169999999944
11
106.5117750000000001
21
-83.2781069999999914
0
LINE
8
BLACK
6
CONTINUOUS
10
106.5117750000000001
20
-83.2781069999999914
11
106.4164649999999881
21
-83.429791999999992
0
LINE
8
BLACK
6
CONTINUOUS
10
106.4164649999999881
20
-83.429791999999992
11
106.2897919999999914
21
-83.5564650000000029
0
LINE
8
BLACK
6
CONTINUOUS
10
106.2897919999999914
20
-83.5564650000000029
11
106.1381069999999909
21
-83.6517750000000007
0
LINE
8
BLACK
6
CONTINUOUS
10
106.1381069999999909
20
-83.6517750000000007
11
105.9690169999999938
21
-83.7109420000000028
0
LINE
8
BLACK
6
CONTINUOUS
10
105.9690169999999938
20
-83.7109420000000028
11
105.7909999999999968
21
-83.7309999999999945
0
LINE
8
BLACK
6
CONTINUOUS
10
105.7909999999999968
20
-83.7309999999999945
11
105.6129829999999998
21
-83.7109420000000028
0
LINE
8
BLACK
6
CONTINUOUS
10
105.6129829999999998
20
-83.7109420000000028
11
105.4438929999999885
21
-83.6517750000000007
0
LINE
8
BLACK
6
CONTINUOUS
10
105.4438929999999885
20
-83.6517750000000007
11
105.2922080000000022
21
-83.5564650000000029
0
LINE
8
BLACK
6
CONTINUOUS
10
105.2922080000000022
20
-83.5564650000000029
11
105.1655349999999913
21
-83.429791999999992
0
LINE
8
BLACK
6
CONTINUOUS
10
105.1655349999999913
20
-83.429791999999992
11
105.0702249999999935
21
-83.2781069999999914
0
LINE
8
BLACK
6
CONTINUOUS
10
105.0702249999999935
20
-83.2781069999999914
11
105.0110579999999914
21
-83.1090169999999944
0
LINE
8
BLACK
6
CONTINUOUS
10
105.0110579999999914
20
-83.1090169999999944
11
104.9909999999999997
21
-82.9309999999999974
0
LINE
8
BLACK
6
CONTINUOUS
10
104.9909999999999997
20
-82.9309999999999974
11
105.0110579999999914
21
-82.7529830000000004
0
LINE
8
BLACK
6
CONTINUOUS
10
105.0110579999999914
20
-82.7529830000000004
11
105.0702249999999935
21
-82.5838930000000033
0
LINE
8
BLACK
6
CONTINUOUS
10
105.0702249999999935
20
-82.5838930000000033
11
105.1655349999999913
21
-82.4322080000000028
0
LINE
8
BLACK
6
CONTINUOUS
10
105.1655349999999913
20
-82.4322080000000028
11
105.2922080000000022
21
-82.3055349999999919
0
LINE
8
BLACK
6
CONTINUOUS
10
105.2922080000000022
20
-82.3055349999999919
11
105.4438929999999885
21
-82.2102249999999941
0
LINE
8
BLACK
6
CONTINUOUS
10
105.4438929999999885
20
-82.2102249999999941
11
105.6129829999999998
21
-82.1510579999999919
0
LINE
8
BLACK
6
CONTINUOUS
10
105.6129829999999998
20
-82.1510579999999919
11
105.7909999999999968
21
-82.1310000000000002
0
LINE
8
BLACK
6
CONTINUOUS
10
105.7909999999999968
20
-82.1310000000000002
11
105.9690169999999938
21
-82.1510579999999919
0
LINE
8
BLACK
6
CONTINUOUS
10
113.6015000000000015
20
-78.3430000000000035
11
111.6965000000000003
21
-78.3430000000000035
0
LINE
8
BLACK
6
CONTINUOUS
10
111.6965000000000003
20
-78.3430000000000035
11
111.6965000000000003
21
-76.3430000000000035
0
LINE
8
BLACK
6
CONTINUOUS
10
111.6965000000000003
20
-76.3430000000000035
11
113.6015000000000015
21
-76.3430000000000035
0
LINE
8
BLACK
6
CONTINUOUS
10
113.6015000000000015
20
-76.3430000000000035
11
113.6015000000000015
21
-78.3430000000000035
0
LINE
8
BLACK
6
CONTINUOUS
10
107.8454959999999971
20
-76.3840139999999934
11
108.0180049999999881
21
-76.4554699999999912
0
LINE
8
BLACK
6
CONTINUOUS
10
108.0180049999999881
20
-76.4554699999999912
11
108.1732599999999991
21
-76.5592079999999982
0
LINE
8
BLACK
6
CONTINUOUS
10
108.1732599999999991
20
-76.5592079999999982
11
108.3052919999999943
21
-76.6912399999999934
0
LINE
8
BLACK
6
CONTINUOUS
10
108.3052919999999943
20
-76.6912399999999934
11
108.4090300000000013
21
-76.8464949999999902
0
LINE
8
BLACK
6
CONTINUOUS
10
108.4090300000000013
20
-76.8464949999999902
11
108.4804859999999991
21
-77.0190039999999954
0
LINE
8
BLACK
6
CONTINUOUS
10
108.4804859999999991
20
-77.0190039999999954
11
108.5169129999999882
21
-77.2021390000000025
0
LINE
8
BLACK
6
CONTINUOUS
10
108.5169129999999882
20
-77.2021390000000025
11
108.521499999999989
21
-77.390500000000003
0
LINE
8
BLACK
6
CONTINUOUS
10
108.521499999999989
20
-77.390500000000003
11
108.5169129999999882
21
-77.4838609999999903
0
LINE
8
BLACK
6
CONTINUOUS
10
108.5169129999999882
20
-77.4838609999999903
11
108.4804859999999991
21
-77.6669959999999975
0
LINE
8
BLACK
6
CONTINUOUS
10
108.4804859999999991
20
-77.6669959999999975
11
108.4090300000000013
21
-77.8395050000000026
0
LINE
8
BLACK
6
CONTINUOUS
10
108.4090300000000013
20
-77.8395050000000026
11
108.3052919999999943
21
-77.9947599999999994
0
LINE
8
BLACK
6
CONTINUOUS
10
108.3052919999999943
20
-77.9947599999999994
11
108.1732599999999991
21
-78.1267919999999947
0
LINE
8
BLACK
6
CONTINUOUS
10
108.1732599999999991
20
-78.1267919999999947
11
108.0180049999999881
21
-78.2305300000000017
0
LINE
8
BLACK
6
CONTINUOUS
10
108.0180049999999881
20
-78.2305300000000017
11
107.8454959999999971
21
-78.3019859999999994
0
LINE
8
BLACK
6
CONTINUOUS
10
107.8454959999999971
20
-78.3019859999999994
11
107.66236099999999
21
-78.3384130000000027
0
LINE
8
BLACK
6
CONTINUOUS
10
107.66236099999999
20
-78.3384130000000027
11
107.475639000000001
21
-78.3384130000000027
0
LINE
8
BLACK
6
CONTINUOUS
10
107.475639000000001
20
-78.3384130000000027
11
107.2925039999999939
21
-78.3019859999999994
0
LINE
8
BLACK
6
CONTINUOUS
10
107.2925039999999939
20
-78.3019859999999994
11
107.1199949999999887
21
-78.2305300000000017
0
LINE
8
BLACK
6
CONTINUOUS
10
107.1199949999999887
20
-78.2305300000000017
11
106.9647399999999919
21
-78.1267919999999947
0
LINE
8
BLACK
6
CONTINUOUS
10
106.9647399999999919
20
-78.1267919999999947
11
106.8327079999999967
21
-77.9947599999999994
0
LINE
8
BLACK
6
CONTINUOUS
10
106.8327079999999967
20
-77.9947599999999994
11
106.7289699999999897
21
-77.8395050000000026
0
LINE
8
BLACK
6
CONTINUOUS
10
106.7289699999999897
20
-77.8395050000000026
11
106.6575139999999919
21
-77.6669959999999975
0
LINE
8
BLACK
6
CONTINUOUS
10
106.6575139999999919
20
-77.6669959999999975
11
106.6210869999999886
21
-77.4838609999999903
0
LINE
8
BLACK
6
CONTINUOUS
10
106.6210869999999886
20
-77.4838609999999903
11
106.616500000000002
21
-77.2954999999999899
0
LINE
8
BLACK
6
CONTINUOUS
10
106.616500000000002
20
-77.2954999999999899
11
106.6210869999999886
21
-77.2021390000000025
0
LINE
8
BLACK
6
CONTINUOUS
10
106.6210869999999886
20
-77.2021390000000025
11
106.6575139999999919
21
-77.0190039999999954
0
LINE
8
BLACK
6
CONTINUOUS
10
106.6575139999999919
20
-77.0190039999999954
11
106.7289699999999897
21
-76.8464949999999902
0
LINE
8
BLACK
6
CONTINUOUS
10
106.7289699999999897
20
-76.8464949999999902
11
106.8327079999999967
21
-76.6912399999999934
0
LINE
8
BLACK
6
CONTINUOUS
10
106.8327079999999967
20
-76.6912399999999934
11
106.9647399999999919
21
-76.5592079999999982
0
LINE
8
BLACK
6
CONTINUOUS
10
106.9647399999999919
20
-76.5592079999999982
11
107.1199949999999887
21
-76.4554699999999912
0
LINE
8
BLACK
6
CONTINUOUS
10
107.1199949999999887
20
-76.4554699999999912
11
107.2925039999999939
21
-76.3840139999999934
0
LINE
8
BLACK
6
CONTINUOUS
10
107.2925039999999939
20
-76.3840139999999934
11
107.475639000000001
21
-76.3475869999999901
0
LINE
8
BLACK
6
CONTINUOUS
10
107.475639000000001
20
-76.3475869999999901
11
107.66236099999999
21
-76.3475869999999901
0
LINE
8
BLACK
6
CONTINUOUS
10
107.66236099999999
20
-76.3475869999999901
11
107.8454959999999971
21
-76.3840139999999934
0
LINE
8
BLACK
6
CONTINUOUS
10
110.3854959999999892
20
-76.3840139999999934
11
110.5580049999999943
21
-76.4554699999999912
0
LINE
8
BLACK
6
CONTINUOUS
10
110.5580049999999943
20
-76.4554699999999912
11
110.7132599999999911
21
-76.5592079999999982
0
LINE
8
BLACK
6
CONTINUOUS
10
110.7132599999999911
20
-76.5592079999999982
11
110.8452920000000006
21
-76.6912399999999934
0
LINE
8
BLACK
6
CONTINUOUS
10
110.8452920000000006
20
-76.6912399999999934
11
110.9490299999999934
21
-76.8464949999999902
0
LINE
8
BLACK
6
CONTINUOUS
10
110.9490299999999934
20
-76.8464949999999902
11
111.0204859999999911
21
-77.0190039999999954
0
LINE
8
BLACK
6
CONTINUOUS
10
111.0204859999999911
20
-77.0190039999999954
11
111.0569129999999944
21
-77.2021390000000025
0
LINE
8
BLACK
6
CONTINUOUS
10
111.0569129999999944
20
-77.2021390000000025
11
111.0614999999999952
21
-77.390500000000003
0
LINE
8
BLACK
6
CONTINUOUS
10
111.0614999999999952
20
-77.390500000000003
11
111.0569129999999944
21
-77.4838609999999903
0
LINE
8
BLACK
6
CONTINUOUS
10
111.0569129999999944
20
-77.4838609999999903
11
111.0204859999999911
21
-77.6669959999999975
0
LINE
8
BLACK
6
CONTINUOUS
10
111.0204859999999911
20
-77.6669959999999975
11
110.9490299999999934
21
-77.8395050000000026
0
LINE
8
BLACK
6
CONTINUOUS
10
110.9490299999999934
20
-77.8395050000000026
11
110.8452920000000006
21
-77.9947599999999994
0
LINE
8
BLACK
6
CONTINUOUS
10
110.8452920000000006
20
-77.9947599999999994
11
110.7132599999999911
21
-78.1267919999999947
0
LINE
8
BLACK
6
CONTINUOUS
10
110.7132599999999911
20
-78.1267919999999947
11
110.5580049999999943
21
-78.2305300000000017
0
LINE
8
BLACK
6
CONTINUOUS
10
110.5580049999999943
20
-78.2305300000000017
11
110.3854959999999892
21
-78.3019859999999994
0
LINE
8
BLACK
6
CONTINUOUS
10
110.3854959999999892
20
-78.3019859999999994
11
110.2023609999999962
21
-78.3384130000000027
0
LINE
8
BLACK
6
CONTINUOUS
10
110.2023609999999962
20
-78.3384130000000027
11
110.0156389999999931
21
-78.3384130000000027
0
LINE
8
BLACK
6
CONTINUOUS
10
110.0156389999999931
20
-78.3384130000000027
11
109.8325040000000001
21
-78.3019859999999994
0
LINE
8
BLACK
6
CONTINUOUS
10
109.8325040000000001
20
-78.3019859999999994
11
109.659994999999995
21
-78.2305300000000017
0
LINE
8
BLACK
6
CONTINUOUS
10
109.659994999999995
20
-78.2305300000000017
11
109.5047399999999982
21
-78.1267919999999947
0
LINE
8
BLACK
6
CONTINUOUS
10
109.5047399999999982
20
-78.1267919999999947
11
109.3727079999999887
21
-77.9947599999999994
0
LINE
8
BLACK
6
CONTINUOUS
10
109.3727079999999887
20
-77.9947599999999994
11
109.2689699999999959
21
-77.8395050000000026
0
LINE
8
BLACK
6
CONTINUOUS
10
109.2689699999999959
20
-77.8395050000000026
11
109.1975139999999982
21
-77.6669959999999975
0
LINE
8
BLACK
6
CONTINUOUS
10
109.1975139999999982
20
-77.6669959999999975
11
109.1610869999999949
21
-77.4838609999999903
0
LINE
8
BLACK
6
CONTINUOUS
10
109.1610869999999949
20
-77.4838609999999903
11
109.1564999999999941
21
-77.2954999999999899
0
LINE
8
BLACK
6
CONTINUOUS
10
109.1564999999999941
20
-77.2954999999999899
11
109.1610869999999949
21
-77.2021390000000025
0
LINE
8
BLACK
6
CONTINUOUS
10
109.1610869999999949
20
-77.2021390000000025
11
109.1975139999999982
21
-77.0190039999999954
0
LINE
8
BLACK
6
CONTINUOUS
10
109.1975139999999982
20
-77.0190039999999954
11
109.2689699999999959
21
-76.8464949999999902
0
LINE
8
BLACK
6
CONTINUOUS
10
109.2689699999999959
20
-76.8464949999999902
11
109.3727079999999887
21
-76.6912399999999934
0
LINE
8
BLACK
6
CONTINUOUS
10
109.3727079999999887
20
-76.6912399999999934
11
109.5047399999999982
21
-76.5592079999999982
0
LINE
8
BLACK
6
CONTINUOUS
10
109.5047399999999982
20
-76.5592079999999982
11
109.659994999999995
21
-76.4554699999999912
0
LINE
8
BLACK
6
CONTINUOUS
10
109.659994999999995
20
-76.4554699999999912
11
109.8325040000000001
21
-76.3840139999999934
0
LINE
8
BLACK
6
CONTINUOUS
10
109.8325040000000001
20
-76.3840139999999934
11
110.0156389999999931
21
-76.3475869999999901
0
LINE
8
BLACK
6
CONTINUOUS
10
110.0156389999999931
20
-76.3475869999999901
11
110.2023609999999962
21
-76.3475869999999901
0
LINE
8
BLACK
6
CONTINUOUS
10
110.2023609999999962
20
-76.3475869999999901
11
110.3854959999999892
21
-76.3840139999999934
0
LINE
8
BLACK
6
CONTINUOUS
10
103.1289999999999907
20
-76.7830000000000013
11
100.5789999999999935
21
-76.7830000000000013
0
LINE
8
BLACK
6
CONTINUOUS
10
100.5789999999999935
20
-76.7830000000000013
11
100.5789999999999935
21
-72.8229999999999933
0
LINE
8
BLACK
6
CONTINUOUS
10
100.5789999999999935
20
-72.8229999999999933
11
103.1289999999999907
21
-72.8229999999999933
0
LINE
8
BLACK
6
CONTINUOUS
10
103.1289999999999907
20
-72.8229999999999933
11
103.1289999999999907
21
-76.7830000000000013
0
LINE
8
BLACK
6
CONTINUOUS
10
97.1516429999999929
20
-72.8582279999999969
11
97.3419209999999993
21
-72.9200539999999933
0
LINE
8
BLACK
6
CONTINUOUS
10
97.3419209999999993
20
-72.9200539999999933
11
97.5201859999999954
21
-73.0108839999999901
0
LINE
8
BLACK
6
CONTINUOUS
10
97.5201859999999954
20
-73.0108839999999901
11
97.6820459999999997
21
-73.1284819999999911
0
LINE
8
BLACK
6
CONTINUOUS
10
97.6820459999999997
20
-73.1284819999999911
11
97.8235179999999929
21
-73.2699539999999985
0
LINE
8
BLACK
6
CONTINUOUS
10
97.8235179999999929
20
-73.2699539999999985
11
97.9411159999999938
21
-73.4318140000000028
0
LINE
8
BLACK
6
CONTINUOUS
10
97.9411159999999938
20
-73.4318140000000028
11
98.0319459999999907
21
-73.6100789999999989
0
LINE
8
BLACK
6
CONTINUOUS
10
98.0319459999999907
20
-73.6100789999999989
11
98.0937720000000013
21
-73.8003569999999911
0
LINE
8
BLACK
6
CONTINUOUS
10
98.0937720000000013
20
-73.8003569999999911
11
98.1250699999999938
21
-73.9979649999999936
0
LINE
8
BLACK
6
CONTINUOUS
10
98.1250699999999938
20
-73.9979649999999936
11
98.1289999999999907
21
-75.5079999999999956
0
LINE
8
BLACK
6
CONTINUOUS
10
98.1289999999999907
20
-75.5079999999999956
11
98.1250699999999938
21
-75.608035000000001
0
LINE
8
BLACK
6
CONTINUOUS
10
98.1250699999999938
20
-75.608035000000001
11
98.0937720000000013
21
-75.8056430000000034
0
LINE
8
BLACK
6
CONTINUOUS
10
98.0937720000000013
20
-75.8056430000000034
11
98.0319459999999907
21
-75.9959209999999956
0
LINE
8
BLACK
6
CONTINUOUS
10
98.0319459999999907
20
-75.9959209999999956
11
97.9411159999999938
21
-76.1741859999999917
0
LINE
8
BLACK
6
CONTINUOUS
10
97.9411159999999938
20
-76.1741859999999917
11
97.8235179999999929
21
-76.3360459999999961
0
LINE
8
BLACK
6
CONTINUOUS
10
97.8235179999999929
20
-76.3360459999999961
11
97.6820459999999997
21
-76.4775180000000034
0
LINE
8
BLACK
6
CONTINUOUS
10
97.6820459999999997
20
-76.4775180000000034
11
97.5201859999999954
21
-76.5951159999999902
0
LINE
8
BLACK
6
CONTINUOUS
10
97.5201859999999954
20
-76.5951159999999902
11
97.3419209999999993
21
-76.6859460000000013
0
LINE
8
BLACK
6
CONTINUOUS
10
97.3419209999999993
20
-76.6859460000000013
11
97.1516429999999929
21
-76.7477719999999977
0
LINE
8
BLACK
6
CONTINUOUS
10
97.1516429999999929
20
-76.7477719999999977
11
96.9540349999999904
21
-76.7790699999999902
0
LINE
8
BLACK
6
CONTINUOUS
10
96.9540349999999904
20
-76.7790699999999902
11
96.7539649999999938
21
-76.7790699999999902
0
LINE
8
BLACK
6
CONTINUOUS
10
96.7539649999999938
20
-76.7790699999999902
11
96.5563569999999913
21
-76.7477719999999977
0
LINE
8
BLACK
6
CONTINUOUS
10
96.5563569999999913
20
-76.7477719999999977
11
96.3660789999999992
21
-76.6859460000000013
0
LINE
8
BLACK
6
CONTINUOUS
10
96.3660789999999992
20
-76.6859460000000013
11
96.1878139999999888
21
-76.5951159999999902
0
LINE
8
BLACK
6
CONTINUOUS
10
96.1878139999999888
20
-76.5951159999999902
11
96.0259539999999987
21
-76.4775180000000034
0
LINE
8
BLACK
6
CONTINUOUS
10
96.0259539999999987
20
-76.4775180000000034
11
95.8844819999999913
21
-76.3360459999999961
0
LINE
8
BLACK
6
CONTINUOUS
10
95.8844819999999913
20
-76.3360459999999961
11
95.7668839999999904
21
-76.1741859999999917
0
LINE
8
BLACK
6
CONTINUOUS
10
95.7668839999999904
20
-76.1741859999999917
11
95.6760539999999935
21
-75.9959209999999956
0
LINE
8
BLACK
6
CONTINUOUS
10
95.6760539999999935
20
-75.9959209999999956
11
95.6142279999999971
21
-75.8056430000000034
0
LINE
8
BLACK
6
CONTINUOUS
10
95.6142279999999971
20
-75.8056430000000034
11
95.5829299999999904
21
-75.608035000000001
0
LINE
8
BLACK
6
CONTINUOUS
10
95.5829299999999904
20
-75.608035000000001
11
95.5789999999999935
21
-74.097999999999999
0
LINE
8
BLACK
6
CONTINUOUS
10
95.5789999999999935
20
-74.097999999999999
11
95.5829299999999904
21
-73.9979649999999936
0
LINE
8
BLACK
6
CONTINUOUS
10
95.5829299999999904
20
-73.9979649999999936
11
95.6142279999999971
21
-73.8003569999999911
0
LINE
8
BLACK
6
CONTINUOUS
10
95.6142279999999971
20
-73.8003569999999911
11
95.6760539999999935
21
-73.6100789999999989
0
LINE
8
BLACK
6
CONTINUOUS
10
95.6760539999999935
20
-73.6100789999999989
11
95.7668839999999904
21
-73.4318140000000028
0
LINE
8
BLACK
6
CONTINUOUS
10
95.7668839999999904
20
-73.4318140000000028
11
95.8844819999999913
21
-73.2699539999999985
0
LINE
8
BLACK
6
CONTINUOUS
10
95.8844819999999913
20
-73.2699539999999985
11
96.0259539999999987
21
-73.1284819999999911
0
LINE
8
BLACK
6
CONTINUOUS
10
96.0259539999999987
20
-73.1284819999999911
11
96.1878139999999888
21
-73.0108839999999901
0
LINE
8
BLACK
6
CONTINUOUS
10
96.1878139999999888
20
-73.0108839999999901
11
96.3660789999999992
21
-72.9200539999999933
0
LINE
8
BLACK
6
CONTINUOUS
10
96.3660789999999992
20
-72.9200539999999933
11
96.5563569999999913
21
-72.8582279999999969
0
LINE
8
BLACK
6
CONTINUOUS
10
96.5563569999999913
20
-72.8582279999999969
11
96.7539649999999938
21
-72.8269299999999902
0
LINE
8
BLACK
6
CONTINUOUS
10
96.7539649999999938
20
-72.8269299999999902
11
96.9540349999999904
21
-72.8269299999999902
0
LINE
8
BLACK
6
CONTINUOUS
10
96.9540349999999904
20
-72.8269299999999902
11
97.1516429999999929
21
-72.8582279999999969
0
CIRCLE
8
BLACK
10
58.6029999999999944
20
-103.3780000000000001
40
0.7749999999999999
0
CIRCLE
8
BLACK
10
65.6029999999999944
20
-103.3780000000000001
40
0.7749999999999999
0
CIRCLE
8
BLACK
10
86.6189999999999998
20
-92.7099999999999937
40
0.45
0
CIRCLE
8
BLACK
10
84.0789999999999935
20
-92.7099999999999937
40
0.45
0
CIRCLE
8
BLACK
10
116.2049999999999983
20
-91.4399999999999977
40
0.4
0
CIRCLE
8
BLACK
10
116.2049999999999983
20
-83.8199999999999932
40
0.4
0
CIRCLE
8
BLACK
10
108.6059999999999945
20
-86.3599999999999994
40
0.4
0
CIRCLE
8
BLACK
10
108.6059999999999945
20
-88.8999999999999915
40
0.4
0
CIRCLE
8
BLACK
10
108.6059999999999945
20
-91.4399999999999977
40
0.4
0
CIRCLE
8
BLACK
10
94.6149999999999949
20
-91.4399999999999977
40
0.4
0
CIRCLE
8
BLACK
10
94.6149999999999949
20
-88.8999999999999915
40
0.4
0
CIRCLE
8
BLACK
10
94.6149999999999949
20
-86.3599999999999994
40
0.4
0
CIRCLE
8
BLACK
10
65.5319999999999965
20
-84.6989999999999981
40
0.45
0
CIRCLE
8
BLACK
10
65.5319999999999965
20
-87.2389999999999901
40
0.45
0
CIRCLE
8
BLACK
10
85.3439999999999941
20
-87.2489999999999952
40
0.45
0
CIRCLE
8
BLACK
10
85.3439999999999941
20
-84.7090000000000032
40
0.45
0
CIRCLE
8
BLACK
10
105.7909999999999968
20
-101.0789999999999935
40
0.7749999999999999
0
CIRCLE
8
BLACK
10
105.7909999999999968
20
-96.2789999999999964
40
0.7749999999999999
0
CIRCLE
8
BLACK
10
58.9279999999999973
20
-87.2439999999999998
40
0.45
0
CIRCLE
8
BLACK
10
58.9279999999999973
20
-84.7039999999999935
40
0.45
0
CIRCLE
8
BLACK
10
92.2119999999999891
20
-101.340999999999994
40
0.4
0
CIRCLE
8
BLACK
10
92.2119999999999891
20
-103.8810000000000002
40
0.4
0
CIRCLE
8
BLACK
10
99.8319999999999936
20
-103.8810000000000002
40
0.4
0
CIRCLE
8
BLACK
10
99.8319999999999936
20
-101.340999999999994
40
0.4
0
CIRCLE
8
BLACK
10
113.2839999999999918
20
-94.019999999999996
40
0.4
0
CIRCLE
8
BLACK
10
113.2839999999999918
20
-99.019999999999996
40
0.4
0
CIRCLE
8
BLACK
10
80.8990000000000009
20
-90.9320000000000022
40
0.4
0
CIRCLE
8
BLACK
10
73.2789999999999964
20
-90.9320000000000022
40
0.4
0
CIRCLE
8
BLACK
10
90.296999999999997
20
-91.4399999999999977
40
0.4
0
CIRCLE
8
BLACK
10
90.296999999999997
20
-83.8199999999999932
40
0.4
0
CIRCLE
8
BLACK
10
73.2789999999999964
20
-97.2819999999999965
40
0.4
0
CIRCLE
8
BLACK
10
80.8990000000000009
20
-97.2819999999999965
40
0.4
0
CIRCLE
8
BLACK
10
72.1359999999999957
20
-87.2439999999999998
40
0.45
0
CIRCLE
8
BLACK
10
72.1359999999999957
20
-84.7039999999999935
40
0.45
0
CIRCLE
8
BLACK
10
84.328000000000003
20
-100.6899999999999977
40
0.4
0
CIRCLE
8
BLACK
10
86.867999999999995
20
-100.6899999999999977
40
0.4
0
CIRCLE
8
BLACK
10
89.4080000000000013
20
-100.6899999999999977
40
0.4
0
CIRCLE
8
BLACK
10
97.789999999999992
20
-90.9320000000000022
40
0.4
0
CIRCLE
8
BLACK
10
105.4099999999999966
20
-90.9320000000000022
40
0.4
0
CIRCLE
8
BLACK
10
105.7909999999999968
20
-82.9309999999999974
40
0.4
0
CIRCLE
8
BLACK
10
98.1709999999999923
20
-82.9309999999999974
40
0.4
0
CIRCLE
8
BLACK
10
96.8539999999999992
20
-74.8029999999999973
40
0.6599999999999999
0
CIRCLE
8
BLACK
10
101.8539999999999992
20
-74.8029999999999973
40
0.6599999999999999
0
CIRCLE
8
BLACK
10
112.6490000000000009
20
-77.3430000000000035
40
0.5499999999999999
0
CIRCLE
8
BLACK
10
110.1089999999999947
20
-77.3430000000000035
40
0.5499999999999999
0
CIRCLE
8
BLACK
10
107.5689999999999884
20
-77.3430000000000035
40
0.5499999999999999
0
CIRCLE
8
BLACK
10
113.0300000000000011
20
-91.4399999999999977
40
0.4
0
CIRCLE
8
BLACK
10
113.0300000000000011
20
-83.8199999999999932
40
0.4
0
CIRCLE
8
BLACK
10
80.8990000000000009
20
-94.1069999999999993
40
0.4
0
CIRCLE
8
BLACK
10
73.2789999999999964
20
-94.1069999999999993
40
0.4
0
CIRCLE
8
BLACK
10
78.7399999999999949
20
-87.2439999999999998
40
0.45
0
CIRCLE
8
BLACK
10
78.7399999999999949
20
-84.7039999999999935
40
0.45
0
CIRCLE
8
BLACK
10
62.1029999999999944
20
-92.2309999999999945
40
0.6599999999999999
0
CIRCLE
8
BLACK
10
62.1029999999999944
20
-97.2309999999999945
40
0.6599999999999999
0
CIRCLE
8
BLACK
10
97.789999999999992
20
-86.867999999999995
40
0.4
0
CIRCLE
8
BLACK
10
105.4099999999999966
20
-86.867999999999995
40
0.4
  0
ENDSEC
  0
EOF
